<svg xmlns="http://www.w3.org/2000/svg" viewBox="0 0 48 48"><defs><style>.cls-1{fill:#da1202;}.cls-2{fill:#527710;}.cls-3{fill:#63b300;}.cls-4{fill:#961300;}.cls-5{fill:#436600;}.cls-6{fill:#2f4700;}.cls-7{fill:#224326;}.cls-8{fill:#b31700;}.cls-9{fill:#9cdf00;}.cls-10{fill:#f75749;}.cls-11{fill:#f7786d;}.cls-12{fill:#f6fafd;}.cls-13{fill:none;stroke:#001a1f;stroke-linejoin:round;stroke-width:2px;}</style></defs><title>04-apple</title><g id="_04-apple" data-name="04-apple"><path class="cls-1" d="M43,24c0,12.16-6.71,23-15,23-2,0-1.79-1-4-1s-2,1-4,1C11.71,47,5,36.16,5,24c0-9.94,9.06-13,19-13S43,14.06,43,24Z"/><path class="cls-2" d="M20,5c3.83,0,5.95,5.34,6,10.81A9.63,9.63,0,0,1,24,16a9.5,9.5,0,0,1-1.98-.19C22.91,8.96,18,7,18,7Z"/><path class="cls-3" d="M43,2s-2,9-16,9H25V9c0-4.42,5.03-8,10-8C35,1,41,1,43,2Z"/><path class="cls-1" d="M43,24c0,12.16-6.71,23-15,23-2,0-1.79-1-4-1s-2,1-4,1C11.71,47,5,36.16,5,24c0-9.94,9.06-13,19-13S43,14.06,43,24Z"/><path class="cls-4" d="M24,11C14.06,11,5,14.06,5,24c0,12.16,6.71,23,15,23,2,0,1.79-1,4-1s2,1,4,1c8.29,0,15-10.84,15-23C43,14.06,33.94,11,24,11Zm5.368,32c-1.684,0-1.507-.833-3.368-.833S24.316,43,22.632,43C15.651,43,10,33.967,10,23.833,10,15.55,17.629,12,26,12s16,3.55,16,11.833C42,33.967,36.349,43,29.368,43Z"/><path class="cls-4" d="M29,14s-1-1-5-1-5,1-5,1,1,2,5,2S29,14,29,14Z"/><path class="cls-2" d="M20,5c3.83,0,5.95,5.34,6,10.81A9.63,9.63,0,0,1,24,16a9.5,9.5,0,0,1-1.98-.19C22.91,8.96,18,7,18,7Z"/><path class="cls-5" d="M19.335,5.665,18,7s4.91,1.96,4.02,8.81A9.5,9.5,0,0,0,23.976,16C23.788,11.031,21.9,7.149,19.335,5.665Z"/><path class="cls-2" d="M23.967,16a9.489,9.489,0,0,1-1.947-.188A9.489,9.489,0,0,0,23.967,16Z"/><path class="cls-5" d="M23.8,14c.089.645.155,1.308.181,2H24a9.63,9.63,0,0,0,2-.19c-.006-.608-.041-1.213-.1-1.81Z"/><polygon class="cls-6" points="23.976 15.999 23.976 15.999 23.967 15.998 23.976 15.999"/><path class="cls-7" d="M22.112,14a11.965,11.965,0,0,1-.092,1.81A9.489,9.489,0,0,0,23.967,16h.009c-.026-.691-.092-1.354-.181-2Z"/><path class="cls-8" d="M22.057,13.092C19.661,13.339,19,14,19,14a2.579,2.579,0,0,0,.568.667,8.4,8.4,0,0,1,2.545-.58C22.109,13.741,22.092,13.408,22.057,13.092Z"/><path class="cls-8" d="M28.432,14.667A2.579,2.579,0,0,0,29,14s-.693-.685-3.2-.921c.046.334.085.67.115,1.01A8.354,8.354,0,0,1,28.432,14.667Z"/><path class="cls-3" d="M43,2s-2,9-16,9H25V9c0-4.42,5.03-8,10-8C35,1,41,1,43,2Z"/><path class="cls-9" d="M42.977,2.09C42.992,2.033,43,2,43,2c-2-1-8-1-8-1C30.03,1,25,4.58,25,9v1.9C27.443,7.105,34.171,3.745,42.977,2.09Z"/><path class="cls-10" d="M37.625,16.394a4.131,4.131,0,0,0-4.439-1.185,10.791,10.791,0,0,0-2.007,1.036,12.886,12.886,0,0,1-6.653,1.474c-.854-.036-1.924-.077-2.331.443a.734.734,0,0,0,.243,1.018,4.011,4.011,0,0,0,1.3.608c3.609,1.169,7.914,1.72,11.558.605a6.514,6.514,0,0,0,1.378-.57A2.292,2.292,0,0,0,37.625,16.394Z"/><path class="cls-10" d="M32.8,23.17a1.591,1.591,0,0,0-1.036.566,1.726,1.726,0,0,0-.187.826,34.384,34.384,0,0,1-3.034,12.191,4.982,4.982,0,0,0-.539,1.621,1.528,1.528,0,0,0,.659,1.477,1.825,1.825,0,0,0,1.174.1,9.633,9.633,0,0,0,5.788-3.7,22.339,22.339,0,0,0,3.252-6.306,18.488,18.488,0,0,0,1.047-3.838,5.054,5.054,0,0,0-.258-2.748C38.468,20.7,34.8,22.675,32.8,23.17Z"/><ellipse class="cls-10" cx="18" cy="17" rx="1.684" ry="3.187" transform="translate(-4.793 26.668) rotate(-66.349)"/><path class="cls-10" d="M26,12c-.129,0-.256.009-.384.01q.1.527.179,1.069h0a6.848,6.848,0,0,1,3.057.81h0c.051.033.087.06.111.079l.006.005L29,14l-.027.047,0,.008a2.813,2.813,0,0,1-.535.612h0A5.257,5.257,0,0,1,26,15.8v.008c-.064.014-.143.019-.209.032-.179.033-.365.062-.563.085-.1.012-.2.022-.306.03-.29.025-.592.043-.922.043s-.64-.018-.933-.044c-.087-.007-.171-.015-.254-.025-.27-.03-.528-.068-.764-.116l-.029,0v0a5.27,5.27,0,0,1-2.452-1.14h0a2.813,2.813,0,0,1-.535-.612l0-.008L19,14l.024-.021.014-.011a.971.971,0,0,1,.095-.069l.022-.015c.044-.028.1-.06.164-.1l.022-.013c.072-.038.159-.079.257-.121l.064-.027c.106-.044.225-.089.363-.135l.045-.013c.132-.043.28-.084.442-.125l.087-.022c.176-.042.371-.082.583-.119l.133-.021c.229-.037.471-.072.742-.1h0c-.029-.271-.063-.536-.112-.786a16.457,16.457,0,0,0-8.471,3.577A38.1,38.1,0,0,0,29.857,33.4a34.424,34.424,0,0,0,1.722-8.842,1.724,1.724,0,0,1,.187-.826A1.591,1.591,0,0,1,32.8,23.17c2-.5,5.666-2.469,6.866.189a5.054,5.054,0,0,1,.258,2.748,18.55,18.55,0,0,1-1.047,3.838,22.939,22.939,0,0,1-3.073,6.048c.9.3,1.807.584,2.734.821A25.186,25.186,0,0,0,42,23.833C42,15.55,34.371,12,26,12Zm-5.057,6.22c-.312.878-1.883,1.043-3.508.37s-2.69-1.932-2.378-2.81,1.883-1.043,3.508-.37S21.255,17.342,20.943,18.22Zm15.732,1.6a6.514,6.514,0,0,1-1.378.57c-3.644,1.115-7.949.564-11.558-.605a4.011,4.011,0,0,1-1.3-.608.734.734,0,0,1-.243-1.018c.407-.52,1.477-.479,2.331-.443a12.886,12.886,0,0,0,6.653-1.474,10.791,10.791,0,0,1,2.007-1.036,4.131,4.131,0,0,1,4.439,1.185A2.292,2.292,0,0,1,36.675,19.823Z"/><path class="cls-1" d="M21.945,12.306a8.235,8.235,0,0,0-.344-1.235,27.139,27.139,0,0,0-9.315,1.95c.355.975.757,1.926,1.188,2.862A16.457,16.457,0,0,1,21.945,12.306Z"/><path class="cls-1" d="M26,12c8.371,0,16,3.55,16,11.833a25.186,25.186,0,0,1-3.46,12.981c.541.139,1.087.263,1.637.378A31.535,31.535,0,0,0,43,24c0-9.473-8.231-12.69-17.607-12.972q.124.481.223.982C25.744,12.009,25.871,12,26,12Z"/><path class="cls-4" d="M19.662,13.627c.106-.044.225-.089.363-.135C19.887,13.538,19.768,13.583,19.662,13.627Z"/><path class="cls-4" d="M20.07,13.479c.132-.043.28-.084.442-.125C20.35,13.4,20.2,13.436,20.07,13.479Z"/><path class="cls-4" d="M19.341,13.775c.072-.038.159-.079.257-.121C19.5,13.7,19.413,13.737,19.341,13.775Z"/><path class="cls-4" d="M21.315,13.192c.228-.038.471-.072.742-.1C21.786,13.12,21.544,13.155,21.315,13.192Z"/><path class="cls-8" d="M22.111,14.088a8.4,8.4,0,0,0-2.543.579,5.27,5.27,0,0,0,2.452,1.14c.045-.346.066-.672.082-.994C22.112,14.565,22.114,14.324,22.111,14.088Z"/><path class="cls-4" d="M25.8,13.079a6.89,6.89,0,0,1,3.057.81A6.848,6.848,0,0,0,25.8,13.079Z"/><path class="cls-4" d="M19.155,13.884c.044-.028.1-.061.164-.1C19.253,13.824,19.2,13.856,19.155,13.884Z"/><path class="cls-4" d="M20.6,13.332c.176-.042.371-.082.583-.119C20.97,13.25,20.775,13.29,20.6,13.332Z"/><path class="cls-4" d="M22.112,14h0c-.006-.315-.023-.619-.055-.908h0c.033.3.049.626.054.959C22.111,14.034,22.112,14.016,22.112,14Z"/><path class="cls-4" d="M19.032,14.055a2.813,2.813,0,0,0,.535.612A2.853,2.853,0,0,1,19.032,14.055Z"/><path class="cls-4" d="M24.922,15.957c-.292.024-.593.043-.922.043C24.33,16,24.632,15.982,24.922,15.957Z"/><path class="cls-4" d="M25.791,15.842c-.179.033-.364.063-.563.085C25.426,15.9,25.612,15.875,25.791,15.842Z"/><path class="cls-4" d="M29,14l-.027.047Z"/><path class="cls-4" d="M28.97,13.974,29,14Z"/><path class="cls-4" d="M28.853,13.89c.051.033.087.06.111.079C28.94,13.95,28.9,13.923,28.853,13.89Z"/><path class="cls-4" d="M23.967,16h0c-.32,0-.616-.018-.9-.042.293.026.6.044.933.044h-.033Z"/><path class="cls-4" d="M19.038,13.968c.021-.017.053-.041.095-.069A.971.971,0,0,0,19.038,13.968Z"/><path class="cls-4" d="M19,14l.024-.021Z"/><path class="cls-4" d="M19.027,14.047,19,14Z"/><path class="cls-4" d="M22.813,15.931c-.27-.03-.529-.067-.764-.116C22.285,15.863,22.543,15.9,22.813,15.931Z"/><path class="cls-4" d="M28.433,14.667a2.813,2.813,0,0,0,.535-.612A2.853,2.853,0,0,1,28.433,14.667Z"/><path class="cls-8" d="M26,15.8a5.257,5.257,0,0,0,2.432-1.135,8.354,8.354,0,0,0-2.522-.578C25.961,14.655,25.994,15.227,26,15.8Z"/><path class="cls-2" d="M23.123,11.017c.292,0,.583-.017.877-.017.467,0,.93.014,1.393.028L25.386,11H25V9.745C24.016,6.974,22.325,5,20,5l-.665.665A9.388,9.388,0,0,1,23.123,11.017Z"/><path class="cls-2" d="M22.814,15.931h0c.083.01.167.018.254.025l-.02,0C22.968,15.947,22.891,15.94,22.814,15.931Z"/><path class="cls-2" d="M24,13c.685,0,1.276.031,1.8.079h0q-.077-.542-.179-1.069-1.107.015-2.187.116c.072.286.134.58.192.88C23.747,13,23.868,13,24,13Z"/><path class="cls-2" d="M22.02,15.81l.029,0h0Z"/><polygon class="cls-2" points="26 15.81 26 15.802 26 15.802 26 15.81"/><path class="cls-2" d="M23.123,11.017c.116.355.212.73.306,1.109q1.08-.1,2.187-.116-.1-.5-.223-.982C24.93,11.014,24.467,11,24,11,23.706,11,23.415,11.012,23.123,11.017Z"/><path class="cls-2" d="M25.9,14c-.029-.309-.063-.617-.1-.921C25.276,13.031,24.685,13,24,13c-.132,0-.253,0-.379.006.064.326.127.653.174.994Z"/><path class="cls-2" d="M23.965,16c-.327,0-.629-.019-.918-.044l.02,0c.284.024.58.041.9.042Z"/><path class="cls-2" d="M25.91,14.089l0-.039c.053.579.088,1.164.094,1.752h0c-.006-.575-.039-1.147-.09-1.713Z"/><path class="cls-2" d="M22.049,15.815h0c.235.049.494.086.764.116h0C22.544,15.9,22.285,15.864,22.049,15.815Z"/><path class="cls-5" d="M19.335,5.665,18,7a7.1,7.1,0,0,1,3.6,4.071c.5-.027,1.011-.044,1.522-.054A9.388,9.388,0,0,0,19.335,5.665Z"/><path class="cls-5" d="M23.621,13.006c-.058-.3-.12-.594-.192-.88q-.751.069-1.484.18c.049.25.083.515.112.786C22.511,13.045,23.036,13.016,23.621,13.006Z"/><path class="cls-5" d="M22.815,15.932h0c.077.009.154.016.233.023h-.008C22.963,15.947,22.888,15.94,22.815,15.932Z"/><polygon class="cls-5" points="22.02 15.807 22.02 15.81 22.02 15.807 22.02 15.807"/><path class="cls-5" d="M22.049,15.815l-.029,0,.029,0Z"/><path class="cls-5" d="M23.429,12.126c-.094-.379-.19-.754-.306-1.109-.511.01-1.018.027-1.522.054a8.235,8.235,0,0,1,.344,1.235Q22.679,12.2,23.429,12.126Z"/><path class="cls-5" d="M22.1,14.813c-.016.322-.037.648-.082.994h0C22.065,15.461,22.09,15.132,22.1,14.813Z"/><path class="cls-5" d="M23.047,15.954c.289.025.591.043.918.044-.33,0-.634-.019-.926-.045Z"/><path class="cls-5" d="M23.8,14h0c-.047-.341-.11-.668-.174-.994-.585.01-1.11.039-1.564.086.032.289.049.593.055.908Z"/><path class="cls-5" d="M22.049,15.815h0c.236.049.5.086.765.116h0C22.544,15.9,22.285,15.864,22.049,15.815Z"/><polygon class="cls-2" points="23.967 15.998 23.967 15.998 23.967 15.998 23.967 15.998"/><polygon class="cls-2" points="23.965 15.998 23.965 15.998 23.967 15.998 23.967 15.998 23.965 15.998"/><path class="cls-2" d="M22.049,15.814l-.029,0,.029,0Z"/><path class="cls-2" d="M23.039,15.953h0c-.076-.006-.149-.013-.222-.021h0C22.888,15.94,22.963,15.947,23.039,15.953Z"/><path class="cls-2" d="M22.816,15.932c-.272-.031-.531-.068-.767-.118h0c.236.049.5.086.766.117Z"/><path class="cls-2" d="M23.038,15.953h0c.292.026.6.044.926.045h0C23.635,16,23.331,15.979,23.038,15.953Z"/><path class="cls-5" d="M23.976,16h0Z"/><path class="cls-5" d="M25.228,15.927c-.1.012-.2.021-.306.03C25.027,15.949,25.128,15.939,25.228,15.927Z"/><path class="cls-5" d="M25.791,15.842c.066-.013.145-.018.209-.032V15.8C25.933,15.817,25.861,15.829,25.791,15.842Z"/><path class="cls-5" d="M25.906,14.05,25.9,14H23.8c.023.168.04.34.059.511.057.485.1.977.122,1.488H24c.329,0,.63-.019.922-.043.1-.009.207-.018.306-.03.2-.022.384-.052.563-.085.07-.013.142-.025.209-.04C25.994,15.214,25.959,14.629,25.906,14.05Z"/><path class="cls-5" d="M23.854,14.511c-.019-.171-.036-.343-.059-.511h0C23.818,14.168,23.835,14.341,23.854,14.511Z"/><path class="cls-7" d="M22.112,14h0c0,.016,0,.034,0,.051s0,.024,0,.036h0c0,.236,0,.477-.009.725C22.117,14.531,22.117,14.264,22.112,14Z"/><polygon class="cls-7" points="23.967 15.998 23.967 15.998 23.976 15.999 23.967 15.998 23.967 15.998"/><path class="cls-7" d="M23.976,16c-.019-.511-.065-1-.122-1.488.055.486.1.977.122,1.488Z"/><polygon class="cls-7" points="23.967 15.998 23.965 15.998 23.967 15.998 23.967 15.998"/><polygon class="cls-7" points="23.967 15.998 23.976 15.999 23.976 15.999 23.967 15.998"/><path class="cls-7" d="M22.02,15.807v0l.029,0Z"/><path class="cls-7" d="M22.816,15.932c.073.008.146.015.222.021C22.963,15.947,22.888,15.94,22.816,15.932Z"/><path class="cls-7" d="M22.112,14c.005.264.005.531-.01.813-.012.319-.037.648-.082.994l.029.007c.236.05.5.087.767.118.072.008.147.015.222.021.293.026.6.044.927.045h.011c-.019-.511-.067-1-.122-1.488-.019-.17-.036-.343-.059-.511Z"/><path class="cls-8" d="M20.025,13.492l.045-.013Z"/><path class="cls-8" d="M19.319,13.788l.022-.013Z"/><path class="cls-8" d="M19.133,13.9l.022-.015Z"/><path class="cls-8" d="M19.6,13.654l.064-.027Z"/><path class="cls-8" d="M20.512,13.354l.087-.022Z"/><polygon class="cls-8" points="22.057 13.092 22.057 13.092 22.057 13.092 22.057 13.092"/><path class="cls-8" d="M19.032,14.055l0-.008Z"/><polygon class="cls-8" points="19.568 14.667 19.568 14.667 19.567 14.667 19.568 14.667"/><path class="cls-8" d="M19.024,13.979l.014-.011Z"/><path class="cls-8" d="M21.182,13.213l.133-.021Z"/><path class="cls-1" d="M22.111,14.051c0-.333-.021-.654-.054-.959h0c-.271.028-.514.062-.742.1l-.133.021c-.212.037-.407.077-.583.119l-.087.022c-.162.041-.31.082-.442.125l-.045.013c-.138.046-.257.091-.363.135l-.064.027c-.1.042-.185.083-.257.121l-.022.013c-.066.035-.12.068-.164.1l-.022.015c-.042.028-.074.052-.095.069l-.014.011L19,14l.027.047,0,.008a2.853,2.853,0,0,0,.535.612h0a8.4,8.4,0,0,1,2.543-.579Z"/><path class="cls-8" d="M22.111,14.051v.037h0C22.113,14.075,22.111,14.063,22.111,14.051Z"/><path class="cls-8" d="M28.852,13.889h0Z"/><path class="cls-8" d="M28.964,13.969l.006.005Z"/><path class="cls-8" d="M28.973,14.047l0,.008Z"/><polygon class="cls-8" points="28.432 14.667 28.433 14.667 28.432 14.667 28.432 14.667"/><polygon class="cls-8" points="25.795 13.079 25.795 13.079 25.795 13.079 25.795 13.079"/><path class="cls-1" d="M25.9,14h0c0,.029.005.059.007.088a8.354,8.354,0,0,1,2.522.578h0a2.853,2.853,0,0,0,.535-.612l0-.008L29,14l-.03-.026-.006-.005c-.024-.019-.06-.046-.111-.079h0a6.89,6.89,0,0,0-3.057-.81h0C25.837,13.384,25.874,13.69,25.9,14Z"/><path class="cls-8" d="M25.91,14.089h0c0-.029,0-.059-.007-.088,0,.016,0,.033,0,.049Z"/><path class="cls-8" d="M25.9,14c-.029-.31-.066-.616-.108-.921h0c.042.3.076.612.1.921Z"/><polygon class="cls-8" points="25.903 14 25.903 14 25.903 14.001 25.903 14"/><path class="cls-8" d="M25.906,14.05c0-.016,0-.033,0-.049h0Z"/><path class="cls-3" d="M25.256,10.542c.045.152.09.3.13.458H27c14,0,16-9,16-9s-.008.033-.023.09C34.449,3.693,27.882,6.9,25.256,10.542Z"/><path class="cls-3" d="M25,10.9V11h.386c-.04-.156-.085-.306-.13-.458C25.171,10.66,25.077,10.778,25,10.9Z"/><path class="cls-9" d="M42.977,2.09C42.992,2.033,43,2,43,2c-2-1-8-1-8-1C30.03,1,25,4.58,25,9v.745q.138.389.256.8C27.882,6.9,34.449,3.693,42.977,2.09Z"/><path class="cls-9" d="M25.256,10.542q-.119-.408-.256-.8V10.9C25.077,10.778,25.171,10.66,25.256,10.542Z"/><path class="cls-11" d="M33.186,15.209a10.791,10.791,0,0,0-2.007,1.036,12.886,12.886,0,0,1-6.653,1.474c-.854-.036-1.924-.077-2.331.443a.734.734,0,0,0,.243,1.018,4.011,4.011,0,0,0,1.3.608c3.609,1.169,7.914,1.72,11.558.605a6.514,6.514,0,0,0,1.378-.57,2.292,2.292,0,0,0,.95-3.429A4.131,4.131,0,0,0,33.186,15.209Z"/><path class="cls-11" d="M38.879,29.945a18.55,18.55,0,0,0,1.047-3.838,5.054,5.054,0,0,0-.258-2.748c-1.2-2.658-4.867-.684-6.866-.189a1.591,1.591,0,0,0-1.036.566,1.724,1.724,0,0,0-.187.826A34.424,34.424,0,0,1,29.857,33.4a37.757,37.757,0,0,0,5.949,2.589A22.939,22.939,0,0,0,38.879,29.945Z"/><path class="cls-11" d="M18.565,15.41c-1.625-.673-3.2-.508-3.508.37s.752,2.136,2.378,2.81,3.2.508,3.508-.37S20.191,16.084,18.565,15.41Z"/><ellipse class="cls-12" cx="35.675" cy="17.823" rx="1.65" ry="2.297" transform="translate(-2.149 30.46) rotate(-45.02)"/><ellipse class="cls-12" cx="33.675" cy="19.823" rx="0.825" ry="1.148" transform="translate(-4.15 29.631) rotate(-45.02)"/><ellipse class="cls-12" cx="29.675" cy="4.823" rx="1.148" ry="0.825" transform="translate(5.275 22.388) rotate(-44.98)"/><ellipse class="cls-12" cx="31.421" cy="18.323" rx="0.413" ry="0.574" transform="translate(-3.75 27.597) rotate(-45.02)"/><ellipse class="cls-12" cx="39.421" cy="20.323" rx="0.413" ry="0.574" transform="translate(-2.82 33.842) rotate(-45.02)"/><path class="cls-13" d="M29,14s-1,2-5,2-5-2-5-2"/><path class="cls-13" d="M26,16c0-5.527-2.131-11-6-11L18,7s5,2,4,9"/><path class="cls-13" d="M14,45.007C8.7,41.331,5,33.03,5,24c0-9.269,7.876-12.555,17-12.957"/><path class="cls-13" d="M37.616,14A10.983,10.983,0,0,1,43,24c0,12.16-6.709,23-15,23-2,0-1.789-1-4-1s-2,1-4,1a9.935,9.935,0,0,1-4.3-1"/><path class="cls-13" d="M25,11.011A28.77,28.77,0,0,1,35.682,13"/><path class="cls-13" d="M26,11c0-3.869,4.814-7,12-7"/><path class="cls-13" d="M26,11h1c14,0,16-9,16-9-2-1-8-1-8-1-4.594,0-9.317,3.051-10,7v2"/></g></svg>