<svg xmlns="http://www.w3.org/2000/svg" viewBox="0 0 48 48"><defs><style>.cls-1{fill:#436600;}.cls-2{fill:#dfe778;}.cls-3{fill:#4f4600;}.cls-4{fill:#2f4700;}.cls-5{fill:#527710;}.cls-6{fill:#362f00;}.cls-7{fill:#689629;}.cls-8{fill:#abcc00;}.cls-9{fill:#cfc059;}.cls-10{fill:#745a00;}.cls-11{fill:#253800;}.cls-12{fill:#fdf1c1;}.cls-13{fill:#7eaf31;}.cls-14{fill:#baec35;}.cls-15{fill:#977b00;}.cls-16{fill:#f6fafd;}.cls-17{fill:none;stroke:#001a1f;stroke-linejoin:round;stroke-width:2px;}</style></defs><title>20-avocado</title><g id="_20-avocado" data-name="20-avocado"><path class="cls-1" d="M1,32.543A14.736,14.736,0,0,0,16,47,14.736,14.736,0,0,0,31,32.543c0-7.886-2.253-13.77-4.387-21.088C24.984,5.871,22.025,1,16,1S6.9,5.871,5.269,11.455C3.134,18.773,1,24.657,1,32.543Z"/><path class="cls-2" d="M17,32.543A14.736,14.736,0,0,0,32,47,14.736,14.736,0,0,0,47,32.543c0-7.886-2.253-13.77-4.387-21.088C40.984,5.871,38.025,1,32,1S22.9,5.871,21.269,11.455C19.134,18.773,17,24.657,17,32.543Z"/><circle class="cls-3" cx="32" cy="30" r="8"/><path class="cls-1" d="M1,32.543A14.736,14.736,0,0,0,16,47,14.736,14.736,0,0,0,31,32.543c0-7.886-2.253-13.77-4.387-21.088C24.984,5.871,22.025,1,16,1S6.9,5.871,5.269,11.455C3.134,18.773,1,24.657,1,32.543Z"/><path class="cls-4" d="M29.552,21.579A34.74,34.74,0,0,1,30,27.057a12,12,0,0,1-24,0C6,20.543,7.708,15.682,9.415,9.636c1.216-4.3,3.444-8.1,7.656-8.581A10.329,10.329,0,0,0,16,1C9.975,1,6.9,5.871,5.269,11.455,3.134,18.773,1,24.657,1,32.543A14.736,14.736,0,0,0,16,47,14.736,14.736,0,0,0,31,32.543,44.093,44.093,0,0,0,29.552,21.579Z"/><path class="cls-5" d="M27.911,20.307c.45,2.727-.846,5.253-2.9,5.642s-4.076-1.505-4.526-4.231-1.149-17.32.9-17.71S27.46,17.581,27.911,20.307Z"/><path class="cls-5" d="M7,27.364A3.939,3.939,0,0,0,11.061,31,3.693,3.693,0,0,0,15,27.444c-.034-1.985-2.064-8.422-4.273-8.444S6.967,25.379,7,27.364Z"/><ellipse class="cls-4" cx="16" cy="3.5" rx="3" ry="1.5"/><path class="cls-6" d="M14,3a2,2,0,0,0,4,0Z"/><path class="cls-2" d="M17,32.543A14.736,14.736,0,0,0,32,47,14.736,14.736,0,0,0,47,32.543c0-7.886-2.253-13.77-4.387-21.088C40.984,5.871,38.025,1,32,1S22.9,5.871,21.269,11.455C19.134,18.773,17,24.657,17,32.543Z"/><path class="cls-1" d="M42.613,11.455C40.984,5.871,38.025,1,32,1S22.9,5.871,21.269,11.455C19.134,18.773,17,24.657,17,32.543A14.736,14.736,0,0,0,32,47,14.736,14.736,0,0,0,47,32.543C47,24.657,44.747,18.773,42.613,11.455ZM32,46A13.915,13.915,0,0,1,18,32.171C18,24.629,19.992,19,21.984,12,23.5,6.659,26.377,2,32,2s8.385,4.659,9.905,10C43.9,19,46,24.629,46,32.171A13.915,13.915,0,0,1,32,46Z"/><path class="cls-7" d="M41.905,12C40.385,6.659,37.623,2,32,2S23.5,6.659,21.984,12C19.992,19,18,24.629,18,32.171a14,14,0,0,0,28,0C46,24.629,43.9,19,41.905,12ZM32,45A13.1,13.1,0,0,1,19,31.8c0-7.2,1.85-12.573,3.7-19.255C24.111,7.448,26.778,3,32,3s7.786,4.448,9.2,9.545C43.047,19.227,45,24.6,45,31.8A13.1,13.1,0,0,1,32,45Z"/><path class="cls-8" d="M41.2,12.545C39.786,7.448,37.222,3,32,3s-7.889,4.448-9.3,9.545C20.85,19.227,19,24.6,19,31.8a13,13,0,1,0,26,0C45,24.6,43.047,19.227,41.2,12.545ZM32,44c-6.627,0-12-5.628-12-12.572,0-6.857,1.708-11.974,3.415-18.337C24.718,8.236,27.18,4,32,4s7.187,4.236,8.49,9.091C42.2,19.454,44,24.571,44,31.428,44,38.372,38.627,44,32,44Z"/><path class="cls-9" d="M41,30a9,9,0,0,1-18,0c0-4.971,4.029-11,9-11S41,25.029,41,30Z"/><circle class="cls-3" cx="32" cy="30" r="8"/><path class="cls-6" d="M26,27a7.966,7.966,0,0,1,.52-2.818,7.994,7.994,0,1,0,12.96,8.636A7.992,7.992,0,0,1,26,27Z"/><ellipse class="cls-10" cx="36" cy="28" rx="2.652" ry="4.238" transform="translate(-8.478 17.916) rotate(-25.101)"/><path class="cls-11" d="M18.579,38.971C18.386,38.98,18.2,39,18,39a12.055,12.055,0,0,1-3.7-.584A14.789,14.789,0,0,0,22,45.789a15.042,15.042,0,0,0,2-1.032A14.694,14.694,0,0,1,18.579,38.971Z"/><path class="cls-4" d="M21.978,3.18c-2.277,1.944-3.749,4.981-4.709,8.275-1.228,4.208-2.442,7.949-3.263,11.863A15.206,15.206,0,0,1,15,27.444a3.419,3.419,0,0,1-1.932,3.069c-.032.669-.068,1.333-.068,2.03a13.953,13.953,0,0,0,1.3,5.873A12.055,12.055,0,0,0,18,39c.2,0,.386-.02.579-.029A13.957,13.957,0,0,1,17,32.543c0-6.362,1.394-11.431,3.052-16.991.4-1.332.8-2.683,1.217-4.1a22.746,22.746,0,0,1,2.116-5.1q.274-.468.576-.906A11.392,11.392,0,0,0,21.978,3.18Z"/><path class="cls-1" d="M15,27.444a15.206,15.206,0,0,0-.994-4.126,45.072,45.072,0,0,0-.938,7.2A3.419,3.419,0,0,0,15,27.444Z"/><path class="cls-12" d="M23.1,28.7c.611-4.663,4.359-9.7,8.9-9.7,4.971,0,9,6.029,9,11a8.968,8.968,0,0,1-2.974,6.671,37.977,37.977,0,0,0,7.883,1.269A13.939,13.939,0,0,0,47,32.543c0-7.886-2.253-13.77-4.387-21.088C40.984,5.871,38.025,1,32,1S22.9,5.871,21.269,11.455C20.04,15.667,18.825,19.41,18,23.328A38.132,38.132,0,0,0,23.1,28.7Z"/><path class="cls-2" d="M41,30c0-4.971-4.029-11-9-11-4.544,0-8.292,5.038-8.9,9.7a37.877,37.877,0,0,0,14.929,7.97A8.968,8.968,0,0,0,41,30Z"/><path class="cls-5" d="M21.984,12C23.5,6.659,26.377,2,32,2s8.385,4.659,9.905,10C43.9,19,46,24.629,46,32.171a13.609,13.609,0,0,1-1.246,5.682c.384.032.767.066,1.155.087A13.939,13.939,0,0,0,47,32.543c0-7.886-2.253-13.77-4.387-21.088C40.984,5.871,38.025,1,32,1S22.9,5.871,21.269,11.455C20.04,15.667,18.825,19.41,18,23.328c.245.315.488.631.743.937C19.506,20.18,20.745,16.355,21.984,12Z"/><path class="cls-13" d="M41.905,12C40.385,6.659,37.623,2,32,2S23.5,6.659,21.984,12c-1.239,4.355-2.478,8.18-3.237,12.265.26.314.53.62.8.925A116.222,116.222,0,0,1,22.7,12.545C24.111,7.448,26.778,3,32,3s7.786,4.448,9.2,9.545C43.047,19.227,45,24.6,45,31.8a13.28,13.28,0,0,1-1.4,5.939c.384.044.769.081,1.156.114A13.609,13.609,0,0,0,46,32.171C46,24.629,43.9,19,41.905,12Z"/><path class="cls-14" d="M23.415,13.091C24.718,8.236,27.18,4,32,4s7.187,4.236,8.49,9.091C42.2,19.454,44,24.571,44,31.428a12.974,12.974,0,0,1-1.548,6.165c.38.056.763.1,1.146.146A13.28,13.28,0,0,0,45,31.8c0-7.2-1.953-12.573-3.8-19.255C39.786,7.448,37.222,3,32,3s-7.889,4.448-9.3,9.545A116.222,116.222,0,0,0,19.548,25.19c.267.3.54.6.817.891A100.817,100.817,0,0,1,23.415,13.091Z"/><path class="cls-10" d="M40,30a8,8,0,0,0-15.974-.511,37.865,37.865,0,0,0,12.838,6.852A7.977,7.977,0,0,0,40,30Z"/><path class="cls-3" d="M26,27a7.966,7.966,0,0,1,.52-2.818,7.969,7.969,0,0,0-2.493,5.308,38,38,0,0,0,4.057,2.882A7.96,7.96,0,0,1,26,27Z"/><path class="cls-3" d="M39.48,32.818A7.966,7.966,0,0,1,34,35a8.134,8.134,0,0,1-.981-.066,38,38,0,0,0,3.829,1.4A8.032,8.032,0,0,0,39.48,32.818Z"/><ellipse class="cls-15" cx="36" cy="28" rx="2.652" ry="4.238" transform="translate(-8.478 17.916) rotate(-25.101)"/><ellipse class="cls-16" cx="35" cy="9" rx="1.65" ry="2.297" transform="translate(3.894 27.395) rotate(-45.02)"/><ellipse class="cls-16" cx="38" cy="13" rx="0.825" ry="1.148" transform="translate(1.944 30.69) rotate(-45.02)"/><ellipse class="cls-16" cx="13" cy="6" rx="0.825" ry="1.148" transform="translate(-0.433 10.954) rotate(-45.02)"/><ellipse class="cls-16" cx="36" cy="26" rx="0.825" ry="1.148" transform="translate(-7.838 33.086) rotate(-45.02)"/><ellipse class="cls-16" cx="35.746" cy="13.5" rx="0.413" ry="0.574" transform="translate(0.929 29.242) rotate(-45.02)"/><ellipse class="cls-16" cx="37.746" cy="28.5" rx="0.413" ry="0.574" transform="translate(-9.095 35.054) rotate(-45.02)"/><ellipse class="cls-16" cx="15.746" cy="6.5" rx="0.413" ry="0.574" transform="translate(0.018 13.043) rotate(-45.02)"/><path class="cls-17" d="M21.783,3A8.828,8.828,0,0,0,16,1C9.975,1,6.9,5.871,5.269,11.455,3.134,18.773,1,24.657,1,32.543A14.736,14.736,0,0,0,16,47a15.545,15.545,0,0,0,4-.52"/><path class="cls-17" d="M42.151,10C40.44,5.052,37.495,1,32,1c-6.025,0-9.1,4.871-10.731,10.455C19.134,18.773,17,24.657,17,32.543A14.736,14.736,0,0,0,32,47,14.736,14.736,0,0,0,47,32.543C47,24.855,44.859,19.07,42.774,12"/><path class="cls-17" d="M40,30a7.99,7.99,0,1,1-.253-2"/><path class="cls-17" d="M18,3a2,2,0,0,1-4,0"/></g></svg>