<svg xmlns="http://www.w3.org/2000/svg" viewBox="0 0 48 48"><defs><style>.cls-1{fill:#39285e;}.cls-2{fill:#6f60ba;}.cls-3{fill:#7e6dd4;}.cls-4{fill:#4e8c00;}.cls-5{fill:#63b300;}.cls-6{fill:#5f4a9e;}.cls-7{fill:#9883ff;}.cls-8{fill:#261647;}.cls-9{fill:#483584;}.cls-10{fill:#3f7000;}.cls-11{fill:#f6fafd;}.cls-12{fill:#c4b0ff;}.cls-13{fill:none;stroke:#001a1f;stroke-linejoin:round;stroke-width:2px;}</style></defs><title>24-blueberry</title><g id="_24-blueberry" data-name="24-blueberry"><ellipse class="cls-1" cx="14" cy="14" rx="3" ry="2"/><path class="cls-2" d="M25,19A11,11,0,1,1,14,8,10.994,10.994,0,0,1,25,19Zm-8-5c0-1.1-1.34-2-3-2s-3,.9-3,2,1.34,2,3,2S17,15.1,17,14Z"/><ellipse class="cls-1" cx="34" cy="21" rx="3" ry="2"/><path class="cls-3" d="M34,15A11,11,0,1,1,23,26,10.994,10.994,0,0,1,34,15Zm3,6c0-1.1-1.34-2-3-2s-3,.9-3,2,1.34,2,3,2S37,22.1,37,21Z"/><ellipse class="cls-1" cx="8" cy="36" rx="2" ry="3"/><path class="cls-3" d="M14,25A11,11,0,1,1,3,36,10.994,10.994,0,0,1,14,25ZM10,36c0-1.66-.9-3-2-3s-2,1.34-2,3,.9,3,2,3S10,37.66,10,36Z"/><path class="cls-4" d="M25,18.906c.318.064.5.094.5.094l.027-.017c.17-.206.354-.4.539-.593A7.788,7.788,0,0,0,27,14.09S27,3.45,16.5,1a22.365,22.365,0,0,0-1.4,7.055A10.991,10.991,0,0,1,25,18.906Z"/><path class="cls-5" d="M34,15a10.956,10.956,0,0,1,7.643,3.1A6.921,6.921,0,0,0,44,13c0-8-2-12-2-12a84.43,84.43,0,0,0-8.7,14.035C33.532,15.021,33.764,15,34,15Z"/><path class="cls-4" d="M42,1C29.054,3.774,28.08,15.091,28.007,16.781A10.932,10.932,0,0,1,33.3,15.035,84.43,84.43,0,0,1,42,1Z"/><ellipse class="cls-1" cx="34" cy="21" rx="3" ry="2"/><path class="cls-3" d="M34,15A11,11,0,1,1,23,26,10.994,10.994,0,0,1,34,15Zm3,6c0-1.1-1.34-2-3-2s-3,.9-3,2,1.34,2,3,2S37,22.1,37,21Z"/><path class="cls-6" d="M34,15A11,11,0,1,0,45,26,10.994,10.994,0,0,0,34,15Zm0,17c-5.527,0-10-3.578-10-8s4.473-8,10-8,10,3.578,10,8S39.527,32,34,32Z"/><ellipse class="cls-7" cx="34" cy="20.5" rx="7" ry="4.5"/><ellipse class="cls-6" cx="34" cy="21" rx="4" ry="3"/><ellipse class="cls-1" cx="34" cy="21" rx="3" ry="2"/><path class="cls-8" d="M34,20a3.023,3.023,0,0,1,2.893,1.5A1.367,1.367,0,0,0,37,21c0-1.1-1.34-2-3-2s-3,.9-3,2a1.367,1.367,0,0,0,.107.5A3.023,3.023,0,0,1,34,20Z"/><path class="cls-7" d="M41.526,22.005a.75.75,0,0,0-.208.062c-.556.25-.884,1-1.28,1.439a8.132,8.132,0,0,1-4.079,2.44,1.26,1.26,0,0,0-.89.479.786.786,0,0,0,.237.92,2.069,2.069,0,0,0,.93.387,7.2,7.2,0,0,0,3.842.008A4.681,4.681,0,0,0,42.8,25.21a2.346,2.346,0,0,0-.265-2.311C42.284,22.485,42.006,21.941,41.526,22.005Z"/><ellipse class="cls-1" cx="14" cy="14" rx="3" ry="2"/><path class="cls-2" d="M25,19A11,11,0,1,1,14,8,10.994,10.994,0,0,1,25,19Zm-8-5c0-1.1-1.34-2-3-2s-3,.9-3,2,1.34,2,3,2S17,15.1,17,14Z"/><path class="cls-9" d="M14,8A11,11,0,1,0,25,19,10.994,10.994,0,0,0,14,8Zm0,17C8.473,25,4,21.422,4,17S8.473,9,14,9s10,3.578,10,8S19.527,25,14,25Z"/><ellipse class="cls-7" cx="14" cy="13.5" rx="7" ry="4.5"/><ellipse class="cls-6" cx="14" cy="14" rx="4" ry="3"/><ellipse class="cls-1" cx="14" cy="14" rx="3" ry="2"/><path class="cls-8" d="M14,13a3.023,3.023,0,0,1,2.893,1.5A1.367,1.367,0,0,0,17,14c0-1.1-1.34-2-3-2s-3,.9-3,2a1.367,1.367,0,0,0,.107.5A3.023,3.023,0,0,1,14,13Z"/><path class="cls-3" d="M21.526,15.005a.75.75,0,0,0-.208.062c-.556.25-.884,1-1.28,1.439a8.132,8.132,0,0,1-4.079,2.44,1.26,1.26,0,0,0-.89.479.786.786,0,0,0,.237.92,2.069,2.069,0,0,0,.93.387,7.2,7.2,0,0,0,3.842.008A4.681,4.681,0,0,0,22.8,18.21a2.346,2.346,0,0,0-.265-2.311C22.284,15.485,22.006,14.941,21.526,15.005Z"/><path class="cls-1" d="M7.015,27.5A10.955,10.955,0,0,1,14,25a11.764,11.764,0,0,1-5.673-1.413A11.011,11.011,0,0,0,5.511,26,11.1,11.1,0,0,0,7.015,27.5Z"/><path class="cls-9" d="M23.987,16.793a11.046,11.046,0,0,0-1.007.736,2.212,2.212,0,0,1-.176.681,4.7,4.7,0,0,1-2.367,2.363,10.939,10.939,0,0,0-1.11,2.8,10.965,10.965,0,0,0-11,.211,12.1,12.1,0,0,0,10.891.23c.153-.075.308-.149.455-.23A7.691,7.691,0,0,0,24,17C24,16.93,23.989,16.862,23.987,16.793Z"/><path class="cls-1" d="M24.673,16.376c-.235.13-.463.271-.686.417,0,.069.013.137.013.207a7.691,7.691,0,0,1-4.327,6.587c-.147.081-.3.155-.455.23A11.849,11.849,0,0,1,14,25a11.132,11.132,0,0,1,6.985,2.5,11.1,11.1,0,0,0,1.5-1.5c.194-.235.374-.482.548-.733a10.934,10.934,0,0,1,1.926-5.534c.016-.243.037-.486.037-.733A11.022,11.022,0,0,0,24.673,16.376Z"/><path class="cls-6" d="M22.8,18.21a2.212,2.212,0,0,0,.176-.681,11.035,11.035,0,0,0-2.543,3.044A4.7,4.7,0,0,0,22.8,18.21Z"/><ellipse class="cls-1" cx="8" cy="36" rx="2" ry="3"/><path class="cls-3" d="M14,25A11,11,0,1,1,3,36,10.994,10.994,0,0,1,14,25ZM10,36c0-1.66-.9-3-2-3s-2,1.34-2,3,.9,3,2,3S10,37.66,10,36Z"/><path class="cls-6" d="M3,36A11,11,0,1,0,14,25,10.994,10.994,0,0,0,3,36Zm17,0c0,5.527-3.578,10-8,10S4,41.527,4,36s3.578-10,8-10S20,30.473,20,36Z"/><ellipse class="cls-7" cx="8.5" cy="36" rx="4.5" ry="7"/><ellipse class="cls-6" cx="8" cy="36" rx="3" ry="4"/><ellipse class="cls-1" cx="8" cy="36" rx="2" ry="3"/><path class="cls-8" d="M7,36a3.023,3.023,0,0,1,1.5-2.893A1.367,1.367,0,0,0,8,33c-1.1,0-2,1.34-2,3s.9,3,2,3a1.367,1.367,0,0,0,.5-.107A3.023,3.023,0,0,1,7,36Z"/><path class="cls-7" d="M10.8,28.407a.76.76,0,0,0,.062.208c.251.556,1.006.884,1.44,1.279a8.14,8.14,0,0,1,2.439,4.08,1.259,1.259,0,0,0,.48.89.785.785,0,0,0,.919-.237,2.069,2.069,0,0,0,.387-.93,7.2,7.2,0,0,0,.008-3.843,4.679,4.679,0,0,0-2.53-2.725,2.346,2.346,0,0,0-2.311.265C11.285,27.649,10.741,27.926,10.8,28.407Z"/><path class="cls-4" d="M25,18.906c.318.064.5.094.5.094l.027-.017c.17-.206.354-.4.539-.593A7.788,7.788,0,0,0,27,14.09S27,3.45,16.5,1a22.365,22.365,0,0,0-1.4,7.055A10.991,10.991,0,0,1,25,18.906Z"/><path class="cls-5" d="M34,15a10.956,10.956,0,0,1,7.643,3.1A6.921,6.921,0,0,0,44,13c0-8-2-12-2-12a84.43,84.43,0,0,0-8.7,14.035C33.532,15.021,33.764,15,34,15Z"/><path class="cls-4" d="M42,1C29.054,3.774,28.08,15.091,28.007,16.781A10.932,10.932,0,0,1,33.3,15.035,84.43,84.43,0,0,1,42,1Z"/><path class="cls-4" d="M35.375,11.1c-.7,1.238-1.4,2.553-2.075,3.94.232-.014.464-.035.7-.035a10.956,10.956,0,0,1,7.643,3.1,8.215,8.215,0,0,0,1.59-2.062A10.989,10.989,0,0,0,35.375,11.1Z"/><path class="cls-10" d="M33.3,15.035c.68-1.387,1.38-2.7,2.075-3.94A11.139,11.139,0,0,0,34,11a10.944,10.944,0,0,0-5.115,1.266,17.382,17.382,0,0,0-.878,4.515A10.932,10.932,0,0,1,33.3,15.035Z"/><path class="cls-10" d="M15.6,4.212a31.1,31.1,0,0,0-.5,3.843A10.991,10.991,0,0,1,25,18.906c.318.064.5.094.5.094l.027-.017c.17-.206.354-.4.539-.593A7.788,7.788,0,0,0,27,14.09a14.655,14.655,0,0,0-.59-3.618A16.555,16.555,0,0,0,15.6,4.212Z"/><ellipse class="cls-11" cx="40" cy="20" rx="1.65" ry="2.297" transform="translate(-2.422 34.157) rotate(-45.02)"/><ellipse class="cls-11" cx="12" cy="30" rx="1.65" ry="2.297" transform="translate(-17.703 17.282) rotate(-45.02)"/><ellipse class="cls-12" cx="27" cy="26" rx="1.65" ry="2.297" transform="translate(-10.476 26.72) rotate(-45.02)"/><ellipse class="cls-11" cx="40" cy="24" rx="0.825" ry="1.148" transform="translate(-5.251 35.329) rotate(-45.02)"/><ellipse class="cls-11" cx="20" cy="15" rx="0.825" ry="1.148" transform="translate(-4.748 18.544) rotate(-45.02)"/><ellipse class="cls-11" cx="19.746" cy="12.5" rx="0.413" ry="0.574" transform="translate(-3.054 17.632) rotate(-45.02)"/><circle class="cls-13" cx="14" cy="36" r="11"/><path class="cls-13" d="M44.249,22a10.954,10.954,0,1,0,.57,2"/><path class="cls-13" d="M24.955,20Q25,19.506,25,19A11,11,0,1,0,5,25.327"/><path class="cls-13" d="M28,17A16.878,16.878,0,0,1,42,1s2,4,2,12a6.877,6.877,0,0,1-2.251,5"/><path class="cls-13" d="M25.5,19s1.5-.818,1.5-4.909c0,0,0-10.636-10.5-13.091a22.126,22.126,0,0,0-1.4,7"/><path class="cls-13" d="M42,1a84.285,84.285,0,0,0-8.685,14"/><ellipse class="cls-13" cx="8" cy="36" rx="2" ry="3"/><ellipse class="cls-13" cx="14" cy="14" rx="3" ry="2"/><ellipse class="cls-13" cx="34" cy="21" rx="3" ry="2"/></g></svg>