<svg xmlns="http://www.w3.org/2000/svg" viewBox="0 0 48 48"><defs><style>.cls-1{fill:#462f67;}.cls-2{fill:#6f60ba;}.cls-3{fill:#604b9a;}.cls-4{fill:#7e6dd4;}.cls-5{fill:#725cb5;}.cls-6{fill:#436600;}.cls-7{fill:#3f7000;}.cls-8{fill:#63b300;}.cls-9{fill:#483584;}.cls-10{fill:#39285e;}.cls-11{fill:#9883ff;}.cls-12{fill:#2c4f00;}.cls-13{fill:#2f4700;}.cls-14{fill:#4e8c00;}.cls-15{fill:#5f4a9e;}.cls-16{fill:#b4a6ff;}.cls-17{fill:#224326;}.cls-18{fill:#d8c9ff;}.cls-19{fill:#e9e6ff;}.cls-20{fill:#f6fafd;}.cls-21{fill:none;stroke:#001a1f;stroke-linejoin:round;stroke-width:2px;}</style></defs><title>23-grape</title><g id="_23-grape" data-name="23-grape"><path class="cls-1" d="M38.5,18.9a3.953,3.953,0,0,1,0,6.2,3.949,3.949,0,0,1-3.03,5.85,3.525,3.525,0,0,1-.37.55A3.979,3.979,0,0,1,32,38a4.748,4.748,0,0,1-.53-.05c-.01.01-.01.03-.02.05A3.981,3.981,0,0,1,28,44c-.05,0-.09-.01-.14-.01a3.98,3.98,0,0,1-7.72,0c-.05,0-.09.01-.14.01a3.981,3.981,0,0,1-3.45-6c-.01-.02-.01-.04-.02-.05A4.748,4.748,0,0,1,16,38a3.979,3.979,0,0,1-3.1-6.5,3.525,3.525,0,0,1-.37-.55A3.949,3.949,0,0,1,9.5,25.1a3.953,3.953,0,0,1,0-6.2,3.949,3.949,0,0,1,3.03-5.85A3.976,3.976,0,0,1,16,11a4,4,0,0,1,8,0,4,4,0,0,1,8,0,3.976,3.976,0,0,1,3.47,2.05A3.949,3.949,0,0,1,38.5,18.9Z"/><path class="cls-2" d="M39.97,21.53a3.7,3.7,0,0,1,0,.94,3.109,3.109,0,0,1-.08.44,2.014,2.014,0,0,1-.1.35,1.064,1.064,0,0,1-.09.25,1.923,1.923,0,0,1-.12.25A3.9,3.9,0,0,1,38.5,25.1a.01.01,0,0,0,.01.01A4.018,4.018,0,0,1,36,26a3.921,3.921,0,0,1-2.06-.58,3.985,3.985,0,0,1,0-6.84A3.921,3.921,0,0,1,36,18a4.018,4.018,0,0,1,2.51.89.01.01,0,0,0-.01.01,3.9,3.9,0,0,1,1.08,1.34,1.923,1.923,0,0,1,.12.25,1.064,1.064,0,0,1,.09.25,2.014,2.014,0,0,1,.1.35A3.109,3.109,0,0,1,39.97,21.53Z"/><path class="cls-3" d="M39,17a4.024,4.024,0,0,1-.49,1.89A4.018,4.018,0,0,0,36,18a3.921,3.921,0,0,0-2.06.58l-.04-.06a3.995,3.995,0,0,0,1.59-5.47A3.98,3.98,0,0,1,39,17Z"/><path class="cls-3" d="M38.51,25.11A4.024,4.024,0,0,1,39,27a3.98,3.98,0,0,1-3.51,3.95,3.995,3.995,0,0,0-1.59-5.47l.04-.06A3.921,3.921,0,0,0,36,26,4.018,4.018,0,0,0,38.51,25.11Z"/><path class="cls-4" d="M35.43,12.99a.209.209,0,0,1,.04.06h.02A4,4,0,1,1,32,11a3.076,3.076,0,0,1,.53.04.075.075,0,0,1,.05.01,3.4,3.4,0,0,1,.46.09.142.142,0,0,1,.06.02,3.523,3.523,0,0,1,.42.15.612.612,0,0,1,.12.05,3.047,3.047,0,0,1,.4.21A4.108,4.108,0,0,1,35.43,12.99Z"/><path class="cls-4" d="M36,29a4.017,4.017,0,0,1-.51,1.95h-.02a3.525,3.525,0,0,1-.37.55l.01.01A3.972,3.972,0,0,1,32,33a3.921,3.921,0,0,1-2.06-.58A3.994,3.994,0,0,1,32,25a4,4,0,0,1,4,4Z"/><path class="cls-3" d="M35.11,31.51A3.981,3.981,0,0,1,32,38a4.4,4.4,0,0,1-.51-.05,3.995,3.995,0,0,0-1.59-5.47l.04-.06A3.921,3.921,0,0,0,32,33,3.972,3.972,0,0,0,35.11,31.51Z"/><path class="cls-3" d="M33.94,25.42l-.04.06A4,4,0,0,0,28,29a4,4,0,0,0-8,0,4,4,0,1,0-7.49,1.95A3.98,3.98,0,0,1,9,27a4.024,4.024,0,0,1,.49-1.89A4,4,0,0,0,16,22a4,4,0,0,0,8,0,4,4,0,0,0,8,0A3.97,3.97,0,0,0,33.94,25.42Z"/><path class="cls-3" d="M33.9,18.52l.04.06A3.97,3.97,0,0,0,32,22a4,4,0,0,0-8,0,4,4,0,0,0-8,0,4,4,0,0,0-6.51-3.11A4.024,4.024,0,0,1,9,17a3.98,3.98,0,0,1,3.51-3.95A4,4,0,1,0,20,15a4,4,0,0,0,8,0,4,4,0,0,0,5.9,3.52Z"/><path class="cls-3" d="M31.45,38.01A3.973,3.973,0,0,1,28,44c-.05,0-.08-.01-.13-.01A3.636,3.636,0,0,0,28,43a4.005,4.005,0,0,0-2.1-3.52l.04-.06A3.921,3.921,0,0,0,28,40,3.976,3.976,0,0,0,31.45,38.01Z"/><path class="cls-3" d="M31.43,8.96A3.962,3.962,0,0,1,32,11a4,4,0,0,0-4,4,4,4,0,0,0-4-4,3.993,3.993,0,0,1,7.43-2.04Z"/><path class="cls-2" d="M32,36a4.017,4.017,0,0,1-.51,1.95h-.02c-.01.01-.01.03-.02.05v.01A3.976,3.976,0,0,1,28,40a3.921,3.921,0,0,1-2.06-.58A3.994,3.994,0,0,1,28,32a4,4,0,0,1,4,4Z"/><circle class="cls-5" cx="28" cy="22" r="4"/><path class="cls-3" d="M29.94,32.42l-.04.06A4,4,0,0,0,24,36a4,4,0,1,0-7.49,1.95A4.4,4.4,0,0,1,16,38a3.981,3.981,0,0,1-3.11-6.49A4,4,0,0,0,20,29a4,4,0,0,0,8,0A3.97,3.97,0,0,0,29.94,32.42Z"/><path class="cls-5" d="M28,43a3.636,3.636,0,0,1-.13.99h-.01a4.2,4.2,0,0,1-.7,1.46.01.01,0,0,0-.01.01l-.21.24a2.5,2.5,0,0,1-.23.23l-.24.21a3.65,3.65,0,0,1-.64.41,1.425,1.425,0,0,1-.28.13,2.5,2.5,0,0,1-.43.16l-.24.06a3.846,3.846,0,0,1-.47.08c-.14.01-.27.02-.41.02s-.27-.01-.41-.02a3.846,3.846,0,0,1-.47-.08l-.24-.06a2.5,2.5,0,0,1-.43-.16,1.425,1.425,0,0,1-.28-.13,3.65,3.65,0,0,1-.64-.41l-.24-.21a2.5,2.5,0,0,1-.23-.23l-.21-.24a.01.01,0,0,0-.01-.01,4.2,4.2,0,0,1-.7-1.46h-.01A3.636,3.636,0,0,1,20,43a4,4,0,1,1,8,0Z"/><circle class="cls-5" cx="24" cy="15" r="4"/><circle class="cls-4" cx="24" cy="29" r="4"/><path class="cls-3" d="M25.94,39.42l-.04.06A4,4,0,0,0,20,43a3.636,3.636,0,0,0,.13.99c-.05,0-.08.01-.13.01a3.973,3.973,0,0,1-3.45-5.99A3.995,3.995,0,0,0,24,36,3.97,3.97,0,0,0,25.94,39.42Z"/><path class="cls-3" d="M22,7.54A3.98,3.98,0,0,1,24,11a4,4,0,0,0-4,4,4,4,0,0,0-4-4,3.994,3.994,0,0,1,6-3.46Z"/><circle class="cls-2" cx="20" cy="22" r="4"/><path class="cls-4" d="M20,32a4,4,0,1,1-3.45,6.01V38c-.01-.02-.01-.04-.02-.05h-.02A4,4,0,0,1,20,32Z"/><path class="cls-4" d="M12.57,12.99a4.108,4.108,0,0,1,1.39-1.42,3.047,3.047,0,0,1,.4-.21.612.612,0,0,1,.12-.05,3.523,3.523,0,0,1,.42-.15.142.142,0,0,1,.06-.02,3.4,3.4,0,0,1,.46-.09.075.075,0,0,1,.05-.01A3.076,3.076,0,0,1,16,11a4.006,4.006,0,1,1-3.49,2.05h.02A.209.209,0,0,1,12.57,12.99Z"/><path class="cls-5" d="M16,25a4,4,0,1,1-3.11,6.51l.01-.01a3.525,3.525,0,0,1-.37-.55h-.02A4,4,0,0,1,16,25Z"/><path class="cls-4" d="M12,18a4,4,0,1,1-2.51,7.11.01.01,0,0,0,.01-.01,3.9,3.9,0,0,1-1.08-1.34,1.923,1.923,0,0,1-.12-.25,1.064,1.064,0,0,1-.09-.25,2.014,2.014,0,0,1-.1-.35,3.109,3.109,0,0,1-.08-.44,3.7,3.7,0,0,1,0-.94,3.109,3.109,0,0,1,.08-.44,2.014,2.014,0,0,1,.1-.35,1.064,1.064,0,0,1,.09-.25,1.923,1.923,0,0,1,.12-.25A3.9,3.9,0,0,1,9.5,18.9a.01.01,0,0,0-.01-.01A4.018,4.018,0,0,1,12,18Z"/><path class="cls-6" d="M26,7v.54A3.98,3.98,0,0,0,24,11a3.98,3.98,0,0,0-2-3.46V1h4Z"/><path class="cls-7" d="M16.57,8.96A3.962,3.962,0,0,0,16,11a3.076,3.076,0,0,0-.53.04.075.075,0,0,0-.05.01,3.4,3.4,0,0,0-.46.09.142.142,0,0,0-.06.02,2.991,2.991,0,0,0-.42.15.612.612,0,0,0-.12.05,1.705,1.705,0,0,0-.4.21,3.769,3.769,0,0,0-1.41,1.42h-.01A5.757,5.757,0,0,1,7,9l3-1C7,7,6,2,6,2S13.3,8.39,16.57,8.96Z"/><path class="cls-7" d="M42,2s-1,5-4,6l3,1a5.757,5.757,0,0,1-5.54,3.99h-.01a3.769,3.769,0,0,0-1.41-1.42,1.705,1.705,0,0,0-.4-.21.612.612,0,0,0-.12-.05,2.991,2.991,0,0,0-.42-.15.142.142,0,0,0-.06-.02,3.4,3.4,0,0,0-.46-.09.075.075,0,0,0-.05-.01A3.076,3.076,0,0,0,32,11a3.962,3.962,0,0,0-.57-2.04C34.7,8.39,42,2,42,2Z"/><path class="cls-8" d="M22,7v.54a3.979,3.979,0,0,0-5.43,1.42C13.3,8.39,6,2,6,2c6,0,8,2,8,2V1C18.42,1,22,3.68,22,7Z"/><path class="cls-8" d="M42,2S34.7,8.39,31.43,8.96A3.979,3.979,0,0,0,26,7.54V7c0-3.32,3.58-6,8-6V4S36,2,42,2Z"/><path class="cls-1" d="M38.5,18.9a3.953,3.953,0,0,1,0,6.2,3.949,3.949,0,0,1-3.03,5.85,3.525,3.525,0,0,1-.37.55A3.979,3.979,0,0,1,32,38a4.748,4.748,0,0,1-.53-.05c-.01.01-.01.03-.02.05A3.981,3.981,0,0,1,28,44c-.05,0-.09-.01-.14-.01a3.98,3.98,0,0,1-7.72,0c-.05,0-.09.01-.14.01a3.981,3.981,0,0,1-3.45-6c-.01-.02-.01-.04-.02-.05A4.748,4.748,0,0,1,16,38a3.979,3.979,0,0,1-3.1-6.5,3.525,3.525,0,0,1-.37-.55A3.949,3.949,0,0,1,9.5,25.1a3.953,3.953,0,0,1,0-6.2,3.949,3.949,0,0,1,3.03-5.85A3.976,3.976,0,0,1,16,11a4,4,0,0,1,8,0,4,4,0,0,1,8,0,3.976,3.976,0,0,1,3.47,2.05A3.949,3.949,0,0,1,38.5,18.9Z"/><path class="cls-2" d="M39.97,21.53a3.7,3.7,0,0,1,0,.94,3.109,3.109,0,0,1-.08.44,2.014,2.014,0,0,1-.1.35,1.064,1.064,0,0,1-.09.25,1.923,1.923,0,0,1-.12.25A3.9,3.9,0,0,1,38.5,25.1a.01.01,0,0,0,.01.01A4.018,4.018,0,0,1,36,26a3.921,3.921,0,0,1-2.06-.58,3.985,3.985,0,0,1,0-6.84A3.921,3.921,0,0,1,36,18a4.018,4.018,0,0,1,2.51.89.01.01,0,0,0-.01.01,3.9,3.9,0,0,1,1.08,1.34,1.923,1.923,0,0,1,.12.25,1.064,1.064,0,0,1,.09.25,2.014,2.014,0,0,1,.1.35A3.109,3.109,0,0,1,39.97,21.53Z"/><path class="cls-9" d="M39,17a4.024,4.024,0,0,1-.49,1.89A4.018,4.018,0,0,0,36,18a3.921,3.921,0,0,0-2.06.58l-.04-.06a3.995,3.995,0,0,0,1.59-5.47A3.98,3.98,0,0,1,39,17Z"/><path class="cls-10" d="M38.51,25.11A4.024,4.024,0,0,1,39,27a3.98,3.98,0,0,1-3.51,3.95,3.995,3.995,0,0,0-1.59-5.47l.04-.06A3.921,3.921,0,0,0,36,26,4.018,4.018,0,0,0,38.51,25.11Z"/><path class="cls-11" d="M36,29a4.017,4.017,0,0,1-.51,1.95h-.02a3.525,3.525,0,0,1-.37.55l.01.01A3.972,3.972,0,0,1,32,33a3.921,3.921,0,0,1-2.06-.58A3.994,3.994,0,0,1,32,25a4,4,0,0,1,4,4Z"/><path class="cls-1" d="M35.11,31.51A3.981,3.981,0,0,1,32,38a4.4,4.4,0,0,1-.51-.05,3.995,3.995,0,0,0-1.59-5.47l.04-.06A3.921,3.921,0,0,0,32,33,3.972,3.972,0,0,0,35.11,31.51Z"/><path class="cls-1" d="M33.94,25.42l-.04.06A4,4,0,0,0,28,29a4,4,0,0,0-8,0,4,4,0,1,0-7.49,1.95A3.98,3.98,0,0,1,9,27a4.024,4.024,0,0,1,.49-1.89A4,4,0,0,0,16,22a4,4,0,0,0,8,0,4,4,0,0,0,8,0A3.97,3.97,0,0,0,33.94,25.42Z"/><path class="cls-10" d="M33.9,18.52l.04.06A3.97,3.97,0,0,0,32,22a4,4,0,0,0-8,0,4,4,0,0,0-8,0,4,4,0,0,0-6.51-3.11A4.024,4.024,0,0,1,9,17a3.98,3.98,0,0,1,3.51-3.95A4,4,0,1,0,20,15a4,4,0,0,0,8,0,4,4,0,0,0,5.9,3.52Z"/><path class="cls-1" d="M31.45,38.01A3.973,3.973,0,0,1,28,44c-.05,0-.08-.01-.13-.01A3.636,3.636,0,0,0,28,43a4.005,4.005,0,0,0-2.1-3.52l.04-.06A3.921,3.921,0,0,0,28,40,3.976,3.976,0,0,0,31.45,38.01Z"/><path class="cls-9" d="M31.43,8.96A3.962,3.962,0,0,1,32,11a4,4,0,0,0-4,4,4,4,0,0,0-4-4,3.993,3.993,0,0,1,7.43-2.04Z"/><path class="cls-2" d="M32,36a4.017,4.017,0,0,1-.51,1.95h-.02c-.01.01-.01.03-.02.05v.01A3.976,3.976,0,0,1,28,40a3.921,3.921,0,0,1-2.06-.58A3.994,3.994,0,0,1,28,32a4,4,0,0,1,4,4Z"/><circle class="cls-11" cx="28" cy="22" r="4"/><path class="cls-10" d="M29.94,32.42l-.04.06A4,4,0,0,0,24,36a4,4,0,1,0-7.49,1.95A4.4,4.4,0,0,1,16,38a3.981,3.981,0,0,1-3.11-6.49A4,4,0,0,0,20,29a4,4,0,0,0,8,0A3.97,3.97,0,0,0,29.94,32.42Z"/><path class="cls-5" d="M28,43a3.636,3.636,0,0,1-.13.99h-.01a4.2,4.2,0,0,1-.7,1.46.01.01,0,0,0-.01.01l-.21.24a2.5,2.5,0,0,1-.23.23l-.24.21a3.65,3.65,0,0,1-.64.41,1.425,1.425,0,0,1-.28.13,2.5,2.5,0,0,1-.43.16l-.24.06a3.846,3.846,0,0,1-.47.08c-.14.01-.27.02-.41.02s-.27-.01-.41-.02a3.846,3.846,0,0,1-.47-.08l-.24-.06a2.5,2.5,0,0,1-.43-.16,1.425,1.425,0,0,1-.28-.13,3.65,3.65,0,0,1-.64-.41l-.24-.21a2.5,2.5,0,0,1-.23-.23l-.21-.24a.01.01,0,0,0-.01-.01,4.2,4.2,0,0,1-.7-1.46h-.01A3.636,3.636,0,0,1,20,43a4,4,0,1,1,8,0Z"/><circle class="cls-11" cx="24" cy="15" r="4"/><circle class="cls-4" cx="24" cy="29" r="4"/><path class="cls-10" d="M25.94,39.42l-.04.06A4,4,0,0,0,20,43a3.636,3.636,0,0,0,.13.99c-.05,0-.08.01-.13.01a3.973,3.973,0,0,1-3.45-5.99A3.995,3.995,0,0,0,24,36,3.97,3.97,0,0,0,25.94,39.42Z"/><path class="cls-9" d="M22,7.54A3.98,3.98,0,0,1,24,11a4,4,0,0,0-4,4,4,4,0,0,0-4-4,3.994,3.994,0,0,1,6-3.46Z"/><circle class="cls-2" cx="20" cy="22" r="4"/><path class="cls-11" d="M20,32a4,4,0,1,1-3.45,6.01V38c-.01-.02-.01-.04-.02-.05h-.02A4,4,0,0,1,20,32Z"/><path class="cls-5" d="M16,25a4,4,0,1,1-3.11,6.51l.01-.01a3.525,3.525,0,0,1-.37-.55h-.02A4,4,0,0,1,16,25Z"/><path class="cls-4" d="M12,18a4,4,0,1,1-2.51,7.11.01.01,0,0,0,.01-.01,3.9,3.9,0,0,1-1.08-1.34,1.923,1.923,0,0,1-.12-.25,1.064,1.064,0,0,1-.09-.25,2.014,2.014,0,0,1-.1-.35,3.109,3.109,0,0,1-.08-.44,3.7,3.7,0,0,1,0-.94,3.109,3.109,0,0,1,.08-.44,2.014,2.014,0,0,1,.1-.35,1.064,1.064,0,0,1,.09-.25,1.923,1.923,0,0,1,.12-.25A3.9,3.9,0,0,1,9.5,18.9a.01.01,0,0,0-.01-.01A4.018,4.018,0,0,1,12,18Z"/><path class="cls-12" d="M26,7v.54A3.98,3.98,0,0,0,24,11a3.98,3.98,0,0,0-2-3.46V1h4Z"/><path class="cls-7" d="M16.57,8.96A3.962,3.962,0,0,0,16,11a3.076,3.076,0,0,0-.53.04.075.075,0,0,0-.05.01,3.4,3.4,0,0,0-.46.09.142.142,0,0,0-.06.02,2.991,2.991,0,0,0-.42.15.612.612,0,0,0-.12.05,1.705,1.705,0,0,0-.4.21,3.769,3.769,0,0,0-1.41,1.42h-.01A5.757,5.757,0,0,1,7,9l3-1C7,7,6,2,6,2S13.3,8.39,16.57,8.96Z"/><path class="cls-7" d="M42,2s-1,5-4,6l3,1a5.757,5.757,0,0,1-5.54,3.99h-.01a3.769,3.769,0,0,0-1.41-1.42,1.705,1.705,0,0,0-.4-.21.612.612,0,0,0-.12-.05,2.991,2.991,0,0,0-.42-.15.142.142,0,0,0-.06-.02,3.4,3.4,0,0,0-.46-.09.075.075,0,0,0-.05-.01A3.076,3.076,0,0,0,32,11a3.962,3.962,0,0,0-.57-2.04C34.7,8.39,42,2,42,2Z"/><path class="cls-8" d="M22,7v.54a3.979,3.979,0,0,0-5.43,1.42C13.3,8.39,6,2,6,2c6,0,8,2,8,2V1C18.42,1,22,3.68,22,7Z"/><path class="cls-8" d="M42,2S34.7,8.39,31.43,8.96A3.979,3.979,0,0,0,26,7.54V7c0-3.32,3.58-6,8-6V4S36,2,42,2Z"/><circle class="cls-11" cx="32" cy="15" r="4"/><circle class="cls-4" cx="16" cy="15" r="4"/><path class="cls-13" d="M33,9a3.945,3.945,0,0,0-.043-.568,6.49,6.49,0,0,1-1.527.528A3.962,3.962,0,0,1,32,11a3.076,3.076,0,0,1,.53.04.075.075,0,0,1,.05.01,3.4,3.4,0,0,1,.46.09.142.142,0,0,1,.06.02,2.991,2.991,0,0,1,.42.15.612.612,0,0,1,.12.05,1.705,1.705,0,0,1,.4.21,3.769,3.769,0,0,1,1.41,1.42h.01a7.519,7.519,0,0,0,1.516-.231A3.989,3.989,0,0,0,33,9Z"/><path class="cls-14" d="M26,7.54a3.979,3.979,0,0,1,5.43,1.42,6.49,6.49,0,0,0,1.527-.528,3.955,3.955,0,0,0-6.906-2.1A4.587,4.587,0,0,0,26,7Z"/><path class="cls-13" d="M11.024,12.759a7.519,7.519,0,0,0,1.516.231h.01a3.769,3.769,0,0,1,1.41-1.42,1.705,1.705,0,0,1,.4-.21.612.612,0,0,1,.12-.05,2.991,2.991,0,0,1,.42-.15.142.142,0,0,1,.06-.02,3.4,3.4,0,0,1,.46-.09.075.075,0,0,1,.05-.01A3.076,3.076,0,0,1,16,11a3.929,3.929,0,0,1,.411-1.731,3.958,3.958,0,0,0-5.387,3.49Z"/><path class="cls-13" d="M16.57,8.96a6.49,6.49,0,0,1-1.527-.528A3.945,3.945,0,0,0,15,9a3.96,3.96,0,0,1,1.411.269h0C16.462,9.165,16.511,9.059,16.57,8.96Z"/><path class="cls-14" d="M21,5.54a4.01,4.01,0,0,0-5.957,2.892,6.49,6.49,0,0,0,1.527.528A3.979,3.979,0,0,1,22,7.54V7a4.587,4.587,0,0,0-.051-.665A3.963,3.963,0,0,0,21,5.54Z"/><path class="cls-3" d="M26,9.54a3.979,3.979,0,0,1,5.43,1.42c.018.03.031.062.048.093A3.894,3.894,0,0,1,32,11a4,4,0,0,0-8,0,4.094,4.094,0,0,1,.511.051A3.986,3.986,0,0,1,26,9.54Z"/><path class="cls-3" d="M20,9a4.01,4.01,0,0,1,3.489,2.051A4.094,4.094,0,0,1,24,11a4,4,0,0,0-8,0,3.894,3.894,0,0,1,.522.053c.017-.031.03-.063.048-.093A3.961,3.961,0,0,1,20,9Z"/><path class="cls-15" d="M24,17a3.989,3.989,0,0,1-3.859-3,4,4,0,1,0,7.718,0A3.989,3.989,0,0,1,24,17Z"/><path class="cls-4" d="M32,17a3.992,3.992,0,0,1-3.859-3,4,4,0,1,0,7.718,0A3.992,3.992,0,0,1,32,17Z"/><path class="cls-15" d="M16,17a3.992,3.992,0,0,1-3.859-3,4,4,0,1,0,7.718,0A3.992,3.992,0,0,1,16,17Z"/><path class="cls-15" d="M24,31a3.989,3.989,0,0,1-3.859-3,4,4,0,1,0,7.718,0A3.989,3.989,0,0,1,24,31Z"/><path class="cls-2" d="M32,31a3.992,3.992,0,0,1-3.859-3,4,4,0,1,0,7.718,0A3.992,3.992,0,0,1,32,31Z"/><path class="cls-15" d="M16,31a3.992,3.992,0,0,1-3.859-3,4,4,0,1,0,7.718,0A3.992,3.992,0,0,1,16,31Z"/><path class="cls-15" d="M28,38a3.989,3.989,0,0,1-3.859-3,4,4,0,1,0,7.718,0A3.989,3.989,0,0,1,28,38Z"/><path class="cls-15" d="M24,45a3.989,3.989,0,0,1-3.859-3,4,4,0,1,0,7.718,0A3.989,3.989,0,0,1,24,45Z"/><path class="cls-2" d="M20,38a3.992,3.992,0,0,1-3.859-3,4,4,0,1,0,7.718,0A3.992,3.992,0,0,1,20,38Z"/><path class="cls-15" d="M20,24a3.989,3.989,0,0,1-3.859-3,4,4,0,1,0,7.718,0A3.989,3.989,0,0,1,20,24Z"/><path class="cls-2" d="M28,24a3.992,3.992,0,0,1-3.859-3,4,4,0,1,0,7.718,0A3.992,3.992,0,0,1,28,24Z"/><path class="cls-15" d="M36,24a3.992,3.992,0,0,1-3.859-3,4,4,0,1,0,7.718,0A3.992,3.992,0,0,1,36,24Z"/><path class="cls-15" d="M12,24a3.992,3.992,0,0,1-3.859-3,4,4,0,1,0,7.718,0A3.992,3.992,0,0,1,12,24Z"/><ellipse class="cls-16" cx="34" cy="13" rx="0.948" ry="1.897" transform="translate(0.766 27.849) rotate(-45)"/><ellipse class="cls-2" cx="30" cy="9" rx="0.948" ry="1.897" transform="translate(2.423 23.849) rotate(-45)"/><ellipse class="cls-2" cx="22" cy="9" rx="0.948" ry="1.897" transform="translate(0.08 18.192) rotate(-45)"/><ellipse class="cls-16" cx="26" cy="13" rx="0.948" ry="1.897" transform="translate(-1.577 22.192) rotate(-45)"/><ellipse class="cls-11" cx="18" cy="13" rx="0.948" ry="1.897" transform="translate(-3.92 16.536) rotate(-45)"/><ellipse class="cls-11" cx="38" cy="20" rx="0.948" ry="1.897" transform="translate(-3.012 32.728) rotate(-45)"/><ellipse class="cls-16" cx="30" cy="20" rx="0.948" ry="1.897" transform="translate(-5.355 27.071) rotate(-45)"/><ellipse class="cls-11" cx="22" cy="20" rx="0.948" ry="1.897" transform="translate(-7.698 21.414) rotate(-45)"/><ellipse class="cls-11" cx="14" cy="20" rx="0.948" ry="1.897" transform="translate(-10.042 15.757) rotate(-45)"/><ellipse class="cls-11" cx="18" cy="27" rx="0.948" ry="1.897" transform="translate(-13.82 20.636) rotate(-45)"/><ellipse class="cls-11" cx="26" cy="27" rx="0.948" ry="1.897" transform="translate(-11.477 26.293) rotate(-45)"/><ellipse class="cls-16" cx="34" cy="27" rx="0.948" ry="1.897" transform="translate(-9.134 31.95) rotate(-45)"/><ellipse class="cls-11" cx="30" cy="34" rx="0.948" ry="1.897" transform="translate(-15.255 31.172) rotate(-45)"/><ellipse class="cls-16" cx="22" cy="34" rx="0.948" ry="1.897" transform="translate(-17.598 25.515) rotate(-45)"/><ellipse class="cls-11" cx="26" cy="41" rx="0.948" ry="1.897" transform="translate(-21.376 30.393) rotate(-45)"/><path class="cls-13" d="M24,8v3a3.98,3.98,0,0,1,2-3.46v-3A3.98,3.98,0,0,0,24,8Z"/><path class="cls-17" d="M22,4.54v3A3.98,3.98,0,0,1,24,11V8A3.98,3.98,0,0,0,22,4.54Z"/><path class="cls-14" d="M24,8a3.98,3.98,0,0,1,2-3.46V1H24Z"/><path class="cls-11" d="M39.97,21.53a3.7,3.7,0,0,1,0,.94,3.109,3.109,0,0,1-.08.44,2.014,2.014,0,0,1-.1.35,1.064,1.064,0,0,1-.09.25,1.923,1.923,0,0,1-.12.25A3.9,3.9,0,0,1,38.5,25.1a.01.01,0,0,0,.01.01A4.018,4.018,0,0,1,36,26a3.921,3.921,0,0,1-2.06-.58,3.985,3.985,0,0,1,0-6.84A3.921,3.921,0,0,1,36,18a4.018,4.018,0,0,1,2.51.89.01.01,0,0,0-.01.01,3.9,3.9,0,0,1,1.08,1.34,1.923,1.923,0,0,1,.12.25,1.064,1.064,0,0,1,.09.25,2.014,2.014,0,0,1,.1.35A3.109,3.109,0,0,1,39.97,21.53Z"/><path class="cls-3" d="M39,17a4.024,4.024,0,0,1-.49,1.89A4.018,4.018,0,0,0,36,18a3.921,3.921,0,0,0-2.06.58l-.04-.06a3.995,3.995,0,0,0,1.59-5.47A3.98,3.98,0,0,1,39,17Z"/><path class="cls-3" d="M38.51,25.11A4.024,4.024,0,0,1,39,27a3.98,3.98,0,0,1-3.51,3.95,3.995,3.995,0,0,0-1.59-5.47l.04-.06A3.921,3.921,0,0,0,36,26,4.018,4.018,0,0,0,38.51,25.11Z"/><path class="cls-16" d="M36,29a4.017,4.017,0,0,1-.51,1.95h-.02a3.525,3.525,0,0,1-.37.55l.01.01A3.972,3.972,0,0,1,32,33a3.921,3.921,0,0,1-2.06-.58A3.994,3.994,0,0,1,32,25a4,4,0,0,1,4,4Z"/><path class="cls-15" d="M31.43,8.96A3.962,3.962,0,0,1,32,11a4,4,0,0,0-4,4,4,4,0,0,0-4-4,3.993,3.993,0,0,1,7.43-2.04Z"/><circle class="cls-16" cx="28" cy="22" r="4"/><circle class="cls-16" cx="24" cy="15" r="4"/><path class="cls-15" d="M22,7.54A3.98,3.98,0,0,1,24,11a4,4,0,0,0-4,4,4,4,0,0,0-4-4,3.994,3.994,0,0,1,6-3.46Z"/><circle class="cls-16" cx="32" cy="15" r="4"/><path class="cls-4" d="M26,9.54a3.979,3.979,0,0,1,5.43,1.42c.018.03.031.062.048.093A3.894,3.894,0,0,1,32,11a4,4,0,0,0-8,0,4.094,4.094,0,0,1,.511.051A3.986,3.986,0,0,1,26,9.54Z"/><path class="cls-4" d="M20,9a4.01,4.01,0,0,1,3.489,2.051A4.094,4.094,0,0,1,24,11a4,4,0,0,0-8,0,3.894,3.894,0,0,1,.522.053c.017-.031.03-.063.048-.093A3.961,3.961,0,0,1,20,9Z"/><path class="cls-2" d="M24,17a3.989,3.989,0,0,1-3.859-3,4,4,0,1,0,7.718,0A3.989,3.989,0,0,1,24,17Z"/><path class="cls-4" d="M32,17a3.992,3.992,0,0,1-3.859-3,4,4,0,1,0,7.718,0A3.992,3.992,0,0,1,32,17Z"/><path class="cls-2" d="M32,31a3.992,3.992,0,0,1-3.859-3,4,4,0,1,0,7.718,0A3.992,3.992,0,0,1,32,31Z"/><path class="cls-2" d="M28,24a3.992,3.992,0,0,1-3.859-3,4,4,0,1,0,7.718,0A3.992,3.992,0,0,1,28,24Z"/><path class="cls-2" d="M36,24a3.992,3.992,0,0,1-3.859-3,4,4,0,1,0,7.718,0A3.992,3.992,0,0,1,36,24Z"/><path class="cls-3" d="M31.614,34.3a37.724,37.724,0,0,0,3.891,1.592A3.965,3.965,0,0,0,36,34a4.021,4.021,0,0,0-.89-2.49A3.972,3.972,0,0,1,32,33a3.921,3.921,0,0,1-2.06-.58l-.04.06A4.03,4.03,0,0,1,31.614,34.3Z"/><path class="cls-11" d="M28.659,32.659c.37-.371,1.271-.07,2.012.67a3.391,3.391,0,0,1,.6.8c.116.057.23.115.346.171a3.745,3.745,0,0,0-4.043-2.256c.35.224.7.444,1.06.657A.421.421,0,0,1,28.659,32.659Z"/><path class="cls-11" d="M25.557,30.669A4.006,4.006,0,0,0,27.859,28a3.974,3.974,0,0,0-7.022-1.424A38.092,38.092,0,0,0,25.557,30.669Z"/><path class="cls-4" d="M27.859,28c.032.124.056.251.078.379C27.917,28.25,27.891,28.125,27.859,28Z"/><path class="cls-11" d="M20,24a3.989,3.989,0,0,0,3.859-3,3.978,3.978,0,0,0-7.658-.191q.927,1.416,1.977,2.741A3.945,3.945,0,0,0,20,24Z"/><path class="cls-2" d="M23.859,21c.032.124.056.251.078.379C23.917,21.25,23.891,21.125,23.859,21Z"/><path class="cls-11" d="M16,17a3.992,3.992,0,0,0,3.859-3c.032.124.056.252.078.379A3.982,3.982,0,0,0,12.393,13.3q.552,1.481,1.222,2.9A3.944,3.944,0,0,0,16,17Z"/><path class="cls-15" d="M19.937,14.379A3.972,3.972,0,0,1,20,15,3.441,3.441,0,0,0,19.937,14.379Z"/><path class="cls-2" d="M20,15a3.972,3.972,0,0,0-.063-.621c-.022-.127-.046-.255-.078-.379A3.992,3.992,0,0,1,16,17a3.944,3.944,0,0,1-2.385-.8c.429.91.9,1.8,1.394,2.665A3.951,3.951,0,0,0,16,19,4,4,0,0,0,20,15Z"/><path class="cls-15" d="M27.937,28.379A3.972,3.972,0,0,1,28,29,3.432,3.432,0,0,0,27.937,28.379Z"/><path class="cls-2" d="M27.937,28.379c-.022-.128-.046-.255-.078-.379h0a4.006,4.006,0,0,1-2.3,2.669q.695.51,1.413.989a3.768,3.768,0,0,0,.967-3.279Z"/><path class="cls-15" d="M23.937,21.379A3.972,3.972,0,0,1,24,22,3.432,3.432,0,0,0,23.937,21.379Z"/><path class="cls-2" d="M24,22a3.972,3.972,0,0,0-.063-.621c-.022-.128-.046-.255-.078-.379h0A3.989,3.989,0,0,1,20,24a3.945,3.945,0,0,1-1.822-.45q.993,1.256,2.085,2.424A3.988,3.988,0,0,0,24,22Z"/><path class="cls-18" d="M28.659,32.659a.421.421,0,0,0-.028.041q1.288.764,2.637,1.428a3.391,3.391,0,0,0-.6-.8C29.93,32.589,29.029,32.288,28.659,32.659Z"/><ellipse class="cls-11" cx="30" cy="9" rx="0.948" ry="1.897" transform="translate(2.423 23.849) rotate(-45)"/><ellipse class="cls-11" cx="22" cy="9" rx="0.948" ry="1.897" transform="translate(0.08 18.192) rotate(-45)"/><ellipse class="cls-19" cx="26" cy="13" rx="0.948" ry="1.897" transform="translate(-1.577 22.192) rotate(-45)"/><ellipse class="cls-19" cx="38" cy="20" rx="0.948" ry="1.897" transform="translate(-3.012 32.728) rotate(-45)"/><ellipse class="cls-19" cx="30" cy="20" rx="0.948" ry="1.897" transform="translate(-5.355 27.071) rotate(-45)"/><ellipse class="cls-18" cx="22" cy="20" rx="0.948" ry="1.897" transform="translate(-7.698 21.414) rotate(-45)"/><ellipse class="cls-18" cx="26" cy="27" rx="0.948" ry="1.897" transform="translate(-11.477 26.293) rotate(-45)"/><ellipse class="cls-18" cx="18" cy="13" rx="0.948" ry="1.897" transform="translate(-3.92 16.536) rotate(-45)"/><ellipse class="cls-19" cx="34" cy="27" rx="0.948" ry="1.897" transform="translate(-9.134 31.95) rotate(-45)"/><ellipse class="cls-20" cx="33" cy="14" rx="1.65" ry="2.297" transform="translate(-0.229 27.446) rotate(-45.02)"/><ellipse class="cls-20" cx="37" cy="21" rx="0.825" ry="1.148" transform="translate(-4.008 32.328) rotate(-45.02)"/><ellipse class="cls-20" cx="34.746" cy="20.5" rx="0.413" ry="0.574" transform="translate(-4.316 30.587) rotate(-45.02)"/><ellipse class="cls-20" cx="28.746" cy="21.5" rx="0.413" ry="0.574" transform="translate(-6.782 26.636) rotate(-45.02)"/><ellipse class="cls-20" cx="30.746" cy="15.5" rx="0.413" ry="0.574" transform="translate(-1.951 26.292) rotate(-45.02)"/><path class="cls-21" d="M24,36a4,4,0,1,0,4-4"/><circle class="cls-21" cx="24" cy="43" r="4"/><path class="cls-21" d="M28,15a4,4,0,0,0-8,0"/><path class="cls-21" d="M32,19a4,4,0,1,0-4-4"/><circle class="cls-21" cx="16" cy="15" r="4"/><path class="cls-21" d="M16,25a4,4,0,1,0,4,4"/><path class="cls-21" d="M24,25a4,4,0,0,0-4,4"/><path class="cls-21" d="M24,33a4,4,0,0,0,4-4,4,4,0,0,0,8,0"/><path class="cls-21" d="M36,26a4,4,0,1,0-4-4"/><path class="cls-21" d="M16,22a4,4,0,1,0-4,4"/><path class="cls-21" d="M24,22a4,4,0,1,0-4,4"/><path class="cls-21" d="M40,22a3.975,3.975,0,0,0-1.5-3.1,3.95,3.95,0,0,0-3.028-5.853A3.983,3.983,0,0,0,32,11a4,4,0,0,0-8,0,4,4,0,0,0-8,0,3.983,3.983,0,0,0-3.471,2.047A3.95,3.95,0,0,0,9.5,18.9a3.952,3.952,0,0,0,0,6.2,3.95,3.95,0,0,0,3.028,5.853,3.99,3.99,0,0,0,.372.547,3.929,3.929,0,0,0,3.625,6.447c.01.018.019.036.029.053A3.955,3.955,0,0,0,16,40a4,4,0,0,0,4,4c.047,0,.091-.012.137-.014a3.983,3.983,0,0,0,7.726,0c.046,0,.09.014.137.014a4,4,0,0,0,4-4,3.955,3.955,0,0,0-.555-2c.01-.017.019-.035.029-.053A3.968,3.968,0,0,0,35.1,31.5a3.99,3.99,0,0,0,.372-.547A3.95,3.95,0,0,0,38.5,25.1,3.975,3.975,0,0,0,40,22Z"/><polyline class="cls-21" points="22 8 22 1 26 1 26 8"/><path class="cls-21" d="M29.573,2A9.955,9.955,0,0,1,34,1V4s2-2,8-2c0,0-1,5-4,6l3,1s-1,4-6,4"/><path class="cls-21" d="M26,7a5.242,5.242,0,0,1,2.035-4"/><path class="cls-21" d="M42,2S34,9,31,9"/><path class="cls-21" d="M22,7c0-3.316-3.578-6-8-6V4S12,2,6,2c0,0,1,5,4,6L7,9s1,4,6,4"/><path class="cls-21" d="M6,2s8,7,11,7"/><circle class="cls-21" cx="28" cy="22" r="4"/><circle class="cls-21" cx="20" cy="36" r="4"/></g></svg>