<svg xmlns="http://www.w3.org/2000/svg" viewBox="0 0 48 48"><defs><style>.cls-1{fill:#baec35;}.cls-2{fill:#436600;}.cls-3{fill:#4e8c00;}.cls-4{fill:#8bc808;}.cls-5{fill:#527710;}.cls-6{fill:#2f4700;}.cls-7{fill:#224326;}.cls-8{fill:#63b300;}.cls-9{fill:#d8ff73;}.cls-10{fill:#c9ff39;}.cls-11{fill:#9cdf00;}.cls-12{fill:#5d881d;}.cls-13{fill:#e8ffad;}.cls-14{fill:#f6fafd;}.cls-15{fill:none;stroke:#001a1f;stroke-linejoin:round;stroke-width:2px;}</style></defs><title>19-green apple</title><g id="_19-green_apple" data-name="19-green apple"><path class="cls-1" d="M5,24c0,12.16,6.71,23,15,23,2,0,1.79-1,4-1s2,1,4,1c8.29,0,15-10.84,15-23,0-9.94-9.06-13-19-13S5,14.06,5,24Z"/><path class="cls-2" d="M28,5c-3.83,0-5.95,5.34-6,10.81A9.63,9.63,0,0,0,24,16a9.5,9.5,0,0,0,1.98-.19C25.09,8.96,30,7,30,7Z"/><path class="cls-3" d="M5,2s2,9,16,9h2V9c0-4.42-5.03-8-10-8C13,1,7,1,5,2Z"/><path class="cls-1" d="M5,24c0,12.16,6.71,23,15,23,2,0,1.79-1,4-1s2,1,4,1c8.29,0,15-10.84,15-23,0-9.94-9.06-13-19-13S5,14.06,5,24Z"/><path class="cls-4" d="M24,11C14.06,11,5,14.06,5,24c0,12.16,6.71,23,15,23,2,0,1.79-1,4-1s2,1,4,1c8.29,0,15-10.84,15-23C43,14.06,33.94,11,24,11Zm5.368,32c-1.684,0-1.507-.833-3.368-.833S24.316,43,22.632,43C15.651,43,10,33.967,10,23.833,10,15.55,17.629,12,26,12s16,3.55,16,11.833C42,33.967,36.349,43,29.368,43Z"/><path class="cls-3" d="M19,14s1-1,5-1,5,1,5,1-1,2-5,2S19,14,19,14Z"/><path class="cls-5" d="M28,5c-3.83,0-5.95,5.34-6,10.81A9.63,9.63,0,0,0,24,16a9.5,9.5,0,0,0,1.98-.19C25.09,8.96,30,7,30,7Z"/><path class="cls-2" d="M28.665,5.665,30,7s-4.91,1.96-4.02,8.81A9.5,9.5,0,0,1,24.024,16C24.212,11.031,26.1,7.149,28.665,5.665Z"/><path class="cls-5" d="M24.033,16a9.489,9.489,0,0,0,1.947-.188A9.489,9.489,0,0,1,24.033,16Z"/><path class="cls-2" d="M24.205,14c-.089.645-.155,1.308-.181,2H24a9.63,9.63,0,0,1-2-.19c.006-.608.041-1.213.1-1.81Z"/><polygon class="cls-6" points="24.024 15.999 24.024 15.999 24.033 15.998 24.024 15.999"/><path class="cls-7" d="M25.888,14a11.965,11.965,0,0,0,.092,1.81A9.489,9.489,0,0,1,24.033,16h-.009c.026-.691.092-1.354.181-2Z"/><path class="cls-8" d="M25.943,13.092C28.339,13.339,29,14,29,14a2.579,2.579,0,0,1-.568.667,8.4,8.4,0,0,0-2.545-.58C25.891,13.741,25.908,13.408,25.943,13.092Z"/><path class="cls-8" d="M19.568,14.667A2.579,2.579,0,0,1,19,14s.693-.685,3.2-.921c-.046.334-.085.67-.115,1.01A8.354,8.354,0,0,0,19.568,14.667Z"/><path class="cls-3" d="M5,2s2,9,16,9h2V9c0-4.42-5.03-8-10-8C13,1,7,1,5,2Z"/><path class="cls-8" d="M5.023,2.09C5.008,2.033,5,2,5,2c2-1,8-1,8-1,4.97,0,10,3.58,10,8v1.9C20.557,7.105,13.829,3.745,5.023,2.09Z"/><path class="cls-9" d="M37.625,16.394a4.131,4.131,0,0,0-4.439-1.185,10.791,10.791,0,0,0-2.007,1.036,12.886,12.886,0,0,1-6.653,1.474c-.854-.036-1.924-.077-2.331.443a.734.734,0,0,0,.243,1.018,4.011,4.011,0,0,0,1.3.608c3.609,1.169,7.914,1.72,11.558.605a6.514,6.514,0,0,0,1.378-.57A2.292,2.292,0,0,0,37.625,16.394Z"/><path class="cls-9" d="M32.8,23.17a1.591,1.591,0,0,0-1.036.566,1.726,1.726,0,0,0-.187.826,34.384,34.384,0,0,1-3.034,12.191,4.982,4.982,0,0,0-.539,1.621,1.528,1.528,0,0,0,.659,1.477,1.825,1.825,0,0,0,1.174.1,9.633,9.633,0,0,0,5.788-3.7,22.339,22.339,0,0,0,3.252-6.306,18.488,18.488,0,0,0,1.047-3.838,5.054,5.054,0,0,0-.258-2.748C38.468,20.7,34.8,22.675,32.8,23.17Z"/><ellipse class="cls-9" cx="18" cy="17" rx="1.684" ry="3.187" transform="translate(-4.793 26.668) rotate(-66.349)"/><path class="cls-10" d="M26,12c-4.891,0-9.516,1.223-12.526,3.883A38.035,38.035,0,0,0,38.54,36.814,25.186,25.186,0,0,0,42,23.833C42,15.55,34.371,12,26,12Z"/><path class="cls-11" d="M26,12c8.371,0,16,3.55,16,11.833a25.186,25.186,0,0,1-3.46,12.981c.541.139,1.087.263,1.637.378A31.535,31.535,0,0,0,43,24c0-9.94-9.06-13-19-13a29.8,29.8,0,0,0-11.714,2.021c.355.975.757,1.926,1.188,2.862C16.484,13.223,21.109,12,26,12Z"/><path class="cls-3" d="M18.993,14.089s1-1,5-1,5,1,5,1-1,2-5,2S18.993,14.089,18.993,14.089Z"/><path class="cls-12" d="M27.993,5.089c-3.83,0-5.95,5.34-6,10.81a9.63,9.63,0,0,0,2,.19,9.5,9.5,0,0,0,1.98-.19c-.89-6.85,4.02-8.81,4.02-8.81Z"/><path class="cls-5" d="M28.658,5.754l1.335,1.335s-4.91,1.96-4.02,8.81a9.5,9.5,0,0,1-1.957.189C24.2,11.12,26.1,7.239,28.658,5.754Z"/><path class="cls-2" d="M24.2,14.089c-.089.645-.155,1.309-.182,2h-.023a9.63,9.63,0,0,1-2-.19c.005-.608.041-1.212.1-1.81Z"/><path class="cls-7" d="M25.881,14.089a11.965,11.965,0,0,0,.092,1.81,9.564,9.564,0,0,1-1.948.189h-.009c.027-.69.093-1.354.182-2Z"/><path class="cls-8" d="M25.936,13.181c2.4.247,3.057.908,3.057.908a2.579,2.579,0,0,1-.568.667,8.433,8.433,0,0,0-2.545-.58C25.884,13.83,25.9,13.5,25.936,13.181Z"/><path class="cls-8" d="M19.56,14.756a2.585,2.585,0,0,1-.567-.667s.693-.685,3.205-.92c-.046.333-.085.669-.115,1.009A8.371,8.371,0,0,0,19.56,14.756Z"/><path class="cls-8" d="M23,11v-.1c-1.942-3.015-6.6-5.754-12.847-7.583a37.8,37.8,0,0,0,.9,5.581A21.264,21.264,0,0,0,21,11Z"/><path class="cls-4" d="M23,10.9V9c0-4.42-5.03-8-10-8,0,0-1.346,0-2.972.107.021.742.061,1.478.125,2.208C16.4,5.144,21.058,7.883,23,10.9Z"/><path class="cls-13" d="M22.438,19.18a4.011,4.011,0,0,0,1.3.608c3.609,1.169,7.914,1.72,11.558.605a6.514,6.514,0,0,0,1.378-.57,2.292,2.292,0,0,0,.95-3.429,4.131,4.131,0,0,0-4.439-1.185,10.791,10.791,0,0,0-2.007,1.036,12.886,12.886,0,0,1-6.653,1.474c-.854-.036-1.924-.077-2.331.443A.734.734,0,0,0,22.438,19.18Z"/><path class="cls-13" d="M38.879,29.945a18.55,18.55,0,0,0,1.047-3.838,5.054,5.054,0,0,0-.258-2.748c-1.2-2.658-4.867-.684-6.866-.189a1.591,1.591,0,0,0-1.036.566,1.724,1.724,0,0,0-.187.826A34.424,34.424,0,0,1,29.857,33.4a37.757,37.757,0,0,0,5.949,2.589A22.939,22.939,0,0,0,38.879,29.945Z"/><path class="cls-13" d="M15.057,15.78c-.312.878.752,2.136,2.378,2.81s3.2.508,3.508-.37-.752-2.136-2.378-2.81S15.369,14.9,15.057,15.78Z"/><ellipse class="cls-14" cx="35.724" cy="16.823" rx="1.656" ry="2.305" transform="translate(-1.279 30.606) rotate(-45.645)"/><ellipse class="cls-14" cx="37.71" cy="20.823" rx="0.828" ry="1.152" transform="translate(-3.542 33.23) rotate(-45.645)"/><ellipse class="cls-14" cx="15.682" cy="3.823" rx="0.828" ry="1.152" transform="translate(1.985 12.364) rotate(-45.645)"/><ellipse class="cls-14" cx="34.441" cy="20.323" rx="0.414" ry="0.576" transform="translate(-4.169 30.741) rotate(-45.645)"/><ellipse class="cls-14" cx="40.497" cy="20.323" rx="0.414" ry="0.576" transform="translate(-2.346 35.071) rotate(-45.645)"/><path class="cls-15" d="M19,14s1,2,5,2,5-2,5-2"/><path class="cls-15" d="M22,16c0-5.527,2.131-11,6-11l2,2s-5,2-4,9"/><path class="cls-15" d="M34,45.007C39.3,41.331,43,33.03,43,24c0-9.269-7.876-12.555-17-12.957"/><path class="cls-15" d="M10.384,14A10.983,10.983,0,0,0,5,24c0,12.16,6.709,23,15,23,2,0,1.789-1,4-1s2,1,4,1a9.935,9.935,0,0,0,4.3-1"/><path class="cls-15" d="M23,11.011A28.77,28.77,0,0,0,12.318,13"/><path class="cls-15" d="M22,11c0-3.869-4.814-7-12-7"/><path class="cls-15" d="M22,11H21C7,11,5,2,5,2c2-1,8-1,8-1,4.594,0,9.317,3.051,10,7v2"/></g></svg>