<svg xmlns="http://www.w3.org/2000/svg" viewBox="0 0 48 48"><defs><style>.cls-1{fill:#589e00;}.cls-2{fill:#3f7000;}.cls-3{fill:#e8ffad;}.cls-4{fill:#c9ff39;}.cls-5{fill:#377802;}.cls-6{fill:#224326;}.cls-7{fill:#8bc808;}.cls-8{fill:#fffcdb;}.cls-9{fill:#d8ff73;}.cls-10{fill:#9cdf00;}.cls-11{fill:#63b300;}.cls-12{fill:#4e8c00;}.cls-13{fill:#2c4f00;}.cls-14{fill:#f4ffd6;}.cls-15{fill:#f6fafd;}.cls-16{fill:#fdfdd7;}.cls-17{fill:none;stroke:#001a1f;stroke-linejoin:round;stroke-width:2px;}</style></defs><title>22-lime</title><g id="_22-lime" data-name="22-lime"><path class="cls-1" d="M1,21.069C1,30.972,7.716,39,16,39s15-8.028,15-17.931C31,12.406,25.861,5.178,19.029,3.5A2.7,2.7,0,0,0,16,1a2.7,2.7,0,0,0-3.029,2.5C6.139,5.178,1,12.406,1,21.069Z"/><path class="cls-2" d="M14,37a2,2,0,0,1,4,0Z"/><circle class="cls-3" cx="32" cy="32" r="15"/><path class="cls-3" d="M34.12,29.88A2.994,2.994,0,1,1,32,29,2.993,2.993,0,0,1,34.12,29.88Z"/><path class="cls-4" d="M43.77,29.66A1.986,1.986,0,0,1,41.8,32H35a2.993,2.993,0,0,0-.88-2.12l4.81-4.81a2.021,2.021,0,0,1,3.11.35A11.9,11.9,0,0,1,43.77,29.66Z"/><path class="cls-4" d="M38.58,21.96a2.021,2.021,0,0,1,.35,3.11l-4.81,4.81A2.993,2.993,0,0,0,32,29V22.2a1.986,1.986,0,0,1,2.34-1.97A11.9,11.9,0,0,1,38.58,21.96Z"/><path class="cls-4" d="M32,22.2V29a2.993,2.993,0,0,0-2.12.88l-4.81-4.81a2.021,2.021,0,0,1,.35-3.11,11.9,11.9,0,0,1,4.24-1.73A1.986,1.986,0,0,1,32,22.2Z"/><path class="cls-4" d="M25.07,25.07l4.81,4.81A2.993,2.993,0,0,0,29,32H22.2a1.986,1.986,0,0,1-1.97-2.34,11.9,11.9,0,0,1,1.73-4.24A2.021,2.021,0,0,1,25.07,25.07Z"/><path class="cls-4" d="M29,32a2.993,2.993,0,0,0,.88,2.12l-4.81,4.81a2.021,2.021,0,0,1-3.11-.35,11.9,11.9,0,0,1-1.73-4.24A1.986,1.986,0,0,1,22.2,32Z"/><path class="cls-4" d="M29.88,34.12A2.993,2.993,0,0,0,32,35v6.8a1.986,1.986,0,0,1-2.34,1.97,11.9,11.9,0,0,1-4.24-1.73,2.021,2.021,0,0,1-.35-3.11Z"/><path class="cls-4" d="M38.93,38.93a2.021,2.021,0,0,1-.35,3.11,11.9,11.9,0,0,1-4.24,1.73A1.986,1.986,0,0,1,32,41.8V35a2.993,2.993,0,0,0,2.12-.88Z"/><path class="cls-4" d="M41.8,32a1.986,1.986,0,0,1,1.97,2.34,11.9,11.9,0,0,1-1.73,4.24,2.021,2.021,0,0,1-3.11.35l-4.81-4.81A2.993,2.993,0,0,0,35,32Z"/><path class="cls-1" d="M1,21.069C1,30.972,7.716,39,16,39s15-8.028,15-17.931C31,12.406,25.861,5.178,19.029,3.5A2.7,2.7,0,0,0,16,1a2.7,2.7,0,0,0-3.029,2.5C6.139,5.178,1,12.406,1,21.069Z"/><path class="cls-5" d="M20.5,33c-7.18,0-13-6.761-13-15.1,0-7.295,4.454-13.381,10.375-14.792a3.075,3.075,0,0,1,.472-1.2A2.828,2.828,0,0,0,16,1a2.7,2.7,0,0,0-3.029,2.5C6.139,5.178,1,12.406,1,21.069,1,30.972,7.716,39,16,39c5.987,0,11.14-4.2,13.546-10.268A12.089,12.089,0,0,1,20.5,33Z"/><path class="cls-6" d="M14,37a2,2,0,0,1,4,0Z"/><path class="cls-7" d="M15.235,10.366A1.412,1.412,0,0,0,15.1,11.5a1.741,1.741,0,0,0,.61.608,34.655,34.655,0,0,1,8.831,9.19,4.895,4.895,0,0,0,1.09,1.329,1.769,1.769,0,0,0,1.7.3,1.825,1.825,0,0,0,.808-.875,8.514,8.514,0,0,0,.3-6.65A21.015,21.015,0,0,0,24.9,9.315a18.435,18.435,0,0,0-2.723-2.967A5.578,5.578,0,0,0,19.61,5.025C16.544,4.5,16.026,8.5,15.235,10.366Z"/><circle class="cls-3" cx="32" cy="32" r="15"/><circle class="cls-8" cx="32" cy="32" r="13"/><path class="cls-9" d="M34.12,29.88A2.994,2.994,0,1,1,32,29,2.993,2.993,0,0,1,34.12,29.88Z"/><path class="cls-10" d="M43.77,29.66A1.986,1.986,0,0,1,41.8,32H35a2.993,2.993,0,0,0-.88-2.12l4.81-4.81a2.021,2.021,0,0,1,3.11.35A11.9,11.9,0,0,1,43.77,29.66Z"/><path class="cls-10" d="M38.58,21.96a2.021,2.021,0,0,1,.35,3.11l-4.81,4.81A2.993,2.993,0,0,0,32,29V22.2a1.986,1.986,0,0,1,2.34-1.97A11.9,11.9,0,0,1,38.58,21.96Z"/><path class="cls-10" d="M32,22.2V29a2.993,2.993,0,0,0-2.12.88l-4.81-4.81a2.021,2.021,0,0,1,.35-3.11,11.9,11.9,0,0,1,4.24-1.73A1.986,1.986,0,0,1,32,22.2Z"/><path class="cls-10" d="M25.07,25.07l4.81,4.81A2.993,2.993,0,0,0,29,32H22.2a1.986,1.986,0,0,1-1.97-2.34,11.9,11.9,0,0,1,1.73-4.24A2.021,2.021,0,0,1,25.07,25.07Z"/><path class="cls-10" d="M29,32a2.993,2.993,0,0,0,.88,2.12l-4.81,4.81a2.021,2.021,0,0,1-3.11-.35,11.9,11.9,0,0,1-1.73-4.24A1.986,1.986,0,0,1,22.2,32Z"/><path class="cls-10" d="M29.88,34.12A2.993,2.993,0,0,0,32,35v6.8a1.986,1.986,0,0,1-2.34,1.97,11.9,11.9,0,0,1-4.24-1.73,2.021,2.021,0,0,1-.35-3.11Z"/><path class="cls-10" d="M38.93,38.93a2.021,2.021,0,0,1-.35,3.11,11.9,11.9,0,0,1-4.24,1.73A1.986,1.986,0,0,1,32,41.8V35a2.993,2.993,0,0,0,2.12-.88Z"/><path class="cls-10" d="M41.8,32a1.986,1.986,0,0,1,1.97,2.34,11.9,11.9,0,0,1-1.73,4.24,2.021,2.021,0,0,1-3.11.35l-4.81-4.81A2.993,2.993,0,0,0,35,32Z"/><path class="cls-11" d="M32,17A15,15,0,1,0,47,32,15,15,0,0,0,32,17Zm0,29A14,14,0,1,1,46,32,14,14,0,0,1,32,46Z"/><path class="cls-8" d="M34.44,30.267,40.2,24.5a1.94,1.94,0,0,0-1.273.566A1.94,1.94,0,0,0,39.5,23.8L33.733,29.56a2.661,2.661,0,0,1,.707.707Z"/><path class="cls-8" d="M43.117,31.5H34.949a2.476,2.476,0,0,1,0,1h8.168A2,2,0,0,0,41.8,32,2,2,0,0,0,43.117,31.5Z"/><path class="cls-8" d="M31.5,20.883v8.168a2.476,2.476,0,0,1,1,0V20.883A2,2,0,0,0,32,22.2,2,2,0,0,0,31.5,20.883Z"/><path class="cls-8" d="M25.07,25.07A1.94,1.94,0,0,0,23.8,24.5l5.763,5.763a2.661,2.661,0,0,1,.707-.707L24.5,23.8A1.94,1.94,0,0,0,25.07,25.07Z"/><path class="cls-8" d="M29.56,33.733,23.8,39.5a1.945,1.945,0,0,0,1.273-.566A1.94,1.94,0,0,0,24.5,40.2l5.763-5.763a2.661,2.661,0,0,1-.707-.707Z"/><path class="cls-8" d="M29.051,32.5a2.476,2.476,0,0,1,0-1H20.883A2,2,0,0,0,22.2,32a2,2,0,0,0-1.317.5Z"/><path class="cls-8" d="M31.5,34.949v8.168A2,2,0,0,0,32,41.8a2,2,0,0,0,.5,1.317V34.949a2.476,2.476,0,0,1-1,0Z"/><path class="cls-8" d="M34.44,33.733a2.661,2.661,0,0,1-.707.707L39.5,40.2a1.94,1.94,0,0,0-.566-1.273A1.945,1.945,0,0,0,40.2,39.5Z"/><circle class="cls-8" cx="32" cy="32" r="2"/><ellipse class="cls-9" cx="42" cy="35" rx="0.825" ry="1.148" transform="translate(-12.446 39.968) rotate(-45.02)"/><ellipse class="cls-9" cx="38" cy="40" rx="0.825" ry="1.148" transform="translate(-17.155 38.605) rotate(-45.02)"/><ellipse class="cls-9" cx="37" cy="34" rx="0.825" ry="1.148" transform="translate(-13.204 36.139) rotate(-45.02)"/><ellipse class="cls-9" cx="39.746" cy="34.5" rx="0.413" ry="0.574" transform="translate(-12.753 38.227) rotate(-45.02)"/><ellipse class="cls-9" cx="39.746" cy="37.5" rx="0.413" ry="0.574" transform="translate(-14.875 39.107) rotate(-45.02)"/><ellipse class="cls-9" cx="35.746" cy="41.5" rx="0.413" ry="0.574" transform="translate(-18.877 37.45) rotate(-45.02)"/><ellipse class="cls-9" cx="35.746" cy="39.5" rx="0.413" ry="0.574" transform="translate(-17.462 36.864) rotate(-45.02)"/><ellipse class="cls-9" cx="33.746" cy="38.5" rx="0.413" ry="0.574" transform="translate(-17.341 35.156) rotate(-45.02)"/><ellipse class="cls-9" cx="35.746" cy="37.5" rx="0.413" ry="0.574" transform="translate(-16.047 36.278) rotate(-45.02)"/><ellipse class="cls-9" cx="33.746" cy="41.5" rx="0.413" ry="0.574" transform="translate(-19.463 36.035) rotate(-45.02)"/><ellipse class="cls-9" cx="33.746" cy="36.5" rx="0.413" ry="0.574" transform="translate(-15.926 34.57) rotate(-45.02)"/><ellipse class="cls-9" cx="40.746" cy="33.5" rx="0.413" ry="0.574" transform="translate(-11.752 38.642) rotate(-45.02)"/><ellipse class="cls-9" cx="22.246" cy="34" rx="1.148" ry="0.825" transform="translate(-17.523 25.675) rotate(-44.98)"/><ellipse class="cls-9" cx="24.246" cy="37" rx="1.148" ry="0.825" transform="translate(-19.058 27.967) rotate(-44.98)"/><ellipse class="cls-9" cx="26.246" cy="40" rx="1.148" ry="0.825" transform="translate(-20.594 30.258) rotate(-44.98)"/><ellipse class="cls-9" cx="24.5" cy="34.5" rx="0.574" ry="0.413" transform="translate(-17.217 27.415) rotate(-44.98)"/><ellipse class="cls-9" cx="28.5" cy="41.5" rx="0.574" ry="0.413" transform="translate(-20.994 32.291) rotate(-44.98)"/><ellipse class="cls-9" cx="28.5" cy="39.5" rx="0.574" ry="0.413" transform="translate(-19.581 31.705) rotate(-44.98)"/><ellipse class="cls-9" cx="30.5" cy="39.5" rx="0.574" ry="0.413" transform="translate(-18.995 33.119) rotate(-44.98)"/><ellipse class="cls-9" cx="28.5" cy="37.5" rx="0.574" ry="0.413" transform="translate(-18.167 31.12) rotate(-44.98)"/><ellipse class="cls-9" cx="30.5" cy="41.5" rx="0.574" ry="0.413" transform="translate(-20.409 33.704) rotate(-44.98)"/><ellipse class="cls-9" cx="30.5" cy="36.5" rx="0.574" ry="0.413" transform="translate(-16.875 32.241) rotate(-44.98)"/><ellipse class="cls-9" cx="26.5" cy="33.5" rx="0.574" ry="0.413" transform="translate(-15.925 28.536) rotate(-44.98)"/><ellipse class="cls-9" cx="27.5" cy="34.5" rx="0.574" ry="0.413" transform="translate(-16.339 29.535) rotate(-44.98)"/><ellipse class="cls-9" cx="22.246" cy="29" rx="0.825" ry="1.148" transform="translate(-13.992 24.237) rotate(-45.02)"/><ellipse class="cls-9" cx="26.246" cy="24" rx="0.825" ry="1.148" transform="translate(-9.283 25.6) rotate(-45.02)"/><ellipse class="cls-9" cx="27.246" cy="30" rx="0.825" ry="1.148" transform="translate(-13.234 28.067) rotate(-45.02)"/><ellipse class="cls-9" cx="24.5" cy="29.5" rx="0.413" ry="0.574" transform="translate(-13.685 25.978) rotate(-45.02)"/><ellipse class="cls-9" cx="24.5" cy="26.5" rx="0.413" ry="0.574" transform="translate(-11.563 25.098) rotate(-45.02)"/><ellipse class="cls-9" cx="28.5" cy="22.5" rx="0.413" ry="0.574" transform="translate(-7.561 26.755) rotate(-45.02)"/><ellipse class="cls-9" cx="28.5" cy="24.5" rx="0.413" ry="0.574" transform="translate(-8.976 27.341) rotate(-45.02)"/><ellipse class="cls-9" cx="30.5" cy="25.5" rx="0.413" ry="0.574" transform="translate(-9.097 29.049) rotate(-45.02)"/><ellipse class="cls-9" cx="28.5" cy="26.5" rx="0.413" ry="0.574" transform="translate(-10.39 27.928) rotate(-45.02)"/><ellipse class="cls-9" cx="30.5" cy="22.5" rx="0.413" ry="0.574" transform="translate(-6.975 28.17) rotate(-45.02)"/><ellipse class="cls-9" cx="30.5" cy="27.5" rx="0.413" ry="0.574" transform="translate(-10.511 29.635) rotate(-45.02)"/><ellipse class="cls-9" cx="23.5" cy="30.5" rx="0.413" ry="0.574" transform="translate(-14.685 25.563) rotate(-45.02)"/><ellipse class="cls-9" cx="42" cy="30" rx="1.148" ry="0.825" transform="translate(-8.915 38.468) rotate(-44.98)"/><ellipse class="cls-9" cx="40" cy="27" rx="1.148" ry="0.825" transform="translate(-7.379 36.176) rotate(-44.98)"/><ellipse class="cls-9" cx="38" cy="24" rx="1.148" ry="0.825" transform="translate(-5.844 33.885) rotate(-44.98)"/><ellipse class="cls-9" cx="39.746" cy="29.5" rx="0.574" ry="0.413" transform="translate(-9.221 36.728) rotate(-44.98)"/><ellipse class="cls-9" cx="35.746" cy="22.5" rx="0.574" ry="0.413" transform="translate(-5.443 31.852) rotate(-44.98)"/><ellipse class="cls-9" cx="35.746" cy="24.5" rx="0.574" ry="0.413" transform="translate(-6.857 32.437) rotate(-44.98)"/><ellipse class="cls-9" cx="33.746" cy="24.5" rx="0.574" ry="0.413" transform="translate(-7.442 31.024) rotate(-44.98)"/><ellipse class="cls-9" cx="35.746" cy="26.5" rx="0.574" ry="0.413" transform="translate(-8.271 33.023) rotate(-44.98)"/><ellipse class="cls-9" cx="33.746" cy="22.5" rx="0.574" ry="0.413" transform="translate(-6.029 30.438) rotate(-44.98)"/><ellipse class="cls-9" cx="33.746" cy="27.5" rx="0.574" ry="0.413" transform="translate(-9.563 31.902) rotate(-44.98)"/><ellipse class="cls-9" cx="37.746" cy="30.5" rx="0.574" ry="0.413" transform="translate(-10.513 35.607) rotate(-44.98)"/><ellipse class="cls-9" cx="36.746" cy="29.5" rx="0.574" ry="0.413" transform="translate(-10.099 34.608) rotate(-44.98)"/><path class="cls-2" d="M18.6,38.713A14.95,14.95,0,0,1,23.423,19.7q-.582-.788-1.214-1.543A14.987,14.987,0,0,0,14.7,38.922,12.724,12.724,0,0,0,16,39,12.667,12.667,0,0,0,18.6,38.713Z"/><path class="cls-12" d="M28.839,17.042C28.559,17.027,28.283,17,28,17a14.962,14.962,0,0,0-5.791,1.161q.63.758,1.214,1.543a14.923,14.923,0,0,1,5.452-2.373C28.862,17.235,28.854,17.138,28.839,17.042Z"/><path class="cls-13" d="M18.6,38.719A14.757,14.757,0,0,1,17.872,37H14a1.995,1.995,0,0,1,3.465-1.353,15.018,15.018,0,0,1-.443-3.21,12.192,12.192,0,0,1-3.92-2.129,14.773,14.773,0,0,0,1.6,8.614,11.724,11.724,0,0,0,3.9-.2Z"/><path class="cls-6" d="M16,35a2,2,0,0,0-2,2h3.872q-.236-.663-.407-1.353A1.986,1.986,0,0,0,16,35Z"/><path class="cls-14" d="M32,18a14,14,0,0,0-12.319,7.344c.239.267.485.526.731.786A12.989,12.989,0,0,1,43.648,37.745c.352.04.7.074,1.059.1A13.978,13.978,0,0,0,32,18Z"/><path class="cls-15" d="M43.648,37.745A12.989,12.989,0,0,0,20.412,26.13,37.87,37.87,0,0,0,43.648,37.745ZM32,30a2,2,0,1,1-2,2A2,2,0,0,1,32,30Z"/><path class="cls-10" d="M32,18A13.978,13.978,0,0,1,44.707,37.849c.356.031.712.061,1.07.081A14.994,14.994,0,0,0,18.993,24.549c.227.268.455.534.688.8A14,14,0,0,1,32,18Z"/><path class="cls-4" d="M43.77,34.34A1.986,1.986,0,0,0,41.8,32a1.986,1.986,0,0,0,1.97-2.34,11.9,11.9,0,0,0-1.73-4.24,2.021,2.021,0,0,0-3.11-.35,2.021,2.021,0,0,0-.35-3.11,11.9,11.9,0,0,0-4.24-1.73A1.986,1.986,0,0,0,32,22.2a1.986,1.986,0,0,0-2.34-1.97,11.9,11.9,0,0,0-4.24,1.73,2.021,2.021,0,0,0-.35,3.11,2.021,2.021,0,0,0-3.11.35,12.258,12.258,0,0,0-.812,1.48A37.873,37.873,0,0,0,42.609,37.613,11.778,11.778,0,0,0,43.77,34.34Z"/><path class="cls-15" d="M34.44,30.267,40.2,24.5a1.94,1.94,0,0,0-1.273.566A1.94,1.94,0,0,0,39.5,23.8L33.733,29.56a2.661,2.661,0,0,1,.707.707Z"/><path class="cls-15" d="M34.949,31.5a2.476,2.476,0,0,1,0,1h8.168A2,2,0,0,0,41.8,32a2,2,0,0,0,1.317-.5Z"/><path class="cls-15" d="M32.5,29.051V20.883A2,2,0,0,0,32,22.2a2,2,0,0,0-.5-1.317v8.168a2.476,2.476,0,0,1,1,0Z"/><path class="cls-15" d="M29.56,30.267a2.661,2.661,0,0,1,.707-.707L24.5,23.8a1.94,1.94,0,0,0,.566,1.273A1.94,1.94,0,0,0,23.8,24.5Z"/><path class="cls-8" d="M29,32a2.942,2.942,0,0,1,.051-.5H26.726q.767.517,1.558,1h.767A2.942,2.942,0,0,1,29,32Z"/><path class="cls-15" d="M34.44,33.733a2.661,2.661,0,0,1-.707.707l1.288,1.288c.69.25,1.392.475,2.1.686Z"/><path class="cls-16" d="M41.394,34.053c-.44.177-.524.745-.189,1.268a1.271,1.271,0,0,0,1.4.626c.44-.177.524-.745.189-1.268A1.271,1.271,0,0,0,41.394,34.053Z"/><path class="cls-16" d="M36.394,33.053c-.44.177-.524.745-.189,1.268a1.271,1.271,0,0,0,1.4.626c.44-.177.524-.745.189-1.268A1.271,1.271,0,0,0,36.394,33.053Z"/><path class="cls-16" d="M39.443,34.027c-.22.088-.262.372-.095.634a.638.638,0,0,0,.7.313c.22-.089.262-.373.094-.634A.634.634,0,0,0,39.443,34.027Z"/><path class="cls-16" d="M39.454,37.025c.165.038.329.079.495.114A.548.548,0,0,0,39.454,37.025Z"/><path class="cls-16" d="M40.443,33.027c-.22.088-.262.372-.095.634a.638.638,0,0,0,.7.313c.22-.089.262-.373.094-.634A.634.634,0,0,0,40.443,33.027Z"/><path class="cls-16" d="M26.852,24.947c.439-.177.524-.745.189-1.268a1.272,1.272,0,0,0-1.4-.626c-.439.178-.523.745-.188,1.268A1.271,1.271,0,0,0,26.852,24.947Z"/><path class="cls-16" d="M26.639,29.053c-.439.178-.523.745-.188,1.268a1.271,1.271,0,0,0,1.4.626c.439-.177.524-.745.189-1.268A1.272,1.272,0,0,0,26.639,29.053Z"/><path class="cls-16" d="M24.9,29.34a.636.636,0,0,0-.7-.313.354.354,0,0,0-.17.463c.211.171.426.336.64.5a.383.383,0,0,0,.136-.02C25.023,29.885,25.065,29.6,24.9,29.34Z"/><path class="cls-16" d="M24.8,26.973c.22-.088.262-.372.095-.633a.636.636,0,0,0-.7-.313c-.22.088-.262.372-.095.633A.636.636,0,0,0,24.8,26.973Z"/><path class="cls-16" d="M28.8,22.973c.22-.088.262-.372.095-.633a.636.636,0,0,0-.7-.313c-.22.088-.262.372-.095.633A.636.636,0,0,0,28.8,22.973Z"/><path class="cls-16" d="M28.8,24.973c.22-.088.262-.372.095-.633a.636.636,0,0,0-.7-.313c-.22.088-.262.372-.095.633A.636.636,0,0,0,28.8,24.973Z"/><path class="cls-16" d="M30.8,25.973c.22-.088.262-.372.095-.633a.636.636,0,0,0-.7-.313c-.22.088-.262.372-.095.633A.636.636,0,0,0,30.8,25.973Z"/><path class="cls-16" d="M28.8,26.973c.22-.088.262-.372.095-.633a.636.636,0,0,0-.7-.313c-.22.088-.262.372-.095.633A.636.636,0,0,0,28.8,26.973Z"/><path class="cls-16" d="M30.8,22.973c.22-.088.262-.372.095-.633a.636.636,0,0,0-.7-.313c-.22.088-.262.372-.095.633A.636.636,0,0,0,30.8,22.973Z"/><path class="cls-16" d="M30.8,27.973c.22-.088.262-.372.095-.633a.636.636,0,0,0-.7-.313c-.22.088-.262.372-.095.633A.636.636,0,0,0,30.8,27.973Z"/><path class="cls-16" d="M41.394,30.947a1.271,1.271,0,0,0,1.4-.626c.335-.523.251-1.09-.189-1.268a1.271,1.271,0,0,0-1.4.626C40.87,30.2,40.954,30.77,41.394,30.947Z"/><path class="cls-16" d="M39.394,27.947a1.271,1.271,0,0,0,1.4-.626c.335-.523.251-1.09-.189-1.268a1.271,1.271,0,0,0-1.4.626C38.87,27.2,38.954,27.77,39.394,27.947Z"/><path class="cls-16" d="M37.394,24.947a1.271,1.271,0,0,0,1.4-.626c.335-.523.251-1.09-.189-1.268a1.271,1.271,0,0,0-1.4.626C36.87,24.2,36.954,24.77,37.394,24.947Z"/><path class="cls-16" d="M40.049,29.027a.636.636,0,0,0-.7.313c-.167.261-.125.545.095.633a.634.634,0,0,0,.7-.313C40.311,29.4,40.269,29.115,40.049,29.027Z"/><path class="cls-16" d="M35.443,22.973a.634.634,0,0,0,.7-.313c.168-.261.126-.545-.094-.633a.636.636,0,0,0-.7.313C35.181,22.6,35.223,22.885,35.443,22.973Z"/><path class="cls-16" d="M35.443,24.973a.634.634,0,0,0,.7-.313c.168-.261.126-.545-.094-.633a.636.636,0,0,0-.7.313C35.181,24.6,35.223,24.885,35.443,24.973Z"/><path class="cls-16" d="M33.443,24.973a.634.634,0,0,0,.7-.313c.168-.261.126-.545-.094-.633a.636.636,0,0,0-.7.313C33.181,24.6,33.223,24.885,33.443,24.973Z"/><path class="cls-16" d="M35.443,26.973a.634.634,0,0,0,.7-.313c.168-.261.126-.545-.094-.633a.636.636,0,0,0-.7.313C35.181,26.6,35.223,26.885,35.443,26.973Z"/><path class="cls-16" d="M33.443,22.973a.634.634,0,0,0,.7-.313c.168-.261.126-.545-.094-.633a.636.636,0,0,0-.7.313C33.181,22.6,33.223,22.885,33.443,22.973Z"/><path class="cls-16" d="M33.443,27.973a.634.634,0,0,0,.7-.313c.168-.261.126-.545-.094-.633a.636.636,0,0,0-.7.313C33.181,27.6,33.223,27.885,33.443,27.973Z"/><path class="cls-16" d="M38.143,30.66c.168-.261.126-.545-.094-.633a.636.636,0,0,0-.7.313c-.167.261-.125.545.095.633A.634.634,0,0,0,38.143,30.66Z"/><path class="cls-16" d="M36.443,29.973a.634.634,0,0,0,.7-.313c.168-.261.126-.545-.094-.633a.636.636,0,0,0-.7.313C36.181,29.6,36.223,29.885,36.443,29.973Z"/><path class="cls-15" d="M35,32a3,3,0,1,0-5.81,1.021,37.928,37.928,0,0,0,3.667,1.84A2.991,2.991,0,0,0,35,32Zm-3,2a2,2,0,1,1,2-2A2,2,0,0,1,32,34Z"/><circle class="cls-3" cx="32" cy="32" r="2"/><ellipse class="cls-15" cx="20" cy="8" rx="1.65" ry="2.297" transform="translate(0.204 16.492) rotate(-45.02)"/><ellipse class="cls-15" cx="24" cy="11" rx="0.825" ry="1.148" transform="translate(-0.746 20.201) rotate(-45.02)"/><ellipse class="cls-7" cx="11" cy="25" rx="0.825" ry="1.148" transform="translate(-14.459 15.109) rotate(-45.02)"/><ellipse class="cls-15" cx="21.746" cy="11.5" rx="0.413" ry="0.574" transform="translate(-1.76 18.753) rotate(-45.02)"/><path class="cls-17" d="M29.787,13.994c-1.91-5.313-5.907-9.3-10.758-10.49A2.7,2.7,0,0,0,16,1a2.7,2.7,0,0,0-3.029,2.5C6.139,5.178,1,12.406,1,21.069,1,30.972,7.716,39,16,39"/><path class="cls-17" d="M14,37a2,2,0,0,1,2-2"/><path class="cls-17" d="M46.146,27a14.971,14.971,0,1,0,.554,2"/><path class="cls-17" d="M34.121,29.879l4.806-4.806a2.013,2.013,0,0,0-.346-3.109,11.936,11.936,0,0,0-4.245-1.737A1.988,1.988,0,0,0,32,22.2V29A2.991,2.991,0,0,1,34.121,29.879Z"/><path class="cls-17" d="M32,29V22.2a1.988,1.988,0,0,0-2.336-1.974,11.936,11.936,0,0,0-4.245,1.737,2.013,2.013,0,0,0-.346,3.109l4.806,4.806A2.991,2.991,0,0,1,32,29Z"/><path class="cls-17" d="M29.879,29.879l-4.806-4.806a2.013,2.013,0,0,0-3.109.346,11.936,11.936,0,0,0-1.737,4.245A1.988,1.988,0,0,0,22.2,32H29A2.991,2.991,0,0,1,29.879,29.879Z"/><path class="cls-17" d="M35,32h6.8a1.988,1.988,0,0,0,1.974-2.336,11.936,11.936,0,0,0-1.737-4.245,2.013,2.013,0,0,0-3.109-.346l-4.806,4.806A2.991,2.991,0,0,1,35,32Z"/><path class="cls-17" d="M35,32a2.991,2.991,0,0,1-.879,2.121l4.806,4.806a2.012,2.012,0,0,0,3.109-.347,11.924,11.924,0,0,0,1.737-4.244A1.988,1.988,0,0,0,41.8,32Z"/><path class="cls-17" d="M32,35v6.8a1.988,1.988,0,0,0,2.336,1.974,11.936,11.936,0,0,0,4.245-1.737,2.013,2.013,0,0,0,.346-3.109l-4.806-4.806A2.991,2.991,0,0,1,32,35Z"/><path class="cls-17" d="M29,32H22.2a1.988,1.988,0,0,0-1.974,2.336,11.924,11.924,0,0,0,1.737,4.244,2.012,2.012,0,0,0,3.109.347l4.806-4.806A2.991,2.991,0,0,1,29,32Z"/><path class="cls-17" d="M29.879,34.121l-4.806,4.806a2.013,2.013,0,0,0,.346,3.109,11.936,11.936,0,0,0,4.245,1.737A1.988,1.988,0,0,0,32,41.8V35A2.991,2.991,0,0,1,29.879,34.121Z"/></g></svg>