<svg xmlns="http://www.w3.org/2000/svg" viewBox="0 0 48 48"><defs><style>.cls-1{fill:#807d00;}.cls-2{fill:#5c175b;}.cls-3{fill:#a10062;}.cls-4{fill:#fdf1c1;}.cls-5{fill:#745a00;}.cls-6{fill:#4f4600;}.cls-7{fill:#41023b;}.cls-8{fill:#8c428b;}.cls-9{fill:#9e9b00;}.cls-10{fill:#977b00;}.cls-11{fill:#fff9e3;}.cls-12{fill:#fff4cc;}.cls-13{fill:#4d002f;}.cls-14{fill:#6e0043;}.cls-15{fill:#fff6d4;}.cls-16{fill:#fdeeb4;}.cls-17{fill:#ffeca6;}.cls-18{fill:#fde589;}.cls-19{fill:#30001e;}.cls-20{fill:#590351;}.cls-21{fill:#a64ea5;}.cls-22{fill:#b1ad00;}.cls-23{fill:#b39500;}.cls-24{fill:#cf007e;}.cls-25{fill:#fffbeb;}.cls-26{fill:#fff9e0;}.cls-27{fill:#fff6d6;}.cls-28{fill:#f6fafd;}.cls-29{fill:none;stroke:#001a1f;stroke-linejoin:round;stroke-width:2px;}</style></defs><title>29-mangosteen</title><g id="_29-mangosteen" data-name="29-mangosteen"><path class="cls-1" d="M10.887,7.165A4.109,4.109,0,0,0,8,6,3.881,3.881,0,0,0,4,9.75C4,11.821,5.791,12,8,12a9.293,9.293,0,0,0,2.484-.242A2.918,2.918,0,0,1,10,10,4.969,4.969,0,0,1,10.887,7.165Z"/><path class="cls-1" d="M22,6a4.109,4.109,0,0,0-2.887,1.165A4.969,4.969,0,0,1,20,10a2.918,2.918,0,0,1-.484,1.758A9.293,9.293,0,0,0,22,12c2.209,0,4-.179,4-2.25A3.881,3.881,0,0,0,22,6Z"/><path class="cls-1" d="M17,5.422V1H13V5.422a4.95,4.95,0,0,1,4,0Z"/><path class="cls-1" d="M20,10a5,5,0,0,0-10,0c0,2.761,2.239,3,5,3S20,12.761,20,10Z"/><path class="cls-2" d="M25.205,11.436A6.064,6.064,0,0,1,22,12a9.293,9.293,0,0,1-2.484-.242C18.714,12.87,17,13,15,13s-3.714-.13-4.516-1.242A9.293,9.293,0,0,1,8,12a6.064,6.064,0,0,1-3.2-.564,14,14,0,1,0,20.41,0Z"/><circle class="cls-3" cx="33" cy="33" r="14"/><path class="cls-4" d="M33,33h7.937a2.028,2.028,0,0,0,2.007-2.459,10.152,10.152,0,0,0-1.1-2.714,2.059,2.059,0,0,0-3.234-.433L33,33Z"/><path class="cls-4" d="M30.541,23.056a10.152,10.152,0,0,0-2.714,1.1,2.059,2.059,0,0,0-.433,3.234L33,33V25.063A2.028,2.028,0,0,0,30.541,23.056Z"/><path class="cls-4" d="M38.173,24.16a10.152,10.152,0,0,0-2.714-1.1A2.028,2.028,0,0,0,33,25.063V33l5.606-5.606A2.059,2.059,0,0,0,38.173,24.16Z"/><path class="cls-4" d="M33,33v7.937a2.028,2.028,0,0,0,2.459,2.007,10.152,10.152,0,0,0,2.714-1.1,2.059,2.059,0,0,0,.433-3.234L33,33Z"/><path class="cls-4" d="M33,33l5.606,5.606a2.059,2.059,0,0,0,3.234-.433,10.152,10.152,0,0,0,1.1-2.714A2.028,2.028,0,0,0,40.937,33Z"/><path class="cls-4" d="M33,33l-5.606,5.606a2.059,2.059,0,0,0,.433,3.234,10.152,10.152,0,0,0,2.714,1.1A2.028,2.028,0,0,0,33,40.937V33Z"/><path class="cls-4" d="M23.056,35.459a10.152,10.152,0,0,0,1.1,2.714,2.059,2.059,0,0,0,3.234.433L33,33H25.063A2.028,2.028,0,0,0,23.056,35.459Z"/><path class="cls-4" d="M33,33l-5.606-5.606a2.059,2.059,0,0,0-3.234.433,10.152,10.152,0,0,0-1.1,2.714A2.028,2.028,0,0,0,25.063,33Z"/><path class="cls-1" d="M10.887,7.165A4.109,4.109,0,0,0,8,6,3.881,3.881,0,0,0,4,9.75C4,11.821,5.791,12,8,12a9.293,9.293,0,0,0,2.484-.242A2.918,2.918,0,0,1,10,10,4.969,4.969,0,0,1,10.887,7.165Z"/><path class="cls-5" d="M4.185,8.68A3.493,3.493,0,0,0,4,9.75C4,11.821,5.791,12,8,12a9.293,9.293,0,0,0,2.484-.242A2.918,2.918,0,0,1,10,10c0-.046.009-.09.011-.136A11.59,11.59,0,0,1,8,10C6.19,10,4.679,9.862,4.185,8.68Z"/><path class="cls-1" d="M22,6a4.109,4.109,0,0,0-2.887,1.165A4.969,4.969,0,0,1,20,10a2.918,2.918,0,0,1-.484,1.758A9.293,9.293,0,0,0,22,12c2.209,0,4-.179,4-2.25A3.881,3.881,0,0,0,22,6Z"/><path class="cls-1" d="M17,5.422V1H13V5.422a4.95,4.95,0,0,1,4,0Z"/><path class="cls-1" d="M20,10a5,5,0,0,0-10,0c0,2.761,2.239,3,5,3S20,12.761,20,10Z"/><path class="cls-6" d="M10,10a4.969,4.969,0,0,1,.887-2.835,4.051,4.051,0,0,0-1.26-.835A4.969,4.969,0,0,0,8,10a2.727,2.727,0,0,0,.676,1.99,7.463,7.463,0,0,0,1.808-.232A2.918,2.918,0,0,1,10,10Z"/><path class="cls-5" d="M22,10a4.969,4.969,0,0,0-1.627-3.67,4.051,4.051,0,0,0-1.26.835A4.969,4.969,0,0,1,20,10a2.918,2.918,0,0,1-.484,1.758,7.463,7.463,0,0,0,1.808.232A2.727,2.727,0,0,0,22,10Z"/><path class="cls-2" d="M25.205,11.436A6.064,6.064,0,0,1,22,12a9.293,9.293,0,0,1-2.484-.242C18.714,12.87,17,13,15,13s-3.714-.13-4.516-1.242A9.293,9.293,0,0,1,8,12a6.064,6.064,0,0,1-3.2-.564,14,14,0,1,0,20.41,0Z"/><path class="cls-7" d="M6,17a8.867,8.867,0,0,1,.1-1.406A1.9,1.9,0,0,1,7.986,14H8a9.293,9.293,0,0,0,2.484-.242C11.286,14.87,13,15,15,15s3.714-.13,4.516-1.242A9.293,9.293,0,0,0,22,14a22.2,22.2,0,0,0,4.859-.411,14.2,14.2,0,0,0-1.654-2.153A6.064,6.064,0,0,1,22,12a9.293,9.293,0,0,1-2.484-.242C18.714,12.87,17,13,15,13s-3.714-.13-4.516-1.242A9.293,9.293,0,0,1,8,12a6.064,6.064,0,0,1-3.2-.564c-.309.33-.6.676-.877,1.034l-.009.013a13.986,13.986,0,0,0,22.1,17.147A13.965,13.965,0,0,1,6,17Z"/><path class="cls-8" d="M21.61,15.98c-.242.081-.5.181-.584.414a1.034,1.034,0,0,0,.031.542,20.323,20.323,0,0,1,.278,8,2.8,2.8,0,0,0-.053,1.071,1.283,1.283,0,0,0,.718.921,1.306,1.306,0,0,0,.8.009,4.845,4.845,0,0,0,3.16-2.661,11.615,11.615,0,0,0,.978-4.22,10.836,10.836,0,0,0-.026-2.524,3.707,3.707,0,0,0-.691-1.76C24.921,14.12,22.849,15.566,21.61,15.98Z"/><ellipse class="cls-8" cx="19" cy="22" rx="2" ry="4"/><path class="cls-5" d="M15,11c-2.4,0-4.4-.182-4.887-2.044A4.991,4.991,0,0,0,10,10c0,2.761,2.239,3,5,3s5-.239,5-3a4.991,4.991,0,0,0-.113-1.044C19.4,10.818,17.4,11,15,11Z"/><path class="cls-9" d="M18.018,10.711a2.41,2.41,0,0,0,1.869-1.755,4.98,4.98,0,0,0-6.752-3.588A7,7,0,0,0,18.018,10.711Z"/><path class="cls-1" d="M19.887,8.956c.009.041.013.083.02.123C19.9,9.039,19.9,9,19.887,8.956Z"/><path class="cls-5" d="M19.907,9.079A5,5,0,0,1,20,10,4.917,4.917,0,0,0,19.907,9.079Z"/><path class="cls-10" d="M19.907,9.079c-.007-.04-.011-.082-.02-.123h0a2.41,2.41,0,0,1-1.869,1.755,7.02,7.02,0,0,0,1.857.283A3.707,3.707,0,0,0,20,10,5,5,0,0,0,19.907,9.079Z"/><path class="cls-9" d="M22,6a4.132,4.132,0,0,0-.984.129C21.1,8.27,23.276,9.985,25.971,10c.007-.086.029-.155.029-.248A3.881,3.881,0,0,0,22,6Z"/><path class="cls-6" d="M13,4.422v1A4.979,4.979,0,0,1,15,5V4A4.979,4.979,0,0,0,13,4.422Z"/><path class="cls-5" d="M15,5a4.979,4.979,0,0,1,2,.422v-1A4.979,4.979,0,0,0,15,4Z"/><path class="cls-9" d="M15,4a4.979,4.979,0,0,1,2,.422V1H15Z"/><path class="cls-1" d="M15,1H13V4.422A4.979,4.979,0,0,1,15,4Z"/><circle class="cls-3" cx="33" cy="33" r="14"/><path class="cls-11" d="M30.541,23.056a10.152,10.152,0,0,0-2.714,1.1,2.059,2.059,0,0,0-.433,3.234L33,33V25.063A2.028,2.028,0,0,0,30.541,23.056Z"/><path class="cls-12" d="M38.173,24.16a10.152,10.152,0,0,0-2.714-1.1A2.028,2.028,0,0,0,33,25.063V33l5.606-5.606A2.059,2.059,0,0,0,38.173,24.16Z"/><path class="cls-11" d="M33,33v7.937a2.028,2.028,0,0,0,2.459,2.007,10.152,10.152,0,0,0,2.714-1.1,2.059,2.059,0,0,0,.433-3.234L33,33Z"/><path class="cls-12" d="M33,33l5.606,5.606a2.059,2.059,0,0,0,3.234-.433,10.152,10.152,0,0,0,1.1-2.714A2.028,2.028,0,0,0,40.937,33Z"/><path class="cls-12" d="M33,33l-5.606,5.606a2.059,2.059,0,0,0,.433,3.234,10.152,10.152,0,0,0,2.714,1.1A2.028,2.028,0,0,0,33,40.937V33Z"/><path class="cls-11" d="M33,33h7.937a2.028,2.028,0,0,0,2.007-2.459,10.152,10.152,0,0,0-1.1-2.714,2.059,2.059,0,0,0-3.234-.433L33,33Z"/><path class="cls-11" d="M23.056,35.459a10.152,10.152,0,0,0,1.1,2.714,2.059,2.059,0,0,0,3.234.433L33,33H25.063A2.028,2.028,0,0,0,23.056,35.459Z"/><path class="cls-12" d="M33,33l-5.606-5.606a2.059,2.059,0,0,0-3.234.433,10.152,10.152,0,0,0-1.1,2.714A2.028,2.028,0,0,0,25.063,33Z"/><path class="cls-13" d="M33,19A14,14,0,1,0,47,33,14,14,0,0,0,33,19Zm0,27A13,13,0,1,1,46,33,13,13,0,0,1,33,46Z"/><path class="cls-14" d="M41.731,33a2.23,2.23,0,0,0,2.207-2.7,11.161,11.161,0,0,0-1.214-2.986,2.266,2.266,0,0,0-3.558-.475,2.266,2.266,0,0,0-.475-3.558A11.154,11.154,0,0,0,35.7,22.062,2.23,2.23,0,0,0,33,24.269a2.23,2.23,0,0,0-2.7-2.207,11.154,11.154,0,0,0-2.987,1.214,2.266,2.266,0,0,0-.475,3.558,2.266,2.266,0,0,0-3.558.475A11.161,11.161,0,0,0,22.062,30.3,2.23,2.23,0,0,0,24.269,33a2.23,2.23,0,0,0-2.207,2.7,11.154,11.154,0,0,0,1.214,2.987,2.266,2.266,0,0,0,3.558.475,2.266,2.266,0,0,0,.475,3.558A11.194,11.194,0,0,0,30.3,43.938,2.231,2.231,0,0,0,33,41.731a2.231,2.231,0,0,0,2.7,2.207,11.194,11.194,0,0,0,2.986-1.214,2.266,2.266,0,0,0,.475-3.558,2.266,2.266,0,0,0,3.558-.475A11.154,11.154,0,0,0,43.938,35.7,2.23,2.23,0,0,0,41.731,33Zm1.213,2.459a10.152,10.152,0,0,1-1.1,2.714,2.059,2.059,0,0,1-3.234.433,2.059,2.059,0,0,1-.433,3.234,10.152,10.152,0,0,1-2.714,1.1A2.028,2.028,0,0,1,33,40.937a2.028,2.028,0,0,1-2.459,2.007,10.152,10.152,0,0,1-2.714-1.1,2.059,2.059,0,0,1-.433-3.234,2.059,2.059,0,0,1-3.234-.433,10.152,10.152,0,0,1-1.1-2.714A2.028,2.028,0,0,1,25.063,33a2.028,2.028,0,0,1-2.007-2.459,10.152,10.152,0,0,1,1.1-2.714,2.059,2.059,0,0,1,3.234-.433,2.059,2.059,0,0,1,.433-3.234,10.152,10.152,0,0,1,2.714-1.1A2.028,2.028,0,0,1,33,25.063a2.028,2.028,0,0,1,2.459-2.007,10.152,10.152,0,0,1,2.714,1.1,2.059,2.059,0,0,1,.433,3.234,2.059,2.059,0,0,1,3.234.433,10.152,10.152,0,0,1,1.1,2.714A2.028,2.028,0,0,1,40.937,33,2.028,2.028,0,0,1,42.944,35.459Z"/><path class="cls-15" d="M28.861,25.928a8.107,8.107,0,0,1,2.172-.883A1.622,1.622,0,0,1,33,26.65V25.063a2.028,2.028,0,0,0-2.459-2.007,10.152,10.152,0,0,0-2.714,1.1,2.059,2.059,0,0,0-.433,3.234l1.122,1.121A1.647,1.647,0,0,1,28.861,25.928Z"/><path class="cls-16" d="M34.967,25.045a8.107,8.107,0,0,1,2.172.883,1.647,1.647,0,0,1,.345,2.587l1.122-1.121a2.059,2.059,0,0,0-.433-3.234,10.152,10.152,0,0,0-2.714-1.1A2.028,2.028,0,0,0,33,25.063V26.65A1.622,1.622,0,0,1,34.967,25.045Z"/><path class="cls-15" d="M37.139,40.072a8.107,8.107,0,0,1-2.172.883A1.622,1.622,0,0,1,33,39.35v1.587a2.028,2.028,0,0,0,2.459,2.007,10.152,10.152,0,0,0,2.714-1.1,2.059,2.059,0,0,0,.433-3.234l-1.122-1.122A1.648,1.648,0,0,1,37.139,40.072Z"/><path class="cls-16" d="M40.937,33H39.35a1.622,1.622,0,0,1,1.6,1.967,8.107,8.107,0,0,1-.883,2.172,1.648,1.648,0,0,1-2.588.345l1.122,1.122a2.059,2.059,0,0,0,3.234-.433,10.152,10.152,0,0,0,1.1-2.714A2.028,2.028,0,0,0,40.937,33Z"/><path class="cls-16" d="M31.033,40.955a8.107,8.107,0,0,1-2.172-.883,1.648,1.648,0,0,1-.345-2.588l-1.122,1.122a2.059,2.059,0,0,0,.433,3.234,10.152,10.152,0,0,0,2.714,1.1A2.028,2.028,0,0,0,33,40.937V39.35A1.622,1.622,0,0,1,31.033,40.955Z"/><path class="cls-15" d="M40.072,28.861a8.107,8.107,0,0,1,.883,2.172A1.622,1.622,0,0,1,39.35,33h1.587a2.028,2.028,0,0,0,2.007-2.459,10.152,10.152,0,0,0-1.1-2.714,2.059,2.059,0,0,0-3.234-.433l-1.122,1.121A1.648,1.648,0,0,1,40.072,28.861Z"/><path class="cls-15" d="M25.928,37.139a8.107,8.107,0,0,1-.883-2.172A1.622,1.622,0,0,1,26.65,33H25.063a2.028,2.028,0,0,0-2.007,2.459,10.152,10.152,0,0,0,1.1,2.714,2.059,2.059,0,0,0,3.234.433l1.122-1.122A1.648,1.648,0,0,1,25.928,37.139Z"/><path class="cls-16" d="M25.045,31.033a8.107,8.107,0,0,1,.883-2.172,1.648,1.648,0,0,1,2.588-.346l-1.122-1.121a2.059,2.059,0,0,0-3.234.433,10.152,10.152,0,0,0-1.1,2.714A2.028,2.028,0,0,0,25.063,33H26.65A1.622,1.622,0,0,1,25.045,31.033Z"/><path class="cls-17" d="M33,31.413a.406.406,0,0,0-.492-.4,2.066,2.066,0,0,0-.543.221.412.412,0,0,0-.086.647L33,33Z"/><path class="cls-18" d="M34.035,31.232a2.066,2.066,0,0,0-.543-.221.406.406,0,0,0-.492.4V33l1.121-1.121A.412.412,0,0,0,34.035,31.232Z"/><path class="cls-17" d="M33,34.587a.406.406,0,0,0,.492.4,2.066,2.066,0,0,0,.543-.221.412.412,0,0,0,.086-.647L33,33Z"/><path class="cls-18" d="M34.121,34.121h0a.412.412,0,0,0,.647-.086,2.066,2.066,0,0,0,.221-.543.406.406,0,0,0-.4-.492H33Z"/><path class="cls-18" d="M31.879,34.121a.412.412,0,0,0,.086.647,2.066,2.066,0,0,0,.543.221.406.406,0,0,0,.492-.4V33Z"/><path class="cls-17" d="M33,33h1.587a.406.406,0,0,0,.4-.492,2.066,2.066,0,0,0-.221-.543.412.412,0,0,0-.647-.086h0L33,33Z"/><path class="cls-17" d="M31.413,33a.406.406,0,0,0-.4.492,2.066,2.066,0,0,0,.221.543.412.412,0,0,0,.647.086L33,33Z"/><path class="cls-18" d="M33,33l-1.121-1.121a.412.412,0,0,0-.647.086,2.066,2.066,0,0,0-.221.543.406.406,0,0,0,.4.492Z"/><path class="cls-7" d="M19,33a14,14,0,0,1,9.93-13.394c-.02-.2-.059-.4-.088-.6A13.892,13.892,0,0,0,15.158,34.992a13.959,13.959,0,0,0,3.912-.6C19.025,33.936,19,33.471,19,33Z"/><path class="cls-19" d="M19,33a14.155,14.155,0,0,1,.165-2.041,14.656,14.656,0,0,1-3.489-.628c-.134-.041-.262-.095-.393-.14a13.451,13.451,0,0,0-.125,4.8,13.951,13.951,0,0,0,3.912-.6C19.025,33.932,19,33.469,19,33Z"/><path class="cls-20" d="M21.272,25.369a14.03,14.03,0,0,1,5.63-4.956c.011-.118.027-.235.037-.353.024-.3.041-.6.051-.9A13.889,13.889,0,0,0,21.6,21.134a19,19,0,0,1-.26,3.806C21.311,25.081,21.289,25.225,21.272,25.369Z"/><path class="cls-20" d="M19,26c1.105,0,2-1.791,2-4,0-.158-.014-.309-.023-.463a14.063,14.063,0,0,0-3.363,3.338C17.973,25.569,18.461,26,19,26Z"/><path class="cls-8" d="M25.285,30.476a13.946,13.946,0,0,0-.08-19.04A6.064,6.064,0,0,1,22,12a9.293,9.293,0,0,1-2.484-.242C18.714,12.87,17,13,15,13a12.494,12.494,0,0,1-2.8-.23A38.047,38.047,0,0,0,25.285,30.476Z"/><path class="cls-2" d="M15,15c2,0,3.714-.13,4.516-1.242A9.293,9.293,0,0,0,22,14a22.2,22.2,0,0,0,4.859-.411,14.2,14.2,0,0,0-1.654-2.153A6.064,6.064,0,0,1,22,12a9.293,9.293,0,0,1-2.484-.242C18.714,12.87,17,13,15,13a12.494,12.494,0,0,1-2.8-.23c.258.724.533,1.439.833,2.142A17.615,17.615,0,0,0,15,15Z"/><path class="cls-21" d="M21.61,15.98c-.242.081-.5.181-.584.414a1.034,1.034,0,0,0,.031.542,20.323,20.323,0,0,1,.278,8,2.8,2.8,0,0,0-.053,1.071,1.283,1.283,0,0,0,.718.921,1.306,1.306,0,0,0,.8.009,4.845,4.845,0,0,0,3.16-2.661,11.615,11.615,0,0,0,.978-4.22,10.836,10.836,0,0,0-.026-2.524,3.707,3.707,0,0,0-.691-1.76C24.921,14.12,22.849,15.566,21.61,15.98Z"/><path class="cls-21" d="M21,22c0-2.209-.895-4-2-4s-1.993,1.78-2,3.979a38.23,38.23,0,0,0,2.881,3.6A5.249,5.249,0,0,0,21,22Z"/><path class="cls-1" d="M19.887,8.956c.009.041.013.083.02.123C19.9,9.039,19.9,9,19.887,8.956Z"/><path class="cls-9" d="M15,11c2.4,0,4.4-.182,4.887-2.044A4.983,4.983,0,0,0,10.73,7.432c.208,1.049.464,2.079.756,3.094A9.1,9.1,0,0,0,15,11Z"/><path class="cls-5" d="M19.907,9.079A5,5,0,0,1,20,10,4.917,4.917,0,0,0,19.907,9.079Z"/><path class="cls-10" d="M20,10a5,5,0,0,0-.093-.921c-.007-.04-.011-.082-.02-.123h0C19.4,10.818,17.4,11,15,11a9.1,9.1,0,0,1-3.514-.474c.218.761.455,1.513.719,2.253A12.77,12.77,0,0,0,15,13C17.761,13,20,12.761,20,10Z"/><path class="cls-9" d="M22,6a4.109,4.109,0,0,0-2.887,1.165A4.969,4.969,0,0,1,20,10a2.918,2.918,0,0,1-.484,1.758A9.293,9.293,0,0,0,22,12c2.209,0,4-.179,4-2.25A3.881,3.881,0,0,0,22,6Z"/><path class="cls-10" d="M22,10a4.969,4.969,0,0,0-1.627-3.67,4.051,4.051,0,0,0-1.26.835A4.969,4.969,0,0,1,20,10a2.918,2.918,0,0,1-.484,1.758,7.463,7.463,0,0,0,1.808.232A2.727,2.727,0,0,0,22,10Z"/><path class="cls-22" d="M18.018,10.711a2.41,2.41,0,0,0,1.869-1.755,4.98,4.98,0,0,0-6.752-3.588A7,7,0,0,0,18.018,10.711Z"/><path class="cls-1" d="M19.887,8.956c.009.041.013.083.02.123C19.9,9.039,19.9,9,19.887,8.956Z"/><path class="cls-5" d="M19.907,9.079A5,5,0,0,1,20,10,4.917,4.917,0,0,0,19.907,9.079Z"/><path class="cls-23" d="M19.907,9.079c-.007-.04-.011-.082-.02-.123h0a2.41,2.41,0,0,1-1.869,1.755,7.02,7.02,0,0,0,1.857.283A3.707,3.707,0,0,0,20,10,5,5,0,0,0,19.907,9.079Z"/><path class="cls-22" d="M22,6a4.132,4.132,0,0,0-.984.129C21.1,8.27,23.276,9.985,25.971,10c.007-.086.029-.155.029-.248A3.881,3.881,0,0,0,22,6Z"/><path class="cls-5" d="M13,4.422v1A4.979,4.979,0,0,1,15,5V4A4.979,4.979,0,0,0,13,4.422Z"/><path class="cls-10" d="M15,5a4.979,4.979,0,0,1,2,.422v-1A4.979,4.979,0,0,0,15,4Z"/><path class="cls-22" d="M15,4a4.979,4.979,0,0,1,2,.422V1H15Z"/><path class="cls-9" d="M15,1H13V4.422A4.979,4.979,0,0,1,15,4Z"/><path class="cls-7" d="M26.9,20.4a13.821,13.821,0,0,1,2.027-.795c-.02-.2-.059-.4-.088-.6a13.976,13.976,0,0,0-1.853.158c-.01.3-.026.6-.05.894C26.929,20.174,26.914,20.287,26.9,20.4Z"/><path class="cls-7" d="M19.882,25.574c.253.278.517.546.778.816.189-.352.395-.694.613-1.027.017-.142.038-.283.062-.423a19.081,19.081,0,0,0,.26-3.8c-.208.13-.418.257-.618.4.009.153.023.3.023.461A5.249,5.249,0,0,1,19.882,25.574Z"/><path class="cls-20" d="M21.273,25.363a14.026,14.026,0,0,1,2.461-2.84l.02-.018A14.01,14.01,0,0,1,26.9,20.4c.011-.114.026-.227.036-.341.024-.3.04-.594.05-.894-.047.006-.093.015-.141.023-.41.063-.815.142-1.213.24-.077.019-.153.041-.23.062-.385.1-.764.218-1.134.351-.083.03-.164.061-.246.092-.362.138-.717.289-1.064.456-.078.037-.157.076-.234.115q-.524.262-1.021.567l-.111.069a19.081,19.081,0,0,1-.26,3.8C21.311,25.08,21.29,25.221,21.273,25.363Z"/><path class="cls-20" d="M18.419,23.857c.473.585.957,1.161,1.463,1.717A5.249,5.249,0,0,0,21,22c0-.158-.014-.308-.023-.461-.056.039-.107.083-.162.122A14.027,14.027,0,0,0,18.419,23.857Z"/><path class="cls-24" d="M33,20a12.988,12.988,0,0,0-11.595,7.145,37.854,37.854,0,0,0,23.641,10.73A12.989,12.989,0,0,0,33,20Z"/><path class="cls-14" d="M21.405,27.145a12.992,12.992,0,0,1,23.641,10.73c.345.026.688.059,1.036.077A13.994,13.994,0,0,0,20.659,26.39C20.905,26.644,21.152,26.9,21.405,27.145Z"/><path class="cls-3" d="M24.16,27.827a2.059,2.059,0,0,1,3.234-.433,2.059,2.059,0,0,1,.433-3.234,10.152,10.152,0,0,1,2.714-1.1A2.028,2.028,0,0,1,33,25.063a2.028,2.028,0,0,1,2.459-2.007,10.152,10.152,0,0,1,2.714,1.1,2.059,2.059,0,0,1,.433,3.234,2.059,2.059,0,0,1,3.234.433,10.152,10.152,0,0,1,1.1,2.714A2.028,2.028,0,0,1,40.937,33a2.028,2.028,0,0,1,2.007,2.459,10.136,10.136,0,0,1-.8,2.093c.355.054.714.094,1.071.139a11.126,11.126,0,0,0,.72-1.987A2.23,2.23,0,0,0,41.731,33a2.23,2.23,0,0,0,2.207-2.7,11.161,11.161,0,0,0-1.214-2.986,2.266,2.266,0,0,0-3.558-.475,2.266,2.266,0,0,0-.475-3.558A11.154,11.154,0,0,0,35.7,22.062,2.23,2.23,0,0,0,33,24.269a2.23,2.23,0,0,0-2.7-2.207,11.154,11.154,0,0,0-2.987,1.214,2.266,2.266,0,0,0-.475,3.558,2.266,2.266,0,0,0-3.558.475,11.109,11.109,0,0,0-.535,1.083c.263.234.528.465.8.691A10.107,10.107,0,0,1,24.16,27.827Z"/><path class="cls-25" d="M33,25.063a2.028,2.028,0,0,0-2.459-2.007,10.152,10.152,0,0,0-2.714,1.1,2.059,2.059,0,0,0-.433,3.234L33,33Z"/><path class="cls-26" d="M38.606,27.394a2.059,2.059,0,0,0-.433-3.234,10.152,10.152,0,0,0-2.714-1.1A2.028,2.028,0,0,0,33,25.063V33Z"/><path class="cls-25" d="M33,34.925c1.007.433,2.039.818,3.089,1.164L33,33Z"/><path class="cls-26" d="M36.089,36.089a37.854,37.854,0,0,0,6.058,1.463,10.136,10.136,0,0,0,.8-2.093A2.028,2.028,0,0,0,40.937,33H33Z"/><path class="cls-12" d="M31.674,34.326q.655.312,1.326.6V33Z"/><path class="cls-25" d="M33,33h7.937a2.028,2.028,0,0,0,2.007-2.459,10.152,10.152,0,0,0-1.1-2.714,2.059,2.059,0,0,0-3.234-.433L33,33Z"/><path class="cls-25" d="M29.154,33c.822.47,1.66.917,2.52,1.326L33,33Z"/><path class="cls-26" d="M33,33h0l-5.606-5.606a2.059,2.059,0,0,0-3.234.433,10.107,10.107,0,0,0-.621,1.256A38.024,38.024,0,0,0,29.154,33Z"/><path class="cls-26" d="M28.861,25.928a8.107,8.107,0,0,1,2.172-.883A1.622,1.622,0,0,1,33,26.65V25.063a2.028,2.028,0,0,0-2.459-2.007,10.152,10.152,0,0,0-2.714,1.1,2.059,2.059,0,0,0-.433,3.234l1.122,1.121A1.647,1.647,0,0,1,28.861,25.928Z"/><path class="cls-25" d="M34.967,25.045a8.107,8.107,0,0,1,2.172.883,1.647,1.647,0,0,1,.345,2.587l1.122-1.121a2.059,2.059,0,0,0-.433-3.234,10.152,10.152,0,0,0-2.714-1.1A2.028,2.028,0,0,0,33,25.063V26.65A1.622,1.622,0,0,1,34.967,25.045Z"/><path class="cls-25" d="M40.955,34.967a8.107,8.107,0,0,1-.883,2.172c-.005.009-.013.015-.019.024.692.147,1.389.28,2.094.389a10.136,10.136,0,0,0,.8-2.093A2.028,2.028,0,0,0,40.937,33H39.35A1.622,1.622,0,0,1,40.955,34.967Z"/><path class="cls-26" d="M40.072,28.861a8.107,8.107,0,0,1,.883,2.172A1.622,1.622,0,0,1,39.35,33h1.587a2.028,2.028,0,0,0,2.007-2.459,10.152,10.152,0,0,0-1.1-2.714,2.059,2.059,0,0,0-3.234-.433l-1.122,1.121A1.648,1.648,0,0,1,40.072,28.861Z"/><path class="cls-25" d="M25.928,28.861a1.648,1.648,0,0,1,2.588-.346l-1.122-1.121a2.059,2.059,0,0,0-3.234.433,10.107,10.107,0,0,0-.621,1.256c.554.467,1.118.923,1.7,1.358A8.17,8.17,0,0,1,25.928,28.861Z"/><path class="cls-27" d="M33,31.413a.406.406,0,0,0-.492-.4,2.066,2.066,0,0,0-.543.221.412.412,0,0,0-.086.647L33,33Z"/><path class="cls-16" d="M34.121,31.879a.412.412,0,0,0-.086-.647,2.066,2.066,0,0,0-.543-.221.406.406,0,0,0-.492.4V33Z"/><path class="cls-27" d="M33,34.587a.406.406,0,0,0,.492.4,2.066,2.066,0,0,0,.543-.221.412.412,0,0,0,.086-.647L33,33Z"/><path class="cls-16" d="M34.121,34.121h0a.412.412,0,0,0,.647-.086,2.066,2.066,0,0,0,.221-.543.406.406,0,0,0-.4-.492H33Z"/><path class="cls-16" d="M33,34.587V33l-1.121,1.121a.393.393,0,0,0-.108.249q.549.26,1.108.5A.409.409,0,0,0,33,34.587Z"/><path class="cls-27" d="M33,33h1.587a.406.406,0,0,0,.4-.492,2.066,2.066,0,0,0-.221-.543.412.412,0,0,0-.647-.086h0L33,33Z"/><path class="cls-27" d="M31.413,33a.406.406,0,0,0-.4.492,2.066,2.066,0,0,0,.221.543.412.412,0,0,0,.647.086L33,33Z"/><path class="cls-16" d="M33,33l-1.121-1.121a.412.412,0,0,0-.647.086,2.066,2.066,0,0,0-.221.543.406.406,0,0,0,.4.492Z"/><ellipse class="cls-28" cx="25" cy="16" rx="1.65" ry="2.297" transform="translate(-3.989 22.374) rotate(-45.02)"/><ellipse class="cls-28" cx="23" cy="18" rx="0.825" ry="1.148" transform="translate(-5.99 21.545) rotate(-45.02)"/><ellipse class="cls-28" cx="18" cy="8" rx="0.825" ry="1.148" transform="translate(-0.382 15.077) rotate(-45.02)"/><ellipse class="cls-28" cx="23.746" cy="7.5" rx="0.413" ry="0.574" transform="translate(1.655 18.995) rotate(-45.02)"/><ellipse class="cls-28" cx="40.746" cy="25.5" rx="0.413" ry="0.574" transform="translate(-6.093 36.297) rotate(-45.02)"/><path class="cls-29" d="M46.421,29a14.005,14.005,0,1,0,.437,2"/><path class="cls-29" d="M33,33h7.937a2.028,2.028,0,0,0,2.007-2.459,10.152,10.152,0,0,0-1.1-2.714,2.059,2.059,0,0,0-3.234-.433L33,33Z"/><path class="cls-29" d="M30.541,23.056a10.152,10.152,0,0,0-2.714,1.1,2.059,2.059,0,0,0-.433,3.234L33,33V25.063A2.028,2.028,0,0,0,30.541,23.056Z"/><polygon class="cls-29" points="33 33 33 33 33 33 33 33"/><polygon class="cls-29" points="33 33 33 33 33 33 33 33"/><path class="cls-29" d="M38.173,24.16a10.152,10.152,0,0,0-2.714-1.1A2.028,2.028,0,0,0,33,25.063V33l5.606-5.606A2.059,2.059,0,0,0,38.173,24.16Z"/><path class="cls-29" d="M33,33v7.937a2.028,2.028,0,0,0,2.459,2.007,10.152,10.152,0,0,0,2.714-1.1,2.059,2.059,0,0,0,.433-3.234L33,33Z"/><path class="cls-29" d="M33,33l5.606,5.606a2.059,2.059,0,0,0,3.234-.433,10.152,10.152,0,0,0,1.1-2.714A2.028,2.028,0,0,0,40.937,33Z"/><path class="cls-29" d="M33,33l-5.606,5.606a2.059,2.059,0,0,0,.433,3.234,10.152,10.152,0,0,0,2.714,1.1A2.028,2.028,0,0,0,33,40.937V33Z"/><path class="cls-29" d="M23.056,35.459a10.152,10.152,0,0,0,1.1,2.714,2.059,2.059,0,0,0,3.234.433L33,33H25.063A2.028,2.028,0,0,0,23.056,35.459Z"/><path class="cls-29" d="M33,33l-5.606-5.606a2.059,2.059,0,0,0-3.234.433,10.152,10.152,0,0,0-1.1,2.714A2.028,2.028,0,0,0,25.063,33Z"/><path class="cls-29" d="M5,11.2A14,14,0,0,0,15,35"/><path class="cls-29" d="M28.42,17A13.979,13.979,0,0,0,25,11.2"/><path class="cls-29" d="M20,10a5,5,0,0,0-10,0c0,2.761,2.239,3,5,3S20,12.761,20,10Z"/><path class="cls-29" d="M11,7.27A4.109,4.109,0,0,0,8,6,3.881,3.881,0,0,0,4,9.75C4,11.821,5.791,12,8,12a7.011,7.011,0,0,0,3-.428"/><path class="cls-29" d="M19,11.572A7.015,7.015,0,0,0,22,12c2.209,0,4-.179,4-2.25A3.881,3.881,0,0,0,22,6a4.107,4.107,0,0,0-3,1.27"/><polyline class="cls-29" points="13 6 13 1 17 1 17 6"/><path class="cls-29" d="M24.906,18C24.573,16.274,23.4,15,22,15"/></g></svg>