<svg xmlns="http://www.w3.org/2000/svg" viewBox="0 0 48 48"><defs><style>.cls-1{fill:#f84634;}.cls-2{fill:#745a00;}.cls-3{fill:#63b300;}.cls-4{fill:#b31700;}.cls-5{fill:#f75749;}.cls-6{fill:#ffc501;}.cls-7{fill:#ff7f00;}.cls-8{fill:#4f4600;}.cls-9{fill:#fda893;}.cls-10{fill:#961300;}.cls-11{fill:#589e00;}.cls-12{fill:#de3f2e;}.cls-13{fill:#e86300;}.cls-14{fill:#977b00;}.cls-15{fill:#807d00;}.cls-16{fill:#9e9b00;}.cls-17{fill:#da1202;}.cls-18{fill:#fdf48b;}.cls-19{fill:#ff8269;}.cls-20{fill:#ffd3c9;}.cls-21{fill:#9cdf00;}.cls-22{fill:#ffaf12;}.cls-23{fill:#f8695b;}.cls-24{fill:#b39500;}.cls-25{fill:#b1ad00;}.cls-26{fill:#fdfdd7;}.cls-27{fill:#f6fafd;}.cls-28{fill:none;stroke:#001a1f;stroke-linejoin:round;stroke-width:2px;}</style></defs><title>10-nectarine</title><g id="_10-nectarine" data-name="10-nectarine"><path class="cls-1" d="M18,11V8a4.237,4.237,0,0,1,1-2.66A6.555,6.555,0,0,1,24,3c5.53,0,11,6.81,11,14,0,12.16-6.37,22-13,22-2.21,0-3-1-4-2-1,1-1.79,2-4,2C7.37,39,1,29.16,1,17,1,9.81,6.47,4,12,4h3.43a25.135,25.135,0,0,0-.42,4.42C17,9.04,18,10.22,18,11Z"/><path class="cls-2" d="M19,1V5.34A4.237,4.237,0,0,0,18,8v3c0-.78-1-1.96-2.99-2.58A25.135,25.135,0,0,1,15.43,4c.37-1.83.94-3,1.57-3Z"/><path class="cls-3" d="M26,1a8.2,8.2,0,0,1-8,8A8.23,8.23,0,0,1,26,1Z"/><path class="cls-4" d="M28,16v3.19C28,17.43,26.21,16,24,16Z"/><path class="cls-4" d="M32,16h4c-2.21,0-4,1.43-4,3.19Z"/><path class="cls-2" d="M32,19.19v2.14a6.226,6.226,0,0,0-4,0V13h4v6.19Z"/><path class="cls-5" d="M32,21.33a6.362,6.362,0,0,1,1.99,1.13c-.2,6.38-4.53,11.48-9.89,11.54A8.056,8.056,0,0,1,23,30c3.87,0,7-4.03,7-9A6.037,6.037,0,0,1,32,21.33Z"/><path class="cls-4" d="M28,21.33A6.037,6.037,0,0,1,30,21c0,4.97-3.13,9-7,9C23,25.47,25.11,22.32,28,21.33Z"/><path class="cls-4" d="M33.99,22.46C35.81,23.97,37,26.6,37,30c0,5.52-6,9-7,9-.73,0-4.12-1.85-5.9-5C29.46,33.94,33.79,28.84,33.99,22.46Z"/><path class="cls-6" d="M33.99,22.46A6.362,6.362,0,0,0,32,21.33V19.19C32,17.43,33.79,16,36,16c5.53,0,11,5.48,11,12.26C47,39.72,40.63,47,34,47a4.942,4.942,0,0,1-4-1.89A4.942,4.942,0,0,1,26,47c-6.63,0-13-7.28-13-18.74C13,21.48,18.47,16,24,16c2.21,0,4,1.43,4,3.19v2.14c-2.89.99-5,4.14-5,8.67a8.056,8.056,0,0,0,1.1,4c1.78,3.15,5.17,5,5.9,5,1,0,7-3.48,7-9C37,26.6,35.81,23.97,33.99,22.46Z"/><path class="cls-1" d="M18,11V8a4.237,4.237,0,0,1,1-2.66A6.555,6.555,0,0,1,24,3c5.53,0,11,6.81,11,14,0,12.16-6.37,22-13,22-2.21,0-3-1-4-2-1,1-1.79,2-4,2C7.37,39,1,29.16,1,17,1,9.81,6.47,4,12,4h3.43a25.135,25.135,0,0,0-.42,4.42C17,9.04,18,10.22,18,11Z"/><path class="cls-7" d="M24,3a6.555,6.555,0,0,0-5,2.34A4.237,4.237,0,0,0,18,8V9.34A6.555,6.555,0,0,1,23,7c5.53,0,11,6.81,11,14a33.9,33.9,0,0,1-.547,6.076A32.932,32.932,0,0,0,35,17C35,9.81,29.53,3,24,3Z"/><path class="cls-2" d="M19,1V5.34A4.237,4.237,0,0,0,18,8v3c0-.78-1-1.96-2.99-2.58A25.135,25.135,0,0,1,15.43,4c.37-1.83.94-3,1.57-3Z"/><path class="cls-8" d="M16.058,8.848C17.343,9.493,18,10.373,18,11V8a4.237,4.237,0,0,1,1-2.66V1H17.755C16.891,2.447,16.248,5.342,16.058,8.848Z"/><path class="cls-4" d="M34.859,15.089C33.9,25.783,28.058,34,22,34c-2.21,0-3-1-4-2-1,1-1.79,2-4,2-3.716,0-7.342-3.1-9.816-7.961A11.105,11.105,0,0,1,3,21H3A13.537,13.537,0,0,1,9.753,9.142a3,3,0,0,1,4.044,1.3A50.814,50.814,0,0,1,18,24V11c0-.78-1-1.96-2.99-2.58,0-.144.01-.279.014-.421h0a24.846,24.846,0,0,1,.406-4H12C6.741,4,1.546,9.258,1.049,15.957,1.02,16.3,1,16.648,1,17q0,1.157.076,2.282l0,.048q.073,1.1.216,2.172l.01.063q.143,1.062.347,2.083l.013.061q.207,1.021.472,2l.013.046q.269.981.59,1.911l.01.027q.326.938.7,1.816l0,.008C5.914,35.246,9.907,39,14,39c2.21,0,3-1,4-2,1,1,1.79,2,4,2,6.63,0,13-9.84,13-22A14.672,14.672,0,0,0,34.859,15.089Z"/><ellipse class="cls-7" cx="11" cy="15" rx="3" ry="5"/><path class="cls-9" d="M22,9.883a1.134,1.134,0,0,0,.06.312c.278.843,1.289,1.415,1.844,2.046a12.068,12.068,0,0,1,2.88,6.26,1.87,1.87,0,0,0,.554,1.36,1.069,1.069,0,0,0,1.313-.234,3.113,3.113,0,0,0,.658-1.312,11.06,11.06,0,0,0,.5-5.617,6.75,6.75,0,0,0-3.18-4.292,3.157,3.157,0,0,0-3.256.1C22.77,8.834,21.976,9.173,22,9.883Z"/><rect class="cls-7" x="18" y="9" width="2" height="4" rx="1" ry="1"/><path class="cls-10" d="M15.019,8.155c0-.051,0-.1,0-.156h0a24.846,24.846,0,0,1,.406-4H12a8.161,8.161,0,0,0-1.608.175A6.992,6.992,0,0,0,15.019,8.155Z"/><path class="cls-11" d="M26,1,18,9A8.2,8.2,0,0,0,26,1Z"/><path class="cls-3" d="M18,9l8-8A8.23,8.23,0,0,0,18,9Z"/><path class="cls-4" d="M28,16v3.19C28,17.43,26.21,16,24,16Z"/><path class="cls-4" d="M32,16h4c-2.21,0-4,1.43-4,3.19Z"/><path class="cls-5" d="M32,21.33a6.362,6.362,0,0,1,1.99,1.13c-.2,6.38-4.53,11.48-9.89,11.54A8.056,8.056,0,0,1,23,30c3.87,0,7-4.03,7-9A6.037,6.037,0,0,1,32,21.33Z"/><path class="cls-4" d="M28,21.33A6.037,6.037,0,0,1,30,21c0,4.97-3.13,9-7,9C23,25.47,25.11,22.32,28,21.33Z"/><path class="cls-12" d="M33.99,22.46C35.81,23.97,37,26.6,37,30c0,5.52-6,9-7,9-.73,0-4.12-1.85-5.9-5C29.46,33.94,33.79,28.84,33.99,22.46Z"/><path class="cls-6" d="M33.99,22.46A6.362,6.362,0,0,0,32,21.33V19.19C32,17.43,33.79,16,36,16c5.53,0,11,5.48,11,12.26C47,39.72,40.63,47,34,47a4.942,4.942,0,0,1-4-1.89A4.942,4.942,0,0,1,26,47c-6.63,0-13-7.28-13-18.74C13,21.48,18.47,16,24,16c2.21,0,4,1.43,4,3.19v2.14c-2.89.99-5,4.14-5,8.67a8.056,8.056,0,0,0,1.1,4c1.78,3.15,5.17,5,5.9,5,1,0,7-3.48,7-9C37,26.6,35.81,23.97,33.99,22.46Z"/><path class="cls-13" d="M36,16c-2.1,0-3.8,1.3-3.968,2.934A3.783,3.783,0,0,1,35.824,16.5c5.367,0,10.676,5.3,10.676,11.865,0,11.09-6.183,18.135-12.618,18.135A4.8,4.8,0,0,1,30,44.671,4.8,4.8,0,0,1,26.118,46.5C19.683,46.5,13.5,39.455,13.5,28.365,13.5,21.8,18.809,16.5,24.176,16.5a3.783,3.783,0,0,1,3.792,2.434C27.8,17.3,26.1,16,24,16c-5.53,0-11,5.48-11,12.26C13,39.72,19.37,47,26,47a4.942,4.942,0,0,0,4-1.89A4.942,4.942,0,0,0,34,47c6.63,0,13-7.28,13-18.74C47,21.48,41.53,16,36,16Z"/><path class="cls-7" d="M34.56,21.622a7.321,7.321,0,0,0-2.274-1.255,7.3,7.3,0,0,0-4.572,0C24.411,21.467,22,24.967,22,30a8.761,8.761,0,0,0,1.257,4.444C25.291,37.944,29.166,40,30,40c1.143,0,8-3.867,8-10C38,26.222,36.64,23.3,34.56,21.622ZM30,39c-.73,0-4.12-1.85-5.9-5A8.056,8.056,0,0,1,23,30c0-4.53,2.11-7.68,5-8.67a6.226,6.226,0,0,1,4,0,6.362,6.362,0,0,1,1.99,1.13C35.81,23.97,37,26.6,37,30,37,35.52,31,39,30,39Z"/><path class="cls-2" d="M32,19.19v2.14a6.226,6.226,0,0,0-4,0V13h4v6.19Z"/><polygon class="cls-14" points="32 19 32 16 32 13 30 13 30 19 32 19"/><path class="cls-15" d="M28,19v2.33A6.037,6.037,0,0,1,30,21V19Z"/><path class="cls-16" d="M30,19v2a6.037,6.037,0,0,1,2,.33V19Z"/><path class="cls-4" d="M26.476,36.892A8.394,8.394,0,0,0,30,39c1,0,7-3.48,7-9a12.621,12.621,0,0,0-.345-2.949A12.373,12.373,0,0,1,26.476,36.892Z"/><path class="cls-12" d="M26.6,31.5a8.55,8.55,0,0,1-.87-2.21A5.67,5.67,0,0,1,23,30a8.056,8.056,0,0,0,1.1,4,8.535,8.535,0,0,0,3.641-.871A10.645,10.645,0,0,1,26.6,31.5Z"/><path class="cls-10" d="M25.5,27.5a10.9,10.9,0,0,1,1.43-5.681C24.6,23.154,23,26.052,23,30a5.67,5.67,0,0,0,2.73-.71A7.584,7.584,0,0,1,25.5,27.5Z"/><path class="cls-17" d="M27.741,33.129A8.535,8.535,0,0,1,24.1,34a11.56,11.56,0,0,0,2.376,2.892,11.259,11.259,0,0,0,4-1.341A13.073,13.073,0,0,1,27.741,33.129Z"/><path class="cls-10" d="M30.476,35.551a11.259,11.259,0,0,1-4,1.341A8.394,8.394,0,0,0,30,39c.641,0,3.332-1.436,5.184-3.916A6.772,6.772,0,0,1,32.5,36.5,5.321,5.321,0,0,1,30.476,35.551Z"/><path class="cls-4" d="M24,16H20a8.79,8.79,0,0,0-2,.238v1.927A10.014,10.014,0,0,1,24,16Z"/><path class="cls-4" d="M13,28.26a12.782,12.782,0,0,1,3.95-9.188c-.185-.715-.4-1.475-.637-2.263A12.626,12.626,0,0,0,9,28.26a28.563,28.563,0,0,0,.286,4.087,8.312,8.312,0,0,0,4.3,1.631A27.646,27.646,0,0,1,13,28.26Z"/><path class="cls-10" d="M18,18.165V16.238a9.947,9.947,0,0,0-1.687.571c.24.788.452,1.548.637,2.263A12.266,12.266,0,0,1,18,18.165Z"/><path class="cls-10" d="M9.286,32.347a23.14,23.14,0,0,0,1.676,5.972c.023.011.047.018.07.029.2.089.408.168.614.24.072.025.144.046.216.068q.242.077.484.136c.08.02.161.038.242.055.163.034.326.061.49.083.073.01.145.022.218.03A6.905,6.905,0,0,0,14,39a5.438,5.438,0,0,0,1.207-.131,22.094,22.094,0,0,1-1.624-4.891A8.312,8.312,0,0,1,9.286,32.347Z"/><ellipse class="cls-7" cx="40" cy="29" rx="0.825" ry="1.148" transform="translate(-8.788 36.795) rotate(-45.02)"/><ellipse class="cls-18" cx="41" cy="38" rx="0.825" ry="1.148" transform="translate(-14.861 40.141) rotate(-45.02)"/><ellipse class="cls-18" cx="38" cy="39" rx="0.825" ry="1.148" transform="translate(-16.447 38.312) rotate(-45.02)"/><ellipse class="cls-18" cx="39" cy="32" rx="0.825" ry="1.148" transform="translate(-11.203 36.967) rotate(-45.02)"/><ellipse class="cls-7" cx="37.746" cy="34.5" rx="0.413" ry="0.574" transform="translate(-13.339 36.813) rotate(-45.02)"/><ellipse class="cls-18" cx="38.746" cy="36.5" rx="0.413" ry="0.574" transform="translate(-14.461 38.106) rotate(-45.02)"/><ellipse class="cls-7" cx="33.746" cy="39.5" rx="0.413" ry="0.574" transform="translate(-18.048 35.449) rotate(-45.02)"/><ellipse class="cls-7" cx="36.746" cy="40.5" rx="0.413" ry="0.574" transform="translate(-17.876 37.864) rotate(-45.02)"/><ellipse class="cls-7" cx="36.746" cy="36.5" rx="0.413" ry="0.574" transform="translate(-15.047 36.692) rotate(-45.02)"/><ellipse class="cls-18" cx="35.746" cy="37.5" rx="0.413" ry="0.574" transform="translate(-16.047 36.278) rotate(-45.02)"/><ellipse class="cls-18" cx="33.746" cy="41.5" rx="0.413" ry="0.574" transform="translate(-19.463 36.035) rotate(-45.02)"/><ellipse class="cls-7" cx="38.746" cy="24.5" rx="0.413" ry="0.574" transform="translate(-5.972 34.589) rotate(-45.02)"/><ellipse class="cls-7" cx="40.746" cy="34.5" rx="0.413" ry="0.574" transform="translate(-12.46 38.935) rotate(-45.02)"/><ellipse class="cls-7" cx="40.746" cy="27.5" rx="0.413" ry="0.574" transform="translate(-7.508 36.883) rotate(-45.02)"/><ellipse class="cls-18" cx="41.094" cy="32.161" rx="0.413" ry="0.574" transform="translate(-10.703 38.496) rotate(-45.02)"/><ellipse class="cls-7" cx="20.246" cy="29" rx="1.148" ry="0.825" transform="translate(-14.574 22.798) rotate(-44.98)"/><ellipse class="cls-18" cx="19.246" cy="38" rx="1.148" ry="0.825" transform="translate(-21.229 24.725) rotate(-44.98)"/><ellipse class="cls-18" cx="22.246" cy="39" rx="1.148" ry="0.825" transform="translate(-21.057 27.138) rotate(-44.98)"/><ellipse class="cls-7" cx="21.246" cy="32" rx="1.148" ry="0.825" transform="translate(-16.402 24.383) rotate(-44.98)"/><ellipse class="cls-7" cx="22.5" cy="34.5" rx="0.574" ry="0.413" transform="translate(-17.802 26.001) rotate(-44.98)"/><ellipse class="cls-18" cx="21.5" cy="36.5" rx="0.574" ry="0.413" transform="translate(-19.509 25.879) rotate(-44.98)"/><ellipse class="cls-18" cx="26.5" cy="39.5" rx="0.574" ry="0.413" transform="translate(-20.166 30.292) rotate(-44.98)"/><ellipse class="cls-7" cx="23.5" cy="40.5" rx="0.574" ry="0.413" transform="translate(-21.751 28.464) rotate(-44.98)"/><ellipse class="cls-18" cx="23.5" cy="36.5" rx="0.574" ry="0.413" transform="translate(-18.923 27.293) rotate(-44.98)"/><ellipse class="cls-7" cx="24.5" cy="37.5" rx="0.574" ry="0.413" transform="translate(-19.338 28.293) rotate(-44.98)"/><ellipse class="cls-18" cx="26.5" cy="41.5" rx="0.574" ry="0.413" transform="translate(-21.58 30.877) rotate(-44.98)"/><ellipse class="cls-7" cx="21.5" cy="24.5" rx="0.574" ry="0.413" transform="translate(-11.026 22.368) rotate(-44.98)"/><ellipse class="cls-7" cx="19.5" cy="34.5" rx="0.574" ry="0.413" transform="translate(-18.68 23.88) rotate(-44.98)"/><ellipse class="cls-18" cx="19.5" cy="27.5" rx="0.574" ry="0.413" transform="translate(-13.732 21.832) rotate(-44.98)"/><ellipse class="cls-18" cx="19.152" cy="32.161" rx="0.574" ry="0.413" transform="translate(-17.129 22.95) rotate(-44.98)"/><path class="cls-19" d="M14,15a7.911,7.911,0,0,1-.178,1.634c.2.413.411.819.626,1.223a11.094,11.094,0,0,1,1.865-1.048h0A38,38,0,0,0,13.8,10.438a3.028,3.028,0,0,0-2.761-1.626q.149.629.317,1.247C12.842,10.354,14,12.44,14,15Z"/><path class="cls-19" d="M20,16h4a10.014,10.014,0,0,0-6,2.165v5.158a38.116,38.116,0,0,0,9.32,8.559c3.829-3.105,6.868-9.343,7.539-16.793C34.008,8.65,29.036,3,24,3a6.555,6.555,0,0,0-5,2.34A4.237,4.237,0,0,0,18,8v8.238A8.79,8.79,0,0,1,20,16Z"/><path class="cls-1" d="M27.32,31.882q1.441.936,2.967,1.744A29.634,29.634,0,0,0,35,17c0-.352-.024-.7-.049-1.051-.024-.287-.055-.574-.092-.859h0C34.188,22.539,31.149,28.777,27.32,31.882Z"/><path class="cls-1" d="M11.036,8.812A3.028,3.028,0,0,1,13.8,10.438a38,38,0,0,1,2.516,6.371A9.947,9.947,0,0,1,18,16.238V11c0-.78-1-1.96-2.99-2.58,0-.144.01-.279.014-.42h0V8c.02-.749.065-1.465.135-2.133l.009-.072c.033-.3.068-.6.109-.885.046-.317.1-.621.153-.908H12a8.142,8.142,0,0,0-1.01.065c-.117.015-.232.044-.348.064-.135.023-.271.048-.406.078A38.144,38.144,0,0,0,11.036,8.812Z"/><path class="cls-6" d="M11.353,10.059a37.752,37.752,0,0,0,2.469,6.575A7.911,7.911,0,0,0,14,15C14,12.44,12.842,10.354,11.353,10.059Z"/><path class="cls-6" d="M24,3a6.555,6.555,0,0,0-5,2.34A4.237,4.237,0,0,0,18,8V9.34A6.555,6.555,0,0,1,23,7c5.53,0,11,6.81,11,14a33.9,33.9,0,0,1-.547,6.076A32.932,32.932,0,0,0,35,17C35,9.81,29.53,3,24,3Z"/><path class="cls-20" d="M22,9.883a1.134,1.134,0,0,0,.06.312c.278.843,1.289,1.415,1.844,2.046a12.068,12.068,0,0,1,2.88,6.26,1.87,1.87,0,0,0,.554,1.36,1.069,1.069,0,0,0,1.313-.234,3.113,3.113,0,0,0,.658-1.312,11.06,11.06,0,0,0,.5-5.617,6.75,6.75,0,0,0-3.18-4.292,3.157,3.157,0,0,0-3.256.1C22.77,8.834,21.976,9.173,22,9.883Z"/><rect class="cls-6" x="18" y="9" width="2" height="4" rx="1" ry="1"/><path class="cls-12" d="M15.019,8.155c0-.051,0-.1,0-.156h0a24.846,24.846,0,0,1,.406-4H12a8.161,8.161,0,0,0-1.608.175A6.992,6.992,0,0,0,15.019,8.155Z"/><path class="cls-3" d="M26,1,18,9A8.2,8.2,0,0,0,26,1Z"/><path class="cls-21" d="M18,9l8-8A8.23,8.23,0,0,0,18,9Z"/><path class="cls-14" d="M19,1V5.34A4.237,4.237,0,0,0,18,8v3c0-.78-1-1.96-2.99-2.58A25.135,25.135,0,0,1,15.43,4c.37-1.83.94-3,1.57-3Z"/><path class="cls-2" d="M16.058,8.848C17.343,9.493,18,10.373,18,11V8a4.237,4.237,0,0,1,1-2.66V1H17.755C16.891,2.447,16.248,5.342,16.058,8.848Z"/><path class="cls-22" d="M28,21.33a6.226,6.226,0,0,1,4,0,6.362,6.362,0,0,1,1.99,1.13C35.81,23.97,37,26.6,37,30a8.727,8.727,0,0,1-2.249,5.627c.31.115.624.219.938.326A9.4,9.4,0,0,0,38,30c0-3.778-1.36-6.7-3.44-8.378a7.321,7.321,0,0,0-2.274-1.255,7.3,7.3,0,0,0-4.572,0c-2.812.936-4.963,3.625-5.544,7.507.3.276.6.544.908.81C23.448,24.868,25.4,22.22,28,21.33Z"/><path class="cls-1" d="M26.535,31.365a8.552,8.552,0,0,1-.8-2.075h0a5.865,5.865,0,0,1-1.3.52C25.117,30.35,25.816,30.872,26.535,31.365Z"/><path class="cls-19" d="M25.73,29.29h0a8.552,8.552,0,0,0,.8,2.075q1,.684,2.042,1.3A12.356,12.356,0,0,0,33.99,22.46,6.362,6.362,0,0,0,32,21.33,6.037,6.037,0,0,0,30,21C30,24.725,28.241,27.923,25.73,29.29Z"/><path class="cls-1" d="M25.5,27.5a7.584,7.584,0,0,0,.23,1.79C28.241,27.923,30,24.725,30,21a6.037,6.037,0,0,0-2,.33,6.173,6.173,0,0,0-1.073.49h0A10.9,10.9,0,0,0,25.5,27.5Z"/><path class="cls-23" d="M28.577,32.669A37.805,37.805,0,0,0,32.054,34.5a13.087,13.087,0,0,0,4.6-7.447A8.4,8.4,0,0,0,33.99,22.46,12.356,12.356,0,0,1,28.577,32.669Z"/><path class="cls-18" d="M24.176,16.5a10.52,10.52,0,0,0-8.013,4.25,38.1,38.1,0,0,0,6.007,7.124c.581-3.882,2.732-6.571,5.544-7.507.093-.032.192-.044.286-.071V19.19c0-.088-.024-.17-.032-.256A3.783,3.783,0,0,0,24.176,16.5Z"/><path class="cls-18" d="M34.56,21.622C36.64,23.3,38,26.222,38,30a9.4,9.4,0,0,1-2.311,5.953c.2.07.405.14.609.206a.3.3,0,0,1,.145-.132.634.634,0,0,1,.7.313.575.575,0,0,1,.041.092c.425.126.85.252,1.282.364a.8.8,0,0,1-.118-.135c-.167-.262-.125-.546.095-.634a.634.634,0,0,1,.7.313.418.418,0,0,1-.052.6c.37.088.739.178,1.112.256a.59.59,0,0,1,.191-.145,1.175,1.175,0,0,1,1.2.4q1.535.26,3.108.395A24.39,24.39,0,0,0,46.5,28.365C46.5,21.8,41.191,16.5,35.824,16.5a3.783,3.783,0,0,0-3.792,2.434c-.008.086-.032.168-.032.256V20.3c.094.027.193.039.286.071A7.321,7.321,0,0,1,34.56,21.622Z"/><path class="cls-22" d="M35.824,16.5c5.367,0,10.676,5.3,10.676,11.865a24.39,24.39,0,0,1-1.793,9.484c.174.015.348.027.522.04A25.4,25.4,0,0,0,47,28.26C47,21.48,41.53,16,36,16a5.04,5.04,0,0,0-.785.063c-.11.018-.212.051-.319.075-.136.032-.275.058-.405.1a4.35,4.35,0,0,0-.415.171c-.078.034-.16.063-.235.1a4.126,4.126,0,0,0-.457.284c-.035.025-.074.046-.108.071a3.6,3.6,0,0,0-.448.4l-.025.024a2.855,2.855,0,0,0-.771,1.643h0A3.783,3.783,0,0,1,35.824,16.5Z"/><path class="cls-22" d="M24.176,16.5a3.783,3.783,0,0,1,3.792,2.434h0a2.855,2.855,0,0,0-.771-1.643l-.025-.024a3.6,3.6,0,0,0-.448-.4c-.034-.025-.073-.046-.108-.071a4.126,4.126,0,0,0-.457-.284c-.075-.038-.157-.067-.235-.1a4.35,4.35,0,0,0-.415-.171c-.13-.043-.269-.069-.405-.1-.107-.024-.209-.057-.319-.075A5.04,5.04,0,0,0,24,16a10.784,10.784,0,0,0-8.148,4.265c.1.162.206.325.311.485A10.52,10.52,0,0,1,24.176,16.5Z"/><path class="cls-1" d="M32.054,34.5q1.218.563,2.48,1.043c.211-.14.428-.289.65-.457-.141.189-.295.361-.445.538l.012.005A8.727,8.727,0,0,0,37,30a12.865,12.865,0,0,0-.088-1.483c-.006-.051-.015-.1-.021-.149a12.612,12.612,0,0,0-.236-1.317h0A13.087,13.087,0,0,1,32.054,34.5Z"/><path class="cls-5" d="M28,16v3.19C28,17.43,26.21,16,24,16Z"/><path class="cls-5" d="M32,16h4c-2.21,0-4,1.43-4,3.19Z"/><path class="cls-14" d="M32,19.19v2.14a6.226,6.226,0,0,0-4,0V13h4v6.19Z"/><polygon class="cls-24" points="32 19 32 16 32 13 30 13 30 19 32 19"/><path class="cls-16" d="M28,19v2.33A6.037,6.037,0,0,1,30,21V19Z"/><path class="cls-25" d="M30,19v2a6.037,6.037,0,0,1,2,.33V19Z"/><path class="cls-22" d="M39.205,29.321a1.271,1.271,0,0,0,1.4.626c.44-.177.524-.745.189-1.268a1.271,1.271,0,0,0-1.4-.626C38.954,28.23,38.87,28.8,39.205,29.321Z"/><path class="cls-26" d="M40.394,37.053a.59.59,0,0,0-.191.145c.462.1.929.177,1.4.256A1.175,1.175,0,0,0,40.394,37.053Z"/><path class="cls-26" d="M39.606,32.947c.44-.177.524-.745.189-1.268a1.271,1.271,0,0,0-1.4-.626c-.44.177-.524.745-.189,1.268A1.271,1.271,0,0,0,39.606,32.947Z"/><path class="cls-22" d="M37.443,34.027c-.22.088-.262.372-.095.634a.638.638,0,0,0,.7.313c.22-.089.262-.373.094-.634A.634.634,0,0,0,37.443,34.027Z"/><path class="cls-26" d="M39.143,36.34a.634.634,0,0,0-.7-.313c-.22.088-.262.372-.095.634a.8.8,0,0,0,.118.135c.206.053.417.1.625.146A.418.418,0,0,0,39.143,36.34Z"/><path class="cls-22" d="M37.143,36.34a.634.634,0,0,0-.7-.313.3.3,0,0,0-.145.132c.294.095.589.185.886.273A.575.575,0,0,0,37.143,36.34Z"/><path class="cls-22" d="M39.049,24.974c.22-.089.262-.373.094-.634a.634.634,0,0,0-.7-.313c-.22.088-.262.372-.095.634A.638.638,0,0,0,39.049,24.974Z"/><path class="cls-22" d="M40.443,34.027c-.22.088-.262.372-.095.634a.638.638,0,0,0,.7.313c.22-.089.262-.373.094-.634A.634.634,0,0,0,40.443,34.027Z"/><path class="cls-22" d="M41.049,27.974c.22-.089.262-.373.094-.634a.634.634,0,0,0-.7-.313c-.22.088-.262.372-.095.634A.638.638,0,0,0,41.049,27.974Z"/><path class="cls-26" d="M40.791,31.688c-.22.088-.262.372-.094.633a.634.634,0,0,0,.7.313c.22-.088.262-.372.095-.634A.636.636,0,0,0,40.791,31.688Z"/><path class="cls-22" d="M21.8,24.027a.636.636,0,0,0-.7.313c-.167.261-.125.545.095.634a.638.638,0,0,0,.7-.313C22.065,24.4,22.023,24.115,21.8,24.027Z"/><path class="cls-12" d="M25.73,29.29a7.584,7.584,0,0,1-.23-1.79,10.9,10.9,0,0,1,1.43-5.681c-2.057,1.181-3.544,3.586-3.862,6.857q.671.582,1.366,1.134A5.934,5.934,0,0,0,25.73,29.29Z"/><ellipse class="cls-27" cx="40" cy="21" rx="1.65" ry="2.297" transform="translate(-3.129 34.45) rotate(-45.02)"/><ellipse class="cls-27" cx="43" cy="25" rx="0.825" ry="1.148" transform="translate(-5.079 37.744) rotate(-45.02)"/><ellipse class="cls-27" cx="33" cy="27" rx="0.825" ry="1.148" transform="translate(-9.425 31.257) rotate(-45.02)"/><ellipse class="cls-27" cx="40.746" cy="25.5" rx="0.413" ry="0.574" transform="translate(-6.093 36.297) rotate(-45.02)"/><ellipse class="cls-27" cx="27" cy="10" rx="0.825" ry="1.148" transform="translate(0.841 22.03) rotate(-45.02)"/><ellipse class="cls-27" cx="28.746" cy="11.5" rx="0.413" ry="0.574" transform="translate(0.292 23.705) rotate(-45.02)"/><polyline class="cls-28" points="28 22 28 13 32 13 32 22"/><ellipse class="cls-28" cx="30" cy="30" rx="7" ry="9"/><path class="cls-28" d="M41.784,18A9.936,9.936,0,0,0,36,16c-2.211,0-4,1.428-4,3.194"/><path class="cls-28" d="M28,19.194C28,17.428,26.211,16,24,16c-5.527,0-11,5.482-11,12.257C13,39.722,19.367,47,26,47a4.958,4.958,0,0,0,4-1.886A4.958,4.958,0,0,0,34,47c6.633,0,13-7.278,13-18.743a12.794,12.794,0,0,0-4-9.246"/><path class="cls-28" d="M32.664,28c-1.727,3.588-4.959,6-8.664,6"/><path class="cls-28" d="M34,22a14.174,14.174,0,0,1-.568,4"/><path class="cls-28" d="M30,21c0,4.975-3.131,9-7,9"/><path class="cls-28" d="M12,38.705C6.142,36.982,1,27.928,1,17,1,9.814,6.473,4,12,4h1"/><path class="cls-28" d="M27.732,4a14.764,14.764,0,0,1,6.716,9"/><path class="cls-28" d="M12,8c4,0,6,1.895,6,3V9"/><line class="cls-28" x1="18" y1="15" x2="18" y2="10"/><path class="cls-28" d="M15,9c0-4.422.895-8,2-8h2V5"/><path class="cls-28" d="M18,9a8.2,8.2,0,0,0,8-8A8.224,8.224,0,0,0,18,9Z"/></g></svg>