<svg xmlns="http://www.w3.org/2000/svg" viewBox="0 0 48 48"><defs><style>.cls-1{fill:#63b300;}.cls-2{fill:#ff7f00;}.cls-3{fill:#f8ef00;}.cls-4{fill:#ffc501;}.cls-5{fill:#e86300;}.cls-6{fill:#ffa008;}.cls-7{fill:#8bc808;}.cls-8{fill:#fdf48b;}.cls-9{fill:#cc5700;}.cls-10{fill:#faba01;}.cls-11{fill:#ffd417;}.cls-12{fill:#fdf1c1;}.cls-13{fill:#f6fafd;}.cls-14{fill:none;stroke:#001a1f;stroke-linejoin:round;stroke-width:2px;}</style></defs><title>08-orange</title><g id="_08-orange" data-name="08-orange"><path class="cls-1" d="M20,8c-2.948,0-6-1.909-6-7C18,1,20,4.131,20,8Z"/><path class="cls-1" d="M21,5.994a7.246,7.246,0,0,0,10,0A7.269,7.269,0,0,0,21,5.994Z"/><circle class="cls-2" cx="18" cy="26" r="17"/><path class="cls-3" d="M45,29H15a1.908,1.908,0,0,0-2,1.8v1.8C13,40.553,20.611,47,30,47s17-6.447,17-14.4V30.8A1.908,1.908,0,0,0,45,29Z"/><path class="cls-4" d="M20.24,40.016A13.935,13.935,0,0,0,27.654,43.8,2.009,2.009,0,0,0,30,41.825V29l-9.645,8.037A2.009,2.009,0,0,0,20.24,40.016Z"/><path class="cls-4" d="M16,29v1a13.849,13.849,0,0,0,1.5,6.276,1.994,1.994,0,0,0,3.052.6L30,29Z"/><path class="cls-4" d="M32.346,43.8a13.935,13.935,0,0,0,7.414-3.787,2.009,2.009,0,0,0-.115-2.979L30,29V41.825A2.009,2.009,0,0,0,32.346,43.8Z"/><path class="cls-4" d="M44,29H30l9.451,7.876a1.994,1.994,0,0,0,3.052-.6A13.849,13.849,0,0,0,44,30Z"/><circle class="cls-2" cx="18" cy="26" r="17"/><path class="cls-5" d="M20,38A16.966,16.966,0,0,1,3.417,17.3,16.989,16.989,0,1,0,34.583,29.7,16.974,16.974,0,0,1,20,38Z"/><ellipse class="cls-5" cx="19" cy="14.5" rx="4" ry="1.5"/><path class="cls-6" d="M24.08,12.5a1.038,1.038,0,0,1,.224.621c0,3.217-4.09,3.217-5.434,3.217-1.23,0-4.746-.008-5.34-2.468A10.409,10.409,0,0,0,8,22.774C8,28.7,13.6,33.5,20.5,33.5S33,28.7,33,22.774C33,17.919,29.238,13.822,24.08,12.5Z"/><path class="cls-1" d="M20,8c-2.948,0-6-1.909-6-7C18,1,20,4.131,20,8Z"/><path class="cls-1" d="M21,5.994a7.246,7.246,0,0,0,10,0A7.269,7.269,0,0,0,21,5.994Z"/><path class="cls-7" d="M31,5.994a7.269,7.269,0,0,0-10,0L21.008,6h9.984Z"/><path class="cls-7" d="M14,1l6,7C20,4.131,18,1,14,1Z"/><path class="cls-8" d="M45,29H15a1.908,1.908,0,0,0-2,1.8v1.8C13,40.553,20.611,47,30,47s17-6.447,17-14.4V30.8A1.908,1.908,0,0,0,45,29Z"/><path class="cls-9" d="M18.246,42.988a14.252,14.252,0,0,1-4.509-6.194,17,17,0,0,1-4.652-2.768A13.461,13.461,0,0,0,13.563,42.4,17,17,0,0,0,18,43C18.083,43,18.163,42.989,18.246,42.988Z"/><path class="cls-5" d="M13,31.34V30.8A1.908,1.908,0,0,1,15,29H11a2.2,2.2,0,0,0-.589.088A1.831,1.831,0,0,0,9,30.8v1.8a12.464,12.464,0,0,0,.085,1.426,17,17,0,0,0,4.652,2.768A12.389,12.389,0,0,1,13,32.6Z"/><path class="cls-4" d="M45.882,29.192A1.717,1.717,0,0,1,46,29.8v1.8C46,39.553,38.837,46,30,46S14,39.553,14,31.6V29.8a1.717,1.717,0,0,1,.118-.608A1.789,1.789,0,0,0,13,30.8v1.8C13,40.553,20.611,47,30,47s17-6.447,17-14.4V30.8A1.789,1.789,0,0,0,45.882,29.192Z"/><path class="cls-10" d="M20.24,40.016A13.935,13.935,0,0,0,27.654,43.8,2.009,2.009,0,0,0,30,41.825V29l-9.645,8.037A2.009,2.009,0,0,0,20.24,40.016Z"/><path class="cls-10" d="M16,29v1a13.849,13.849,0,0,0,1.5,6.276,1.994,1.994,0,0,0,3.052.6L30,29Z"/><path class="cls-10" d="M32.346,43.8a13.935,13.935,0,0,0,7.414-3.787,2.009,2.009,0,0,0-.115-2.979L30,29V41.825A2.009,2.009,0,0,0,32.346,43.8Z"/><path class="cls-10" d="M44,29H30l9.451,7.876a1.994,1.994,0,0,0,3.052-.6A13.849,13.849,0,0,0,44,30Z"/><path class="cls-3" d="M44,29v1a13.852,13.852,0,0,1-1.5,6.276,1.994,1.994,0,0,1-3.052.6l.194.161a2.009,2.009,0,0,1,.115,2.979A13.935,13.935,0,0,1,32.346,43.8,2.009,2.009,0,0,1,30,41.825,2.009,2.009,0,0,1,27.654,43.8a13.935,13.935,0,0,1-7.414-3.787,2.009,2.009,0,0,1,.115-2.979l.194-.161a1.994,1.994,0,0,1-3.052-.6A13.852,13.852,0,0,1,16,30V29H15v1.079a15.025,15.025,0,0,0,1.6,6.77,2.128,2.128,0,0,0,3.27.647l-.208.174a2.178,2.178,0,0,0-.123,3.214,14.9,14.9,0,0,0,7.944,4.085A2.158,2.158,0,0,0,30,42.835a2.158,2.158,0,0,0,2.513,2.134,14.9,14.9,0,0,0,7.944-4.085,2.178,2.178,0,0,0-.123-3.214l-.208-.174a2.128,2.128,0,0,0,3.27-.647,15.025,15.025,0,0,0,1.6-6.77V29Z"/><path class="cls-11" d="M27.963,41.975a12.066,12.066,0,0,1-6.437-3.32,1.767,1.767,0,0,1-.4-1.9c-.071-.062-.147-.119-.217-.182l-.361.3h0l-.194.161a2.009,2.009,0,0,0-.115,2.979A13.935,13.935,0,0,0,27.654,43.8,2.009,2.009,0,0,0,30,41.825V40.241A1.751,1.751,0,0,1,27.963,41.975Z"/><path class="cls-11" d="M20.3,35.972A1.88,1.88,0,0,1,18.39,35.1,10.721,10.721,0,0,1,17,29.839V29H16v1a13.852,13.852,0,0,0,1.5,6.276,1.994,1.994,0,0,0,3.052.6l.361-.3C20.7,36.382,20.5,36.178,20.3,35.972Z"/><path class="cls-11" d="M39.09,36.575c-.07.063-.146.12-.217.182a1.767,1.767,0,0,1-.4,1.9,12.066,12.066,0,0,1-6.437,3.32A1.751,1.751,0,0,1,30,40.241v1.584A2.009,2.009,0,0,0,32.346,43.8a13.935,13.935,0,0,0,7.414-3.787,2.009,2.009,0,0,0-.115-2.979l-.194-.161h0Z"/><path class="cls-11" d="M43,29v.839A10.721,10.721,0,0,1,41.61,35.1a1.88,1.88,0,0,1-1.908.867c-.2.206-.4.41-.612.6l.361.3a1.994,1.994,0,0,0,3.052-.6A13.852,13.852,0,0,0,44,30V29Z"/><path class="cls-8" d="M39.451,36.876a2,2,0,0,0,1.333.459L30.781,29H29.219l-10,8.335a2,2,0,0,0,1.333-.459l-.194.161a1.978,1.978,0,0,0-.685,1.223l9.83-8.192V43.135a1.976,1.976,0,0,0,.5-1.31,1.976,1.976,0,0,0,.5,1.31V30.068l9.83,8.192a1.978,1.978,0,0,0-.685-1.223Z"/><ellipse class="cls-6" cx="40" cy="33" rx="0.825" ry="1.148" transform="translate(-11.617 37.967) rotate(-45.02)"/><ellipse class="cls-6" cx="37" cy="37" rx="0.825" ry="1.148" transform="translate(-15.326 37.018) rotate(-45.02)"/><ellipse class="cls-6" cx="36" cy="39" rx="0.825" ry="1.148" transform="translate(-17.034 36.897) rotate(-45.02)"/><ellipse class="cls-6" cx="32" cy="38" rx="0.825" ry="1.148" transform="translate(-17.499 33.774) rotate(-45.02)"/><ellipse class="cls-6" cx="37" cy="31" rx="0.825" ry="1.148" transform="translate(-11.082 35.259) rotate(-45.02)"/><ellipse class="cls-6" cx="37.746" cy="33.5" rx="0.413" ry="0.574" transform="translate(-12.632 36.52) rotate(-45.02)"/><ellipse class="cls-6" cx="33.746" cy="40.5" rx="0.413" ry="0.574" transform="translate(-18.756 35.742) rotate(-45.02)"/><ellipse class="cls-6" cx="33.746" cy="38.5" rx="0.413" ry="0.574" transform="translate(-17.341 35.156) rotate(-45.02)"/><ellipse class="cls-6" cx="34.746" cy="35.5" rx="0.413" ry="0.574" transform="translate(-14.926 34.984) rotate(-45.02)"/><ellipse class="cls-6" cx="33.746" cy="36.5" rx="0.413" ry="0.574" transform="translate(-15.926 34.57) rotate(-45.02)"/><ellipse class="cls-6" cx="31.746" cy="40.5" rx="0.413" ry="0.574" transform="translate(-19.342 34.328) rotate(-45.02)"/><ellipse class="cls-6" cx="32.746" cy="34.5" rx="0.413" ry="0.574" transform="translate(-14.805 33.276) rotate(-45.02)"/><ellipse class="cls-6" cx="41.746" cy="31.5" rx="0.413" ry="0.574" transform="translate(-10.044 38.763) rotate(-45.02)"/><ellipse class="cls-6" cx="39.746" cy="30.5" rx="0.413" ry="0.574" transform="translate(-9.923 37.055) rotate(-45.02)"/><ellipse class="cls-6" cx="20.246" cy="33" rx="1.148" ry="0.825" transform="translate(-17.402 23.969) rotate(-44.98)"/><ellipse class="cls-6" cx="23.246" cy="37" rx="1.148" ry="0.825" transform="translate(-19.351 27.26) rotate(-44.98)"/><ellipse class="cls-6" cx="24.246" cy="39" rx="1.148" ry="0.825" transform="translate(-20.472 28.552) rotate(-44.98)"/><ellipse class="cls-6" cx="28.246" cy="38" rx="1.148" ry="0.825" transform="translate(-18.595 31.087) rotate(-44.98)"/><ellipse class="cls-6" cx="23.246" cy="31" rx="1.148" ry="0.825" transform="translate(-15.11 25.504) rotate(-44.98)"/><ellipse class="cls-6" cx="22.5" cy="33.5" rx="0.574" ry="0.413" transform="translate(-17.095 25.708) rotate(-44.98)"/><ellipse class="cls-6" cx="26.5" cy="40.5" rx="0.574" ry="0.413" transform="translate(-20.873 30.584) rotate(-44.98)"/><ellipse class="cls-6" cx="26.5" cy="38.5" rx="0.574" ry="0.413" transform="translate(-19.459 29.999) rotate(-44.98)"/><ellipse class="cls-6" cx="25.5" cy="35.5" rx="0.574" ry="0.413" transform="translate(-17.631 28.414) rotate(-44.98)"/><ellipse class="cls-6" cx="26.5" cy="36.5" rx="0.574" ry="0.413" transform="translate(-18.045 29.414) rotate(-44.98)"/><ellipse class="cls-6" cx="28.5" cy="40.5" rx="0.574" ry="0.413" transform="translate(-20.288 31.998) rotate(-44.98)"/><ellipse class="cls-6" cx="27.5" cy="34.5" rx="0.574" ry="0.413" transform="translate(-16.339 29.535) rotate(-44.98)"/><ellipse class="cls-6" cx="18.5" cy="31.5" rx="0.574" ry="0.413" transform="translate(-16.852 22.296) rotate(-44.98)"/><ellipse class="cls-6" cx="20.5" cy="30.5" rx="0.574" ry="0.413" transform="translate(-15.56 23.417) rotate(-44.98)"/><path class="cls-6" d="M13.53,13.87c.594,2.461,4.11,2.468,5.34,2.468,1.344,0,5.434,0,5.434-3.217a1.038,1.038,0,0,0-.224-.621C29.238,13.822,33,17.919,33,22.774a10.458,10.458,0,0,1-5.789,9.039,37.946,37.946,0,0,0,5.357,2.917A16.993,16.993,0,0,0,11.427,10.32a37.924,37.924,0,0,0,1.378,4.025C13.044,14.184,13.277,14.016,13.53,13.87Z"/><path class="cls-4" d="M33,22.774c0-4.855-3.762-8.952-8.92-10.274a1.038,1.038,0,0,1,.224.621c0,3.217-4.09,3.217-5.434,3.217-1.23,0-4.746-.007-5.34-2.468-.253.146-.486.314-.725.475A38.083,38.083,0,0,0,27.211,31.813,10.458,10.458,0,0,0,33,22.774Z"/><path class="cls-8" d="M45.882,29.192a2.108,2.108,0,0,1,.448.272A2.044,2.044,0,0,0,45.882,29.192Z"/><path class="cls-8" d="M46.338,29.47a1.931,1.931,0,0,1,.346.366A1.871,1.871,0,0,0,46.338,29.47Z"/><path class="cls-12" d="M43.4,36.849a2.042,2.042,0,0,1-.686.777c.563.078,1.129.147,1.7.2A13.144,13.144,0,0,0,46,31.6V29.8a1.717,1.717,0,0,0-.118-.608A2.159,2.159,0,0,0,45,29v1.079A15.025,15.025,0,0,1,43.4,36.849Z"/><path class="cls-8" d="M46.926,30.341A1.592,1.592,0,0,1,47,30.8,1.627,1.627,0,0,0,46.926,30.341Z"/><path class="cls-8" d="M46.7,29.858a1.671,1.671,0,0,1,.193.379A1.671,1.671,0,0,0,46.7,29.858Z"/><path class="cls-4" d="M46.684,29.836l.013.022Z"/><path class="cls-4" d="M46.89,30.237c.013.034.026.068.036.1C46.916,30.305,46.9,30.271,46.89,30.237Z"/><path class="cls-4" d="M46.33,29.464l.008.006Z"/><polygon class="cls-4" points="45.882 29.192 45.882 29.192 45.882 29.192 45.882 29.192"/><path class="cls-3" d="M46,31.6a13.144,13.144,0,0,1-1.59,6.227q.683.063,1.373.1A12.459,12.459,0,0,0,47,32.6V30.8a1.592,1.592,0,0,0-.074-.459c-.01-.036-.023-.07-.036-.1a1.671,1.671,0,0,0-.193-.379l-.013-.022a1.931,1.931,0,0,0-.346-.366l-.008-.006a2.108,2.108,0,0,0-.448-.272h0A1.717,1.717,0,0,1,46,29.8Z"/><path class="cls-11" d="M29.5,30.068l-2.178,1.815q1.065.693,2.178,1.316Z"/><path class="cls-11" d="M29.219,29H23.442a37.858,37.858,0,0,0,3.01,2.3Z"/><path class="cls-11" d="M32.443,34.027a.634.634,0,0,1,.7.313c.161.25.124.517-.072.617.392.168.79.322,1.189.476a.339.339,0,0,1,.183-.406.634.634,0,0,1,.7.313.506.506,0,0,1,.07.453q.523.186,1.055.356a.545.545,0,0,1,.126-.1,1.23,1.23,0,0,1,1.316.528c.3.085.6.174.907.251L30.5,30.068v3.667q.9.468,1.832.888C32.191,34.373,32.234,34.111,32.443,34.027Z"/><path class="cls-11" d="M39.7,35.972A1.88,1.88,0,0,0,41.61,35.1,10.721,10.721,0,0,0,43,29.839V29H30.781l8.667,7.222C39.532,36.138,39.62,36.057,39.7,35.972Zm1.741-4.945a.634.634,0,0,1,.7.313c.168.261.126.545-.094.634a.638.638,0,0,1-.7-.313C41.181,31.4,41.223,31.115,41.443,31.027Zm-2-1a.634.634,0,0,1,.7.313c.168.261.126.545-.094.634a.638.638,0,0,1-.7-.313C39.181,30.4,39.223,30.115,39.443,30.027Zm-3.238,1.294c-.335-.523-.251-1.091.189-1.268a1.271,1.271,0,0,1,1.4.626c.335.523.251,1.091-.189,1.268A1.271,1.271,0,0,1,36.205,31.321Zm1.844,2.653a.638.638,0,0,1-.7-.313c-.167-.262-.125-.546.095-.634a.634.634,0,0,1,.7.313C38.311,33.6,38.269,33.885,38.049,33.974Zm1.345-1.921a1.271,1.271,0,0,1,1.4.626c.335.523.251,1.091-.189,1.268a1.271,1.271,0,0,1-1.4-.626C38.87,32.8,38.954,32.23,39.394,32.053Z"/><path class="cls-8" d="M42.5,36.276a1.917,1.917,0,0,1-.581.687,1.984,1.984,0,0,1-.794.344,2.153,2.153,0,0,1-.242.02q.906.171,1.824.3a2.042,2.042,0,0,0,.686-.777,15.025,15.025,0,0,0,1.6-6.77V29H44v1A13.852,13.852,0,0,1,42.5,36.276Z"/><polygon class="cls-3" points="39.451 36.876 39.452 36.876 39.451 36.876 39.451 36.876"/><polygon class="cls-11" points="39.8 37.105 39.8 37.105 39.801 37.105 39.801 37.105 39.8 37.105"/><path class="cls-11" d="M40.886,37.327h0a2.153,2.153,0,0,0,.242-.02A2.153,2.153,0,0,1,40.886,37.327Z"/><path class="cls-11" d="M41.128,37.307a1.984,1.984,0,0,0,.794-.344A1.984,1.984,0,0,1,41.128,37.307Z"/><polygon class="cls-11" points="39.8 37.105 39.801 37.105 39.801 37.105 39.8 37.105"/><path class="cls-3" d="M41.61,35.1a1.88,1.88,0,0,1-1.908.867c-.082.085-.17.166-.254.25l1.3,1.079.143.026a2.153,2.153,0,0,0,.242-.02,1.984,1.984,0,0,0,.794-.344,1.917,1.917,0,0,0,.581-.687A13.852,13.852,0,0,0,44,30V29H43v.839A10.721,10.721,0,0,1,41.61,35.1Z"/><polygon class="cls-8" points="26.88 31.6 30 29 26.88 31.6 26.88 31.6"/><polygon class="cls-8" points="39.451 36.876 39.451 36.876 39.09 36.575 39.1 36.583 39.451 36.876"/><polygon class="cls-8" points="39.09 36.575 30 29 39.09 36.575 39.09 36.575"/><polygon class="cls-8" points="39.1 36.583 39.451 36.876 39.451 36.876 39.1 36.583"/><path class="cls-8" d="M39.684,37.078h0c-.015-.013-.026-.029-.041-.042C39.66,37.05,39.67,37.065,39.684,37.078Z"/><path class="cls-8" d="M39.451,36.876h0a2,2,0,0,0,.183.121A2.158,2.158,0,0,1,39.451,36.876Z"/><polygon class="cls-8" points="39.645 37.037 39.451 36.876 39.451 36.876 39.645 37.037"/><polygon class="cls-8" points="39.451 36.876 39.451 36.876 39.451 36.876 39.451 36.876 39.451 36.876"/><polygon class="cls-8" points="39.09 36.575 39.09 36.575 39.1 36.583 39.09 36.575"/><polygon class="cls-8" points="39.451 36.876 39.451 36.876 39.451 36.876 39.451 36.876"/><polygon class="cls-8" points="39.1 36.583 39.09 36.575 39.09 36.575 39.451 36.876 39.1 36.583"/><path class="cls-8" d="M39.8,37.1h0c-.057-.031-.11-.072-.165-.108C39.69,37.033,39.743,37.074,39.8,37.1Z"/><path class="cls-12" d="M39.448,36.222,30.781,29H29.219l-2.767,2.3c.143.1.284.2.428.3s.3.188.442.283L29.5,30.068V33.2c.167.093.332.189.5.28s.334.169.5.256V30.068l8.117,6.764c.1.025.193.043.289.067.258.063.518.121.778.179-.014-.013-.024-.028-.039-.041l-.194-.161a2.158,2.158,0,0,0,.184.121c.055.036.108.077.165.108h0c.313.069.626.135.942.2Z"/><path class="cls-3" d="M40.606,33.947c.44-.177.524-.745.189-1.268a1.271,1.271,0,0,0-1.4-.626c-.44.177-.524.745-.189,1.268A1.271,1.271,0,0,0,40.606,33.947Z"/><path class="cls-3" d="M36.394,36.053a.545.545,0,0,0-.126.1c.476.154.958.3,1.442.432A1.23,1.23,0,0,0,36.394,36.053Z"/><path class="cls-3" d="M37.8,30.679a1.271,1.271,0,0,0-1.4-.626c-.44.177-.524.745-.189,1.268a1.271,1.271,0,0,0,1.4.626C38.046,31.77,38.13,31.2,37.8,30.679Z"/><path class="cls-3" d="M37.443,33.027c-.22.088-.262.372-.095.634a.638.638,0,0,0,.7.313c.22-.089.262-.373.094-.634A.634.634,0,0,0,37.443,33.027Z"/><path class="cls-3" d="M35.143,35.34a.634.634,0,0,0-.7-.313.339.339,0,0,0-.183.406c.316.123.632.245.953.36A.506.506,0,0,0,35.143,35.34Z"/><path class="cls-3" d="M33.143,34.34a.634.634,0,0,0-.7-.313c-.209.084-.252.346-.111.6.246.112.49.228.739.334C33.267,34.857,33.3,34.59,33.143,34.34Z"/><path class="cls-3" d="M42.049,31.974c.22-.089.262-.373.094-.634a.634.634,0,0,0-.7-.313c-.22.088-.262.372-.095.634A.638.638,0,0,0,42.049,31.974Z"/><path class="cls-3" d="M40.049,30.974c.22-.089.262-.373.094-.634a.634.634,0,0,0-.7-.313c-.22.088-.262.372-.095.634A.638.638,0,0,0,40.049,30.974Z"/><ellipse class="cls-13" cx="27" cy="16" rx="1.65" ry="2.297" transform="translate(-3.403 23.789) rotate(-45.02)"/><ellipse class="cls-13" cx="30" cy="19" rx="0.825" ry="1.148" transform="translate(-4.646 26.79) rotate(-45.02)"/><ellipse class="cls-13" cx="40" cy="34" rx="0.825" ry="1.148" transform="translate(-12.324 38.261) rotate(-45.02)"/><ellipse class="cls-13" cx="23" cy="26" rx="0.825" ry="1.148" transform="translate(-11.649 23.891) rotate(-45.02)"/><ellipse class="cls-13" cx="27.746" cy="19.5" rx="0.413" ry="0.574" transform="translate(-5.66 25.342) rotate(-45.02)"/><ellipse class="cls-13" cx="37.746" cy="32.5" rx="0.413" ry="0.574" transform="translate(-11.924 36.227) rotate(-45.02)"/><path class="cls-14" d="M22.006,9.475A17.006,17.006,0,0,1,35,26"/><path class="cls-14" d="M19,9.029a17,17,0,0,1,3.006.446"/><path class="cls-14" d="M13.994,42.525A17,17,0,0,1,16,9.116"/><path class="cls-14" d="M19,14S18,1,30,1"/><path class="cls-14" d="M23,12c0,1.658-1.789,2-4,2s-4-.342-4-2"/><path class="cls-14" d="M20,8c-2.948,0-6-1.909-6-7C18,1,20,4.131,20,8Z"/><path class="cls-14" d="M21,5.994a7.246,7.246,0,0,0,10,0A7.269,7.269,0,0,0,21,5.994Z"/><path class="cls-14" d="M39,29H15a1.908,1.908,0,0,0-2,1.8v1.8C13,40.553,20.611,47,30,47s17-6.447,17-14.4V30.8A1.908,1.908,0,0,0,45,29H41"/><path class="cls-14" d="M25.2,33l-4.845,4.037a2.009,2.009,0,0,0-.115,2.979A13.935,13.935,0,0,0,27.654,43.8,2.009,2.009,0,0,0,30,41.825V29l-3.6,3"/><line class="cls-14" x1="26.4" y1="32" x2="30" y2="29"/><path class="cls-14" d="M16,29v1a13.849,13.849,0,0,0,1.5,6.276,1.994,1.994,0,0,0,3.052.6L25.2,33"/><path class="cls-14" d="M32.346,43.8a13.935,13.935,0,0,0,7.414-3.787,2.009,2.009,0,0,0-.115-2.979L30,29V41.825A2.009,2.009,0,0,0,32.346,43.8Z"/><path class="cls-14" d="M30,29l9.451,7.876a1.994,1.994,0,0,0,3.052-.6A13.849,13.849,0,0,0,44,30V29"/><path class="cls-14" d="M30.1,21a12.777,12.777,0,0,0-.97-2"/><path class="cls-14" d="M31,26a14.166,14.166,0,0,0-.569-4"/></g></svg>