<svg xmlns="http://www.w3.org/2000/svg" viewBox="0 0 48 48"><defs><style>.cls-1{fill:#860052;}.cls-2{fill:#fdf1c1;}.cls-3{fill:#faba01;}.cls-4{fill:#436600;}.cls-5{fill:#a10062;}.cls-6{fill:#6e0043;}.cls-7{fill:#4d002f;}.cls-8{fill:#589e00;}.cls-9{fill:#ff829d;}.cls-10{fill:#fda893;}.cls-11{fill:#ffd417;}.cls-12{fill:#f8ef00;}.cls-13{fill:#fc6b00;}.cls-14{fill:#ff9202;}.cls-15{fill:#745a00;}.cls-16{fill:#30001e;}.cls-17{fill:#cf007e;}.cls-18{fill:#fdfdd7;}.cls-19{fill:#ffb3c3;}.cls-20{fill:#ffb3a1;}.cls-21{fill:#fdf48b;}.cls-22{fill:#ff7f00;}.cls-23{fill:#ffa008;}.cls-24{fill:#977b00;}.cls-25{fill:#f6fafd;}.cls-26{fill:none;stroke:#001a1f;stroke-linejoin:round;stroke-width:2px;}</style></defs><title>27-passion fruit</title><g id="_27-passion_fruit" data-name="27-passion fruit"><path class="cls-1" d="M35,23A16.655,16.655,0,0,1,18,40,16.661,16.661,0,0,1,1,23C1,13.06,8.616,4,18,4S35,13.06,35,23Z"/><circle class="cls-2" cx="31" cy="31" r="16"/><circle class="cls-3" cx="31" cy="31" r="12"/><path class="cls-4" d="M18,1,16.114,8.544A3.962,3.962,0,0,0,18,9a4.326,4.326,0,0,0,1.032-.129L21,1Z"/><path class="cls-1" d="M35,23A16.655,16.655,0,0,1,18,40,16.661,16.661,0,0,1,1,23C1,13.06,8.616,4,18,4S35,13.06,35,23Z"/><path class="cls-5" d="M12.857,12.457a3.921,3.921,0,0,0,1.218-1.681A1.313,1.313,0,0,0,13.9,9.669a1.35,1.35,0,0,0-1.1-.524,2.467,2.467,0,0,0-.847.183,6.544,6.544,0,0,0-3.147,2.823,3.392,3.392,0,0,0-.657,2.25c.172.942,1.123.917,1.9.331A31.976,31.976,0,0,0,12.857,12.457Z"/><path class="cls-5" d="M20.183,11.177a1,1,0,0,0-.119.881,1.428,1.428,0,0,0,.525.471,28.349,28.349,0,0,1,7.6,7.124,3.9,3.9,0,0,0,.939,1.03,1.651,1.651,0,0,0,1.462.232,1.487,1.487,0,0,0,.7-.678,6,6,0,0,0,.26-5.155,16,16,0,0,0-3.043-4.72,15.016,15.016,0,0,0-2.344-2.3,5.015,5.015,0,0,0-2.21-1.026C21.31,6.628,20.865,9.734,20.183,11.177Z"/><ellipse class="cls-6" cx="17.5" cy="8.5" rx="3" ry="1.5"/><ellipse class="cls-7" cx="17.5" cy="9" rx="2.5" ry="1"/><path class="cls-4" d="M18,1,16.114,8.544A3.962,3.962,0,0,0,18,9a4.326,4.326,0,0,0,1.032-.129L21,1Z"/><path class="cls-8" d="M19.75,1l-2,7.985c.082.005.162.015.246.015a4.326,4.326,0,0,0,1.032-.129L21,1Z"/><ellipse class="cls-5" cx="22" cy="17" rx="2" ry="4" transform="translate(-5.577 20.536) rotate(-45)"/><path class="cls-7" d="M21.5,34C13.5,34,6,29.332,6,19.944A23.77,23.77,0,0,1,11.011,5.781,19.7,19.7,0,0,0,1,23,16.661,16.661,0,0,0,18,40,16.614,16.614,0,0,0,34.945,24.157,14.271,14.271,0,0,1,21.5,34Z"/><circle class="cls-2" cx="31" cy="31" r="16"/><path class="cls-1" d="M31,15A16,16,0,1,0,47,31,15.994,15.994,0,0,0,31,15Zm0,31A15,15,0,1,1,46,31,14.994,14.994,0,0,1,31,46Z"/><path class="cls-9" d="M31,16A15,15,0,1,0,46,31,14.993,14.993,0,0,0,31,16Zm0,29A14,14,0,1,1,45,31,13.994,13.994,0,0,1,31,45Z"/><circle class="cls-3" cx="31" cy="31" r="12"/><path class="cls-10" d="M31,19A12,12,0,1,0,43,31,11.994,11.994,0,0,0,31,19Zm0,23A11,11,0,1,1,42,31,10.994,10.994,0,0,1,31,42Z"/><ellipse class="cls-11" cx="39" cy="27" rx="1.65" ry="2.297" transform="translate(-7.666 35.501) rotate(-45.02)"/><ellipse class="cls-12" cx="29" cy="27" rx="1.65" ry="2.297" transform="translate(-10.597 28.428) rotate(-45.02)"/><ellipse class="cls-13" cx="34" cy="30" rx="1.65" ry="2.297" transform="translate(-11.254 32.844) rotate(-45.02)"/><ellipse class="cls-13" cx="34" cy="26" rx="1.65" ry="2.297" transform="translate(-8.424 31.671) rotate(-45.02)"/><ellipse class="cls-13" cx="31" cy="23" rx="1.65" ry="2.297" transform="translate(-7.182 28.67) rotate(-45.02)"/><ellipse class="cls-11" cx="37" cy="32" rx="1.65" ry="2.297" transform="translate(-11.789 35.552) rotate(-45.02)"/><ellipse class="cls-13" cx="35" cy="38" rx="1.65" ry="2.297" transform="translate(-16.62 35.896) rotate(-45.02)"/><ellipse class="cls-11" cx="27" cy="36" rx="1.65" ry="2.297" transform="translate(-17.55 29.651) rotate(-45.02)"/><ellipse class="cls-12" cx="29" cy="31" rx="1.65" ry="2.297" transform="translate(-13.427 29.6) rotate(-45.02)"/><ellipse class="cls-13" cx="24" cy="37" rx="1.65" ry="2.297" transform="translate(-19.137 27.822) rotate(-45.02)"/><ellipse class="cls-13" cx="34" cy="35" rx="2.297" ry="1.65" transform="translate(-14.791 34.31) rotate(-45.02)"/><ellipse class="cls-11" cx="31" cy="34" rx="2.297" ry="1.65" transform="translate(-14.963 31.894) rotate(-45.02)"/><ellipse class="cls-11" cx="38" cy="36" rx="2.297" ry="1.65" transform="translate(-14.325 37.432) rotate(-45.02)"/><ellipse class="cls-11" cx="23" cy="29" rx="1.65" ry="2.297" transform="translate(-13.771 24.77) rotate(-45.02)"/><ellipse class="cls-13" cx="26" cy="32" rx="1.65" ry="2.297"/><ellipse class="cls-12" cx="32" cy="38" rx="1.65" ry="2.297"/><ellipse class="cls-13" cx="40" cy="31" rx="1.65" ry="2.297"/><ellipse class="cls-12" cx="35" cy="24" rx="1.65" ry="2.297"/><ellipse class="cls-11" cx="23" cy="32" rx="2.297" ry="1.65" transform="translate(-15.893 25.649) rotate(-45.02)"/><ellipse class="cls-13" cx="25" cy="27" rx="2.297" ry="1.65" transform="translate(-11.77 25.598) rotate(-45.02)"/><ellipse class="cls-11" cx="27" cy="23" rx="2.297" ry="1.65" transform="translate(-8.354 25.841) rotate(-45.02)"/><ellipse class="cls-11" cx="30" cy="39" rx="2.297" ry="1.65" transform="translate(-18.793 32.653) rotate(-45.02)"/><ellipse class="cls-14" cx="37" cy="36" rx="1.65" ry="2.297" transform="translate(-14.619 36.725) rotate(-45.02)"/><ellipse class="cls-15" cx="36.606" cy="35.947" rx="0.825" ry="1.148" transform="translate(-14.696 36.431) rotate(-45.02)"/><ellipse class="cls-14" cx="39" cy="32" rx="1.65" ry="2.297" transform="translate(-11.203 36.967) rotate(-45.02)"/><ellipse class="cls-15" cx="38.606" cy="31.947" rx="0.825" ry="1.148" transform="translate(-11.281 36.673) rotate(-45.02)"/><ellipse class="cls-14" cx="33" cy="32" rx="1.65" ry="2.297" transform="translate(-12.962 32.723) rotate(-45.02)"/><ellipse class="cls-15" cx="32.606" cy="31.947" rx="0.825" ry="1.148" transform="translate(-13.039 32.429) rotate(-45.02)"/><ellipse class="cls-14" cx="33" cy="37" rx="1.65" ry="2.297" transform="translate(-16.498 34.189) rotate(-45.02)"/><ellipse class="cls-15" cx="32.606" cy="36.947" rx="0.825" ry="1.148" transform="translate(-16.576 33.895) rotate(-45.02)"/><ellipse class="cls-14" cx="24" cy="34" rx="2.297" ry="1.65" transform="translate(-17.01 26.915) rotate(-44.98)"/><ellipse class="cls-15" cx="24.394" cy="33.947" rx="1.148" ry="0.825" transform="translate(-16.857 27.177) rotate(-44.98)"/><ellipse class="cls-14" cx="29" cy="34" rx="2.297" ry="1.65" transform="translate(-15.547 30.449) rotate(-44.98)"/><ellipse class="cls-15" cx="29.394" cy="33.947" rx="1.148" ry="0.825" transform="translate(-15.394 30.712) rotate(-44.98)"/><ellipse class="cls-14" cx="22" cy="30" rx="2.297" ry="1.65" transform="translate(-14.768 24.331) rotate(-44.98)"/><ellipse class="cls-15" cx="22.394" cy="29.947" rx="1.148" ry="0.825" transform="translate(-14.615 24.593) rotate(-44.98)"/><ellipse class="cls-14" cx="27" cy="30" rx="2.297" ry="1.65" transform="translate(-13.304 27.865) rotate(-44.98)"/><ellipse class="cls-15" cx="27.394" cy="29.947" rx="1.148" ry="0.825" transform="translate(-13.152 28.127) rotate(-44.98)"/><ellipse class="cls-14" cx="26" cy="38" rx="2.297" ry="1.65" transform="translate(-19.252 29.499) rotate(-44.98)"/><ellipse class="cls-15" cx="26.394" cy="37.947" rx="1.148" ry="0.825" transform="translate(-19.099 29.762) rotate(-44.98)"/><ellipse class="cls-14" cx="36" cy="25" rx="2.297" ry="1.65" transform="translate(-7.136 32.763) rotate(-44.98)"/><ellipse class="cls-15" cx="36.394" cy="24.947" rx="1.148" ry="0.825" transform="translate(-6.983 33.026) rotate(-44.98)"/><ellipse class="cls-14" cx="36.59" cy="28.642" rx="2.297" ry="1.65" transform="translate(-9.538 34.246) rotate(-44.98)"/><ellipse class="cls-15" cx="36.197" cy="28.695" rx="1.148" ry="0.825" transform="translate(-9.691 33.984) rotate(-44.98)"/><ellipse class="cls-14" cx="30" cy="39" rx="1.65" ry="2.297"/><ellipse class="cls-15" cx="30.241" cy="38.684" rx="0.825" ry="1.148"/><ellipse class="cls-14" cx="33" cy="23" rx="1.65" ry="2.297"/><ellipse class="cls-15" cx="32.759" cy="23.316" rx="0.825" ry="1.148"/><ellipse class="cls-14" cx="31" cy="28" rx="1.65" ry="2.297"/><ellipse class="cls-15" cx="31.241" cy="28.316" rx="0.825" ry="1.148"/><ellipse class="cls-14" cx="27" cy="25" rx="1.65" ry="2.297"/><ellipse class="cls-15" cx="27.241" cy="25.316" rx="0.825" ry="1.148"/><ellipse class="cls-2" cx="39.746" cy="31.5" rx="0.413" ry="0.574" transform="translate(-10.631 37.348) rotate(-45.02)"/><ellipse class="cls-2" cx="37.746" cy="35.5" rx="0.413" ry="0.574" transform="translate(-14.046 37.106) rotate(-45.02)"/><ellipse class="cls-2" cx="33.746" cy="32.5" rx="0.413" ry="0.574" transform="translate(-13.097 33.397) rotate(-45.02)"/><ellipse class="cls-2" cx="31.746" cy="27.5" rx="0.413" ry="0.574"/><ellipse class="cls-2" cx="33.746" cy="22.5" rx="0.413" ry="0.574"/><ellipse class="cls-2" cx="27.746" cy="24.5" rx="0.413" ry="0.574"/><ellipse class="cls-2" cx="30.746" cy="39.5" rx="0.413" ry="0.574"/><ellipse class="cls-2" cx="33.746" cy="36.5" rx="0.413" ry="0.574" transform="translate(-15.926 34.57) rotate(-45.02)"/><ellipse class="cls-2" cx="28.746" cy="33.5" rx="0.574" ry="0.413" transform="translate(-15.268 30.123) rotate(-44.98)"/><ellipse class="cls-2" cx="36.746" cy="27.5" rx="0.574" ry="0.413" transform="translate(-8.685 34.022) rotate(-44.98)"/><ellipse class="cls-2" cx="21.746" cy="29.5" rx="0.574" ry="0.413" transform="translate(-14.489 24.005) rotate(-44.98)"/><ellipse class="cls-2" cx="26.746" cy="29.5" rx="0.574" ry="0.413" transform="translate(-13.025 27.539) rotate(-44.98)"/><ellipse class="cls-2" cx="35.746" cy="24.5" rx="0.574" ry="0.413" transform="translate(-6.857 32.437) rotate(-44.98)"/><ellipse class="cls-2" cx="23.746" cy="33.5" rx="0.574" ry="0.413" transform="translate(-16.731 26.589) rotate(-44.98)"/><ellipse class="cls-2" cx="25.746" cy="37.5" rx="0.574" ry="0.413" transform="translate(-18.973 29.173) rotate(-44.98)"/><path class="cls-7" d="M24.207,16.528c.3-.141.6-.277.912-.4q-.525-.51-1.082-1c-.324.04-.645.088-.962.147.113.1.229.2.339.307A7.562,7.562,0,0,1,24.207,16.528Z"/><path class="cls-7" d="M15,31a15.966,15.966,0,0,1,5.836-12.36c-.083-.076-.169-.144-.25-.226a6.981,6.981,0,0,1-1.369-1.891,15.962,15.962,0,0,0-7.055,22.488,17.761,17.761,0,0,0,5.6.978A15.93,15.93,0,0,1,15,31Z"/><path class="cls-6" d="M28.5,15.214a14.682,14.682,0,0,0-4.462-.082q.558.488,1.082,1A15.9,15.9,0,0,1,28.5,15.214Z"/><path class="cls-6" d="M23.414,15.586c-.11-.111-.226-.206-.339-.307a15.827,15.827,0,0,0-3.858,1.244,6.981,6.981,0,0,0,1.369,1.891c.081.082.167.15.25.226a15.98,15.98,0,0,1,3.371-2.112A7.562,7.562,0,0,0,23.414,15.586Z"/><path class="cls-16" d="M15.125,32.912a14.541,14.541,0,0,1-5.068-3.046C10.031,30.242,10,30.617,10,31a15.912,15.912,0,0,0,2.162,8.011,17.761,17.761,0,0,0,5.6.978A15.9,15.9,0,0,1,15.125,32.912Z"/><path class="cls-5" d="M31.114,34.049A16.988,16.988,0,0,0,35,23c0-9.94-7.606-19-17-19a15,15,0,0,0-7.512,2.074A38,38,0,0,0,31.114,34.049Z"/><path class="cls-17" d="M12.857,12.457a3.921,3.921,0,0,0,1.218-1.681A1.313,1.313,0,0,0,13.9,9.669a1.35,1.35,0,0,0-1.1-.524,2.467,2.467,0,0,0-.847.183,4.98,4.98,0,0,0-.71.361q.438,1.669,1.019,3.276C12.463,12.8,12.668,12.635,12.857,12.457Z"/><path class="cls-7" d="M34.945,24.157a14.885,14.885,0,0,1-6.889,8.2q1.471.909,3.031,1.681A16.846,16.846,0,0,0,34.945,24.157Z"/><path class="cls-17" d="M20.183,11.177a1,1,0,0,0-.119.881,1.428,1.428,0,0,0,.525.471,28.349,28.349,0,0,1,7.6,7.124,3.9,3.9,0,0,0,.939,1.03,1.651,1.651,0,0,0,1.462.232,1.487,1.487,0,0,0,.7-.678,6,6,0,0,0,.26-5.155,16,16,0,0,0-3.043-4.72,15.016,15.016,0,0,0-2.344-2.3,5.015,5.015,0,0,0-2.21-1.026C21.31,6.628,20.865,9.734,20.183,11.177Z"/><ellipse class="cls-1" cx="17.5" cy="8.5" rx="3" ry="1.5"/><ellipse class="cls-7" cx="17.5" cy="9" rx="2.5" ry="1"/><path class="cls-4" d="M18,1,16.114,8.544A3.962,3.962,0,0,0,18,9a4.326,4.326,0,0,0,1.032-.129L21,1Z"/><path class="cls-8" d="M19.75,1l-2,7.985c.082.005.162.015.246.015a4.326,4.326,0,0,0,1.032-.129L21,1Z"/><ellipse class="cls-17" cx="22" cy="17" rx="2" ry="4" transform="translate(-5.577 20.536) rotate(-45)"/><path class="cls-7" d="M24.207,16.528c.3-.141.6-.277.912-.4q-.525-.51-1.082-1c-.324.04-.645.088-.962.147.113.1.229.2.339.307A7.562,7.562,0,0,1,24.207,16.528Z"/><path class="cls-6" d="M28.5,15.214a14.682,14.682,0,0,0-4.462-.082q.558.488,1.082,1A15.9,15.9,0,0,1,28.5,15.214Z"/><path class="cls-6" d="M23.414,15.586c-.11-.111-.226-.206-.339-.307a15.827,15.827,0,0,0-3.858,1.244,6.981,6.981,0,0,0,1.369,1.891c.081.082.167.15.25.226a15.98,15.98,0,0,1,3.371-2.112A7.562,7.562,0,0,0,23.414,15.586Z"/><path class="cls-7" d="M20.836,18.64c-.083-.076-.169-.144-.25-.226a6.981,6.981,0,0,1-1.369-1.891,16.025,16.025,0,0,0-4.006,2.69,37.782,37.782,0,0,0,2.2,3.34A16.087,16.087,0,0,1,20.836,18.64Z"/><path class="cls-18" d="M45.418,37.9a15.985,15.985,0,0,0-28-15.336A37.924,37.924,0,0,0,45.418,37.9Z"/><path class="cls-5" d="M31,16A14.983,14.983,0,0,1,44.348,37.822c.354.034.712.057,1.07.081a15.985,15.985,0,0,0-28-15.336c.212.287.433.567.653.848A14.975,14.975,0,0,1,31,16Z"/><path class="cls-19" d="M31,16a14.975,14.975,0,0,0-12.928,7.415c.219.28.435.562.662.835A14,14,0,0,1,43.294,37.7c.35.043.7.088,1.054.122A14.983,14.983,0,0,0,31,16Z"/><path class="cls-12" d="M31,20a10.994,10.994,0,0,0-10.1,6.642A37.9,37.9,0,0,0,40.1,37.175,11,11,0,0,0,31,20Z"/><path class="cls-20" d="M31,20a11,11,0,0,1,9.1,17.175c.348.073.7.136,1.051.2A11.99,11.99,0,1,0,20.163,25.869q.363.392.737.773A10.994,10.994,0,0,1,31,20Z"/><ellipse class="cls-2" cx="39" cy="27" rx="1.65" ry="2.297" transform="translate(-7.666 35.501) rotate(-45.02)"/><ellipse class="cls-21" cx="29" cy="27" rx="1.65" ry="2.297" transform="translate(-10.597 28.428) rotate(-45.02)"/><ellipse class="cls-22" cx="34" cy="30" rx="1.65" ry="2.297" transform="translate(-11.254 32.844) rotate(-45.02)"/><ellipse class="cls-22" cx="34" cy="26" rx="1.65" ry="2.297" transform="translate(-8.424 31.671) rotate(-45.02)"/><ellipse class="cls-22" cx="31" cy="23" rx="1.65" ry="2.297" transform="translate(-7.182 28.67) rotate(-45.02)"/><ellipse class="cls-2" cx="37" cy="32" rx="1.65" ry="2.297" transform="translate(-11.789 35.552) rotate(-45.02)"/><ellipse class="cls-21" cx="29" cy="31" rx="1.65" ry="2.297" transform="translate(-13.427 29.6) rotate(-45.02)"/><ellipse class="cls-22" cx="40" cy="31" rx="1.65" ry="2.297"/><ellipse class="cls-21" cx="35" cy="24" rx="1.65" ry="2.297"/><ellipse class="cls-22" cx="25" cy="27" rx="2.297" ry="1.65" transform="translate(-11.77 25.598) rotate(-45.02)"/><ellipse class="cls-2" cx="27" cy="23" rx="2.297" ry="1.65" transform="translate(-8.354 25.841) rotate(-45.02)"/><path class="cls-22" d="M35.894,33.787c-.355-.878-1.49-1.047-2.536-.377a3.118,3.118,0,0,0-.4.309,2.617,2.617,0,0,1-.422,1q1.416.632,2.89,1.149A2.2,2.2,0,0,0,35.894,33.787Z"/><path class="cls-2" d="M32.894,32.787c-.355-.878-1.49-1.047-2.536-.377a3.138,3.138,0,0,0-.838.8c.9.5,1.819.962,2.759,1.39l.256.115a2.617,2.617,0,0,0,.422-1A1.669,1.669,0,0,0,32.894,32.787Z"/><path class="cls-2" d="M39.894,34.787c-.355-.878-1.49-1.047-2.536-.377a3.024,3.024,0,0,0-1.276,1.676q1.592.525,3.244.91A2.261,2.261,0,0,0,39.894,34.787Z"/><path class="cls-21" d="M24.59,28.358a2.544,2.544,0,0,0-2.8-1.252,1.293,1.293,0,0,0-.265.151A38.079,38.079,0,0,0,24.9,30.178,2.094,2.094,0,0,0,24.59,28.358Z"/><path class="cls-22" d="M26.481,29.8a1.307,1.307,0,0,0-1.524.417q1.3.993,2.686,1.869A2.371,2.371,0,0,0,26.481,29.8Z"/><ellipse class="cls-23" cx="39" cy="32" rx="1.65" ry="2.297" transform="translate(-11.203 36.967) rotate(-45.02)"/><ellipse class="cls-24" cx="38.606" cy="31.947" rx="0.825" ry="1.148" transform="translate(-11.281 36.673) rotate(-45.02)"/><ellipse class="cls-23" cx="33" cy="32" rx="1.65" ry="2.297" transform="translate(-12.962 32.723) rotate(-45.02)"/><ellipse class="cls-24" cx="32.606" cy="31.947" rx="0.825" ry="1.148" transform="translate(-13.039 32.429) rotate(-45.02)"/><ellipse class="cls-23" cx="36" cy="25" rx="2.297" ry="1.65" transform="translate(-7.136 32.763) rotate(-44.98)"/><ellipse class="cls-24" cx="36.394" cy="24.947" rx="1.148" ry="0.825" transform="translate(-6.983 33.026) rotate(-44.98)"/><ellipse class="cls-23" cx="36.59" cy="28.642" rx="2.297" ry="1.65" transform="translate(-9.538 34.246) rotate(-44.98)"/><ellipse class="cls-24" cx="36.197" cy="28.695" rx="1.148" ry="0.825" transform="translate(-9.691 33.984) rotate(-44.98)"/><ellipse class="cls-23" cx="33" cy="23" rx="1.65" ry="2.297"/><ellipse class="cls-24" cx="32.759" cy="23.316" rx="0.825" ry="1.148"/><ellipse class="cls-23" cx="31" cy="28" rx="1.65" ry="2.297"/><ellipse class="cls-24" cx="31.241" cy="28.316" rx="0.825" ry="1.148"/><ellipse class="cls-23" cx="27" cy="25" rx="1.65" ry="2.297"/><ellipse class="cls-24" cx="27.241" cy="25.316" rx="0.825" ry="1.148"/><ellipse class="cls-25" cx="39.746" cy="31.5" rx="0.413" ry="0.574" transform="translate(-10.631 37.348) rotate(-45.02)"/><ellipse class="cls-25" cx="33.746" cy="32.5" rx="0.413" ry="0.574" transform="translate(-13.097 33.397) rotate(-45.02)"/><ellipse class="cls-25" cx="31.746" cy="27.5" rx="0.413" ry="0.574"/><ellipse class="cls-25" cx="33.746" cy="22.5" rx="0.413" ry="0.574"/><ellipse class="cls-25" cx="27.746" cy="24.5" rx="0.413" ry="0.574"/><ellipse class="cls-25" cx="36.746" cy="27.5" rx="0.574" ry="0.413" transform="translate(-8.685 34.022) rotate(-44.98)"/><ellipse class="cls-25" cx="35.746" cy="24.5" rx="0.574" ry="0.413" transform="translate(-6.857 32.437) rotate(-44.98)"/><path class="cls-23" d="M36,35a1.205,1.205,0,0,1,1.263.466.348.348,0,0,1,.18-.439.634.634,0,0,1,.7.313c.168.261.126.545-.094.634a.57.57,0,0,1-.562-.154.936.936,0,0,1,.053.713c.474.135.952.264,1.434.382a2.241,2.241,0,0,0-.384-1.557,2.544,2.544,0,0,0-2.8-1.252,1.364,1.364,0,0,0-.743,1.63c.207.074.418.14.626.211A.713.713,0,0,1,36,35Z"/><path class="cls-24" d="M37.487,35.82a.79.79,0,0,1-.139-.159.673.673,0,0,1-.085-.2A1.205,1.205,0,0,0,36,35a.713.713,0,0,0-.33.947q.924.316,1.87.586A.936.936,0,0,0,37.487,35.82Z"/><path class="cls-25" d="M38.143,35.34a.634.634,0,0,0-.7-.313.348.348,0,0,0-.18.439.673.673,0,0,0,.085.2.79.79,0,0,0,.139.159.57.57,0,0,0,.562.154C38.269,35.885,38.311,35.6,38.143,35.34Z"/><path class="cls-23" d="M30.213,32.106a2.137,2.137,0,0,0-1.954.378c.326.2.66.383.992.572A.959.959,0,0,1,30,33a.644.644,0,0,1,.375.67c.176.093.354.183.532.273A1.418,1.418,0,0,0,30.213,32.106Z"/><path class="cls-24" d="M30,33a.959.959,0,0,0-.749.056q.556.317,1.124.614A.644.644,0,0,0,30,33Z"/><path class="cls-14" d="M23.213,28.106a1.649,1.649,0,0,0-.876-.073q.809.741,1.659,1.433A1.3,1.3,0,0,0,23.213,28.106Z"/><path class="cls-23" d="M28.59,30.642c.67-1.046.5-2.181-.377-2.536a2.758,2.758,0,0,0-3.172,2.18q1.056.8,2.17,1.527A3.087,3.087,0,0,0,28.59,30.642Zm-1.8.252a.708.708,0,0,1-.342-.92h0c-.22-.089-.262-.373-.1-.634a.636.636,0,0,1,.7-.313.3.3,0,0,1,.113.086A1,1,0,0,1,28,29c.439.177.524.745.189,1.268A1.273,1.273,0,0,1,26.787,30.894Z"/><path class="cls-24" d="M28,29a1,1,0,0,0-.838.113.458.458,0,0,1-.019.548.636.636,0,0,1-.7.313.708.708,0,0,0,.342.92,1.273,1.273,0,0,0,1.4-.626C28.524,29.745,28.439,29.177,28,29Z"/><path class="cls-25" d="M27.162,29.113a.3.3,0,0,0-.113-.086.636.636,0,0,0-.7.313c-.167.261-.125.545.1.634h0a.636.636,0,0,0,.7-.313A.458.458,0,0,0,27.162,29.113Z"/><ellipse class="cls-25" cx="24" cy="9" rx="1.65" ry="2.297" transform="translate(0.669 19.615) rotate(-45.02)"/><ellipse class="cls-25" cx="28" cy="11" rx="0.825" ry="1.148" transform="translate(0.427 23.03) rotate(-45.02)"/><ellipse class="cls-25" cx="25.746" cy="12.5" rx="0.413" ry="0.574" transform="translate(-1.295 21.876) rotate(-45.02)"/><path class="cls-26" d="M21,7c0,1.105-1.342,2-3,2s-3-.895-3-2"/><polyline class="cls-26" points="19 9 21 1 18 1 16 9"/><path class="cls-26" d="M46.5,27a16.063,16.063,0,1,0,.381,2"/><path class="cls-26" d="M31,19a11.988,11.988,0,1,0,2,.166"/><path class="cls-26" d="M14,39.557A16.561,16.561,0,0,1,1,23C1,13.414,8.077,4.649,17,4.034"/><path class="cls-26" d="M20,4.138A17.282,17.282,0,0,1,32.32,13"/></g></svg>