<svg xmlns="http://www.w3.org/2000/svg" viewBox="0 0 48 48"><defs><style>.cls-1{fill:#8bc808;}.cls-2{fill:#ff7f00;}.cls-3{fill:#ff9202;}.cls-4{fill:#ffc501;}.cls-5{fill:#63b300;}.cls-6{fill:#cc5700;}.cls-7{fill:#9cdf00;}.cls-8{fill:#589e00;}.cls-9{fill:#4e8c00;}.cls-10{fill:#ffa008;}.cls-11{fill:#faba01;}.cls-12{fill:#ffaf12;}.cls-13{fill:#fc6b00;}.cls-14{fill:#ffd417;}.cls-15{fill:#e86300;}.cls-16{fill:#b84e00;}.cls-17{fill:#baec35;}.cls-18{fill:#f6fafd;}.cls-19{fill:#f8ef00;}.cls-20{fill:#fdf48b;}.cls-21{fill:none;stroke:#001a1f;stroke-linejoin:round;stroke-width:2px;}</style></defs><title>09-persimmon</title><g id="_09-persimmon" data-name="09-persimmon"><path class="cls-1" d="M19,14c2,0,4-2.864,4-4.893,0-3.38-2-3.669-4-2.446-2-1.223-4-.934-4,2.446C15,11.136,17,14,19,14Z"/><path class="cls-1" d="M13.89,3c3.38,0,3.67,1.5,2.45,3l.06.1c-.8.27-1.36,1.14-1.4,2.84A9.054,9.054,0,0,1,13.89,9C11.86,9,9,7.5,9,6a1.153,1.153,0,0,1,.03-.26C9.33,4.33,11.98,3,13.89,3Z"/><path class="cls-1" d="M28.97,5.74A1.153,1.153,0,0,1,29,6c0,1.5-2.86,3-4.89,3A9.054,9.054,0,0,1,23,8.94c-.04-1.68-.59-2.55-1.38-2.83L21.66,6c-1.22-1.5-.93-3,2.45-3C26.02,3,28.67,4.33,28.97,5.74Z"/><path class="cls-2" d="M29.98,6.2A12.57,12.57,0,0,1,37,17.48C37,26.76,28.94,33,19,33S1,26.76,1,17.48A12.57,12.57,0,0,1,8.02,6.2,8.747,8.747,0,0,1,9,5.74h.03A1.153,1.153,0,0,0,9,6c0,1.5,2.86,3,4.89,3A9.054,9.054,0,0,0,15,8.94v.17C15,11.14,17,14,19,14s4-2.86,4-4.89V8.94A9.054,9.054,0,0,0,24.11,9C26.14,9,29,7.5,29,6a1.153,1.153,0,0,0-.03-.26h.02A8.894,8.894,0,0,1,29.98,6.2Z"/><path class="cls-1" d="M16.34,6l.06.1c-.014.005-.025.014-.038.019a3.137,3.137,0,0,1,2.61.526c.009.005.019.009.028.015l.025-.013a3.139,3.139,0,0,1,2.612-.528L21.62,6.11,21.66,6c-.981-1.206-.982-2.41.81-2.836A4.493,4.493,0,0,0,19,1a4.493,4.493,0,0,0-3.47,2.164C17.322,3.59,17.321,4.794,16.34,6Z"/><path class="cls-3" d="M34.93,19.2C34.55,20.24,32.67,25,30,25s-4.55-4.76-4.93-5.8a18.339,18.339,0,0,1,3.51,1.13,3.511,3.511,0,0,0,2.84,0A18.339,18.339,0,0,1,34.93,19.2Z"/><path class="cls-4" d="M37.56,19C42.25,19,47,22.42,47,31.03c0,7.47-5.02,14.92-12.44,15.93a4.987,4.987,0,0,1-2.71-.43A4.713,4.713,0,0,0,30,46.07a4.713,4.713,0,0,0-1.85.46,4.987,4.987,0,0,1-2.71.43C18.02,45.95,13,38.5,13,31.03,13,22.42,17.75,19,22.44,19h.95a7.621,7.621,0,0,1,1.68.2C25.45,20.24,27.33,25,30,25s4.55-4.76,4.93-5.8a7.621,7.621,0,0,1,1.68-.2Z"/><path class="cls-3" d="M25,38.98v.06a2.037,2.037,0,0,1-2.9,1.77c-1.67-.8-5.1-2.89-5.1-6.72a11.409,11.409,0,0,1,1.34-5.84,2.2,2.2,0,0,1,2.99-.99c1.67.98.67,4.21.67,6.83C22,37.39,25,35.67,25,38.98Z"/><path class="cls-3" d="M41.66,28.25A11.409,11.409,0,0,1,43,34.09c0,3.83-3.43,5.92-5.1,6.72A2.037,2.037,0,0,1,35,39.04v-.06c0-3.31,3-1.59,3-4.89,0-2.62-1-5.85.67-6.83A2.207,2.207,0,0,1,41.66,28.25Z"/><path class="cls-2" d="M29.98,6.2A12.57,12.57,0,0,1,37,17.48C37,26.76,28.94,33,19,33S1,26.76,1,17.48A12.57,12.57,0,0,1,8.02,6.2,8.747,8.747,0,0,1,9,5.74h.03A1.153,1.153,0,0,0,9,6c0,1.5,2.86,3,4.89,3A9.054,9.054,0,0,0,15,8.94v.17C15,11.14,17,14,19,14s4-2.86,4-4.89V8.94A9.054,9.054,0,0,0,24.11,9C26.14,9,29,7.5,29,6a1.153,1.153,0,0,0-.03-.26h.02A8.894,8.894,0,0,1,29.98,6.2Z"/><path class="cls-1" d="M19,14c2,0,4-2.864,4-4.893,0-3.38-2-3.669-4-2.446-2-1.223-4-.934-4,2.446C15,11.136,17,14,19,14Z"/><path class="cls-1" d="M13.89,3c3.38,0,3.67,1.5,2.45,3l.06.1c-.8.27-1.36,1.14-1.4,2.84A9.054,9.054,0,0,1,13.89,9C11.86,9,9,7.5,9,6a1.153,1.153,0,0,1,.03-.26C9.33,4.33,11.98,3,13.89,3Z"/><path class="cls-1" d="M28.97,5.74A1.153,1.153,0,0,1,29,6c0,1.5-2.86,3-4.89,3A9.054,9.054,0,0,1,23,8.94c-.04-1.68-.59-2.55-1.38-2.83L21.66,6c-1.22-1.5-.93-3,2.45-3C26.02,3,28.67,4.33,28.97,5.74Z"/><path class="cls-5" d="M16.34,6l.06.1c-.014.005-.025.014-.038.019a3.137,3.137,0,0,1,2.61.526c.009.005.019.009.028.015l.025-.013a3.139,3.139,0,0,1,2.612-.528L21.62,6.11,21.66,6c-.981-1.206-.982-2.41.81-2.836A4.493,4.493,0,0,0,19,1a4.493,4.493,0,0,0-3.47,2.164C17.322,3.59,17.321,4.794,16.34,6Z"/><path class="cls-6" d="M15.1,9.947a3.859,3.859,0,0,1-.1-.84c0-.145.009-.276.016-.41-.005.082-.014.157-.016.243A9.054,9.054,0,0,1,13.89,9a5.1,5.1,0,0,1-.883-.085,6.314,6.314,0,0,1-3.6-1.9,1.9,1.9,0,0,0-.381.728A1.153,1.153,0,0,0,9,8c0,1.395,2.474,2.789,4.453,2.977C14.155,12.546,15.575,14,17,14a2.474,2.474,0,0,0,1-.232A5.858,5.858,0,0,1,15.1,9.947Z"/><path class="cls-6" d="M27.97,7.74c-.007-.031-.029-.06-.038-.091A6.869,6.869,0,0,1,24.11,9,9.054,9.054,0,0,1,23,8.94c0-.086-.011-.161-.016-.243.007.134.016.265.016.41a4.725,4.725,0,0,1-.457,1.879c.178.009.366.014.567.014C25.14,11,28,9.5,28,8A1.153,1.153,0,0,0,27.97,7.74Z"/><path class="cls-6" d="M22,30C13.716,30,7,24.18,7,17a12.055,12.055,0,0,1,3.966-8.785C9.858,7.64,9,6.821,9,6a1.153,1.153,0,0,1,.03-.26H9a8.747,8.747,0,0,0-.98.46A12.57,12.57,0,0,0,1,17.48C1,26.76,9.06,33,19,33s18-6.24,18-15.52c0-.1-.008-.2-.01-.3C36.877,24.276,30.214,30,22,30Z"/><path class="cls-7" d="M21.637,6.119a3.139,3.139,0,0,0-2.612.528L19,6.661V14c2,0,4-2.864,4-4.893C23,7.335,22.448,6.419,21.637,6.119Z"/><path class="cls-1" d="M18.972,6.645h0a3.137,3.137,0,0,0-2.61-.526C15.551,6.42,15,7.336,15,9.107,15,11.136,17,14,19,14V6.661Z"/><path class="cls-8" d="M19.025,6.647h0a3.139,3.139,0,0,1,2.612-.528h0L21.62,6.11,21.66,6c-.981-1.206-.982-2.41.81-2.836A4.493,4.493,0,0,0,19,1V6.66Z"/><path class="cls-9" d="M18.972,6.645c.009.005.019.009.028.015V1a4.493,4.493,0,0,0-3.47,2.164c1.792.426,1.791,1.63.81,2.836l.06.1c-.014.005-.025.014-.038.019h0A3.137,3.137,0,0,1,18.972,6.645Z"/><path class="cls-1" d="M18.972,6.645h0a3.137,3.137,0,0,0-2.61-.526A3.137,3.137,0,0,1,18.972,6.645Z"/><path class="cls-1" d="M19.025,6.647a3.139,3.139,0,0,1,2.612-.528A3.139,3.139,0,0,0,19.025,6.647Z"/><path class="cls-5" d="M21.62,6.11c.79.28,1.34,1.15,1.38,2.83A9.054,9.054,0,0,0,24.11,9C26.14,9,29,7.5,29,6H21.66Z"/><path class="cls-1" d="M24.11,3c-3.38,0-3.67,1.5-2.45,3H29a1.153,1.153,0,0,0-.03-.26C28.67,4.33,26.02,3,24.11,3Z"/><path class="cls-8" d="M13.89,3C11.98,3,9.33,4.33,9.03,5.74A1.153,1.153,0,0,0,9,6h7.34C17.56,4.5,17.27,3,13.89,3Z"/><path class="cls-9" d="M9,6c0,1.5,2.86,3,4.89,3A9.054,9.054,0,0,0,15,8.94c.04-1.7.6-2.57,1.4-2.84L16.34,6Z"/><path class="cls-10" d="M25.2,12.744a21.338,21.338,0,0,1-2.646.951A12.1,12.1,0,0,0,19.72,14.7a2.086,2.086,0,0,0-.683,2.158,2.475,2.475,0,0,0,1.537,1.9,12.086,12.086,0,0,1,2.589,1.6c.886.788,1.68,1.677,2.555,2.478A6.968,6.968,0,0,0,30.187,25a2.474,2.474,0,0,0,1.519-.435,3.266,3.266,0,0,0,.651-.739,14.357,14.357,0,0,0,2.528-6.138,10.237,10.237,0,0,0-1.238-6.733,3.862,3.862,0,0,0-2.489-1.944c-1.038-.119-1.974.735-2.675,1.407A10.873,10.873,0,0,1,25.2,12.744Z"/><path class="cls-3" d="M34.93,19.2C34.55,20.24,32.67,25,30,25s-4.55-4.76-4.93-5.8a18.339,18.339,0,0,1,3.51,1.13,3.511,3.511,0,0,0,2.84,0A18.339,18.339,0,0,1,34.93,19.2Z"/><path class="cls-11" d="M37.56,19C42.25,19,47,22.42,47,31.03c0,7.47-5.02,14.92-12.44,15.93a4.987,4.987,0,0,1-2.71-.43A4.713,4.713,0,0,0,30,46.07a4.713,4.713,0,0,0-1.85.46,4.987,4.987,0,0,1-2.71.43C18.02,45.95,13,38.5,13,31.03,13,22.42,17.75,19,22.44,19h.95a7.621,7.621,0,0,1,1.68.2C25.45,20.24,27.33,25,30,25s4.55-4.76,4.93-5.8a7.621,7.621,0,0,1,1.68-.2Z"/><path class="cls-3" d="M25,38.98v.06a2.037,2.037,0,0,1-2.9,1.77c-1.67-.8-5.1-2.89-5.1-6.72a11.409,11.409,0,0,1,1.34-5.84,2.2,2.2,0,0,1,2.99-.99c1.67.98.67,4.21.67,6.83C22,37.39,25,35.67,25,38.98Z"/><path class="cls-12" d="M19,34.09a11.409,11.409,0,0,1,1.34-5.84,2.334,2.334,0,0,1,1-.987l-.005,0a2.2,2.2,0,0,0-2.99.99A11.409,11.409,0,0,0,17,34.09c0,3.83,3.43,5.92,5.1,6.72a2.039,2.039,0,0,0,1.852-.073C22.237,39.889,19,37.814,19,34.09Z"/><path class="cls-3" d="M41.66,28.25A11.409,11.409,0,0,1,43,34.09c0,3.83-3.43,5.92-5.1,6.72A2.037,2.037,0,0,1,35,39.04v-.06c0-3.31,3-1.59,3-4.89,0-2.62-1-5.85.67-6.83A2.207,2.207,0,0,1,41.66,28.25Z"/><path class="cls-12" d="M41.66,28.25a2.207,2.207,0,0,0-2.99-.99l-.006,0a2.365,2.365,0,0,1,1,.985A11.409,11.409,0,0,1,41,34.09c0,3.724-3.237,5.8-4.952,6.647a2.039,2.039,0,0,0,1.852.073c1.67-.8,5.1-2.89,5.1-6.72A11.409,11.409,0,0,0,41.66,28.25Z"/><path class="cls-3" d="M34.93,19.2C34.55,20.24,32.67,25,30,25s-4.55-4.76-4.93-5.8a18.339,18.339,0,0,1,3.51,1.13,3.511,3.511,0,0,0,2.84,0A18.339,18.339,0,0,1,34.93,19.2Z"/><path class="cls-4" d="M34.894,19.3C34.449,20.489,32.6,25,30,25s-4.449-4.511-4.894-5.7c-.365-.112-.736-.214-1.106-.3.462,1.434,2.75,8,6,8s5.538-6.566,6-8C35.63,19.082,35.259,19.184,34.894,19.3Z"/><rect class="cls-13" x="27" y="27" width="2" height="14" rx="1" ry="1"/><rect class="cls-13" x="31" y="27" width="2" height="14" rx="1" ry="1"/><path class="cls-14" d="M33,27a.977.977,0,0,0-.5.153A.985.985,0,0,1,33,28V40a.985.985,0,0,1-.5.847A.977.977,0,0,0,33,41a1,1,0,0,0,1-1V28A1,1,0,0,0,33,27Z"/><path class="cls-14" d="M27,27a.977.977,0,0,1,.5.153A.985.985,0,0,0,27,28V40a.985.985,0,0,0,.5.847A.977.977,0,0,1,27,41a1,1,0,0,1-1-1V28A1,1,0,0,1,27,27Z"/><path class="cls-3" d="M37.56,19h-.95a7.621,7.621,0,0,0-1.68.2,18.339,18.339,0,0,0-3.51,1.13,3.511,3.511,0,0,1-2.84,0,18.339,18.339,0,0,0-3.51-1.13,7.621,7.621,0,0,0-1.68-.2h-.95C17.75,19,13,22.42,13,31.03c0,7.47,5.02,14.92,12.44,15.93a4.987,4.987,0,0,0,2.71-.43A4.713,4.713,0,0,1,30,46.07a4.713,4.713,0,0,1,1.85.46,4.987,4.987,0,0,0,2.71.43C41.98,45.95,47,38.5,47,31.03,47,22.42,42.25,19,37.56,19ZM34.292,45.963a4.749,4.749,0,0,1-2.551-.4A4.472,4.472,0,0,0,30,45.137a4.472,4.472,0,0,0-1.741.427,4.749,4.749,0,0,1-2.551.4C18.725,45.025,14,38.107,14,31.171,14,23.175,18.471,20,22.885,20h.894a7.3,7.3,0,0,1,1.581.185,17.38,17.38,0,0,1,3.3,1.05,3.346,3.346,0,0,0,2.672,0,17.38,17.38,0,0,1,3.3-1.05A7.3,7.3,0,0,1,36.221,20h.894C41.529,20,46,23.175,46,31.171,46,38.107,41.275,45.025,34.292,45.963Z"/><path class="cls-13" d="M28.664,21.235a3.346,3.346,0,0,0,2.672,0,17.625,17.625,0,0,1,3.186-1.022c.192-.441.332-.8.408-1.013a18.339,18.339,0,0,0-3.51,1.13,3.511,3.511,0,0,1-2.84,0,18.339,18.339,0,0,0-3.51-1.13c.076.209.216.572.408,1.013A17.625,17.625,0,0,1,28.664,21.235Z"/><path class="cls-15" d="M20.307,19.256c-.079-.018-.158-.041-.237-.056a8.262,8.262,0,0,0-.889-.152c-.061-.014-.12-.035-.181-.048l.013.038c-.21-.019-.42-.038-.623-.038h-.95a8.723,8.723,0,0,0-8.015,5.073A14.113,14.113,0,0,0,13.3,27.579C14.208,22.589,17.088,20.016,20.307,19.256Z"/><path class="cls-15" d="M31.42,20.33a18.84,18.84,0,0,1,3.273-1.074A9.272,9.272,0,0,0,32.56,19h-.95c-.2,0-.413.019-.623.038L31,19c-.061.013-.12.034-.181.048a8.262,8.262,0,0,0-.889.152,15.975,15.975,0,0,0-2.43.706c.388.143.759.287,1.08.424A3.511,3.511,0,0,0,31.42,20.33Z"/><path class="cls-16" d="M13,31.03a19.2,19.2,0,0,1,.3-3.451,14.113,14.113,0,0,1-3.878-3.506,14.83,14.83,0,0,0-1.388,5.91,18.8,18.8,0,0,0,5.011,2.205C13.022,31.8,13,31.416,13,31.03Z"/><path class="cls-1" d="M16.34,6a3.963,3.963,0,0,0,.287-.4l.05-.082a2.69,2.69,0,0,0,.193-.388c.007-.018.012-.036.018-.054a1.807,1.807,0,0,0,.092-.361c0-.012,0-.025.007-.037a1.239,1.239,0,0,0-.012-.361.339.339,0,0,0-.01-.048,1.141,1.141,0,0,0-.4-.632l-.03-.026a1.932,1.932,0,0,0-.408-.244L16.1,3.352a3.215,3.215,0,0,0-.569-.188h0A7.088,7.088,0,0,0,13.89,3a6.881,6.881,0,0,0-3.651,1.227c.066.595.143,1.186.236,1.773Z"/><path class="cls-8" d="M15,8.94c0-.1.012-.185.018-.278s.008-.165.016-.242c.01-.1.024-.194.038-.288s.025-.174.041-.254.04-.165.062-.245.037-.146.059-.212c.029-.087.063-.165.1-.243.02-.047.039-.1.061-.141a2.3,2.3,0,0,1,.151-.254c.014-.02.026-.043.04-.063A1.664,1.664,0,0,1,16.4,6.1L16.34,6H10.475c.116.732.257,1.456.414,2.173a6.755,6.755,0,0,0,3,.827A9.054,9.054,0,0,0,15,8.94Z"/><path class="cls-12" d="M13.453,10.977a6.846,6.846,0,0,1-1.989-.528A37.979,37.979,0,0,0,24.439,29.813c7.053-1,12.449-6.256,12.551-12.633A12.581,12.581,0,0,0,29.98,6.2a8.894,8.894,0,0,0-.99-.46h-.02A1.153,1.153,0,0,1,29,6a2.291,2.291,0,0,1-1.068,1.649c.009.031.031.06.038.091A1.153,1.153,0,0,1,28,8c0,1.5-2.86,3-4.89,3-.2,0-.388-.005-.566-.014C21.842,12.552,20.423,14,19,14a2.474,2.474,0,0,1-1-.232A2.478,2.478,0,0,1,17,14C15.575,14,14.155,12.546,13.453,10.977Z"/><path class="cls-14" d="M25.2,12.744a21.338,21.338,0,0,1-2.646.951A12.1,12.1,0,0,0,19.72,14.7a2.086,2.086,0,0,0-.683,2.158,2.475,2.475,0,0,0,1.537,1.9,12.086,12.086,0,0,1,2.589,1.6c.886.788,1.68,1.677,2.555,2.478A6.968,6.968,0,0,0,30.187,25a2.474,2.474,0,0,0,1.519-.435,3.266,3.266,0,0,0,.651-.739,14.357,14.357,0,0,0,2.528-6.138,10.237,10.237,0,0,0-1.238-6.733,3.862,3.862,0,0,0-2.489-1.944c-1.038-.119-1.974.735-2.675,1.407A10.873,10.873,0,0,1,25.2,12.744Z"/><path class="cls-17" d="M21.637,6.119a3.139,3.139,0,0,0-2.612.528L19,6.661V14c2,0,4-2.864,4-4.893C23,7.335,22.448,6.419,21.637,6.119Z"/><path class="cls-7" d="M18.972,6.645h0a3.137,3.137,0,0,0-2.61-.526C15.551,6.42,15,7.336,15,9.107,15,11.136,17,14,19,14V6.661Z"/><path class="cls-1" d="M19.025,6.647h0a3.139,3.139,0,0,1,2.612-.528h0L21.62,6.11,21.66,6c-.981-1.206-.982-2.41.81-2.836A4.493,4.493,0,0,0,19,1V6.66Z"/><path class="cls-5" d="M18.972,6.645c.009.005.019.009.028.015V1a4.493,4.493,0,0,0-3.47,2.164c1.792.426,1.791,1.63.81,2.836l.06.1c-.014.005-.025.014-.038.019h0A3.137,3.137,0,0,1,18.972,6.645Z"/><path class="cls-1" d="M21.62,6.11c.79.28,1.34,1.15,1.38,2.83A9.054,9.054,0,0,0,24.11,9C26.14,9,29,7.5,29,6H21.66Z"/><path class="cls-7" d="M24.11,3c-3.38,0-3.67,1.5-2.45,3H29a1.153,1.153,0,0,0-.03-.26C28.67,4.33,26.02,3,24.11,3Z"/><ellipse class="cls-18" cx="31" cy="12" rx="1.65" ry="2.297" transform="translate(0.599 25.445) rotate(-45.02)"/><ellipse class="cls-18" cx="33" cy="16" rx="0.825" ry="1.148" transform="translate(-1.644 28.033) rotate(-45.02)"/><ellipse class="cls-18" cx="30.746" cy="16.5" rx="0.413" ry="0.574" transform="translate(-2.659 26.585) rotate(-45.02)"/><path class="cls-15" d="M31.42,20.33a18.84,18.84,0,0,1,3.273-1.074A9.272,9.272,0,0,0,32.56,19h-.95c-.2,0-.413.019-.623.038L31,19c-.061.013-.12.034-.181.048a8.262,8.262,0,0,0-.889.152,15.975,15.975,0,0,0-2.43.706c.388.143.759.287,1.08.424A3.511,3.511,0,0,0,31.42,20.33Z"/><path class="cls-15" d="M20.07,19.2a8.262,8.262,0,0,0-.889-.152c-.061-.014-.12-.035-.181-.048l.013.038c-.21-.019-.42-.038-.623-.038h-.95a9.22,9.22,0,0,0-2.2.269c.4.686.822,1.363,1.268,2.02a8.474,8.474,0,0,1,3.8-2.033C20.228,19.238,20.149,19.215,20.07,19.2Z"/><path class="cls-19" d="M37.115,20h-.894a7.3,7.3,0,0,0-1.581.185c-.039.008-.078.02-.118.028C33.76,21.965,32.133,25,30,25s-3.76-3.035-4.522-4.787c-.04-.008-.079-.02-.118-.028A7.3,7.3,0,0,0,23.779,20h-.894a8.235,8.235,0,0,0-5.714,2.218A37.929,37.929,0,0,0,44.525,37.835,16.152,16.152,0,0,0,46,31.171C46,23.175,41.529,20,37.115,20Z"/><path class="cls-12" d="M34.93,19.2C34.55,20.24,32.67,25,30,25s-4.55-4.76-4.93-5.8a18.339,18.339,0,0,1,3.51,1.13,3.511,3.511,0,0,0,2.84,0A18.339,18.339,0,0,1,34.93,19.2Z"/><path class="cls-4" d="M34.894,19.3C34.449,20.489,32.6,25,30,25s-4.449-4.511-4.894-5.7c-.365-.112-.736-.214-1.106-.3.462,1.434,2.75,8,6,8s5.538-6.566,6-8C35.63,19.082,35.259,19.184,34.894,19.3Z"/><path class="cls-10" d="M28.664,21.235a3.346,3.346,0,0,0,2.672,0,17.625,17.625,0,0,1,3.186-1.022c.192-.441.332-.8.408-1.013a18.339,18.339,0,0,0-3.51,1.13,3.511,3.511,0,0,1-2.84,0,18.339,18.339,0,0,0-3.51-1.13c.076.209.216.572.408,1.013A17.625,17.625,0,0,1,28.664,21.235Z"/><path class="cls-11" d="M22.885,20h.894a7.3,7.3,0,0,1,1.581.185c.039.008.078.02.118.028-.192-.441-.332-.8-.408-1.013a7.621,7.621,0,0,0-1.68-.2h-.95a8.7,8.7,0,0,0-5.946,2.266c.218.323.449.636.677.952A8.235,8.235,0,0,1,22.885,20Z"/><path class="cls-11" d="M34.64,20.185A7.3,7.3,0,0,1,36.221,20h.894C41.529,20,46,23.175,46,31.171a16.152,16.152,0,0,1-1.475,6.664c.347.032.7.058,1.045.08A17.587,17.587,0,0,0,47,31.03C47,22.42,42.25,19,37.56,19h-.95a7.621,7.621,0,0,0-1.68.2c-.076.209-.216.572-.408,1.013C34.562,20.2,34.6,20.193,34.64,20.185Z"/><path class="cls-12" d="M41,34.09a11.409,11.409,0,0,0-1.34-5.84,2.365,2.365,0,0,0-1-.985l.006,0C37,28.24,38,31.47,38,34.09a2.215,2.215,0,0,1-1.15,2.247q1.62.5,3.3.849A6.02,6.02,0,0,0,41,34.09Z"/><path class="cls-4" d="M39.66,28.25A11.409,11.409,0,0,1,41,34.09a6.02,6.02,0,0,1-.85,3.1c.591.124,1.188.232,1.79.328A6.056,6.056,0,0,0,43,34.09a11.409,11.409,0,0,0-1.34-5.84,2.207,2.207,0,0,0-2.99-.99l-.006,0A2.365,2.365,0,0,1,39.66,28.25Z"/><path class="cls-10" d="M28,27a.977.977,0,0,0-.5.153h0a1.067,1.067,0,0,0-.3.272,1.019,1.019,0,0,0-.083.123.9.9,0,0,0-.055.123A1,1,0,0,0,27,28v3.677c.652.433,1.321.842,2,1.235V28A1,1,0,0,0,28,27Z"/><path class="cls-10" d="M33,28a1,1,0,0,0-.066-.329.9.9,0,0,0-.055-.123,1.019,1.019,0,0,0-.083-.123,1.067,1.067,0,0,0-.3-.272h0A.977.977,0,0,0,32,27a1,1,0,0,0-1,1v5.991c.657.328,1.322.643,2,.934Z"/><path class="cls-20" d="M33,27a.977.977,0,0,0-.5.153.974.974,0,0,1,.3.272.914.914,0,0,1,.083.123,1.126,1.126,0,0,1,.055.123A.941.941,0,0,1,33,28v6.925c.33.142.665.273,1,.406V28A1,1,0,0,0,33,27Z"/><path class="cls-20" d="M27,28a.941.941,0,0,1,.066-.329,1.126,1.126,0,0,1,.055-.123.914.914,0,0,1,.083-.123.974.974,0,0,1,.3-.272A.977.977,0,0,0,27,27a1,1,0,0,0-1,1v2.984c.331.235.662.469,1,.693Z"/><ellipse class="cls-18" cx="40" cy="24" rx="1.65" ry="2.297" transform="translate(-5.251 35.329) rotate(-45.02)"/><ellipse class="cls-18" cx="36" cy="34" rx="0.825" ry="1.148" transform="translate(-13.497 35.431) rotate(-45.02)"/><ellipse class="cls-18" cx="35.746" cy="31.5" rx="0.413" ry="0.574" transform="translate(-11.803 34.519) rotate(-45.02)"/><path class="cls-21" d="M36.919,16a12.665,12.665,0,0,0-6.935-9.8,9.937,9.937,0,0,0-.991-.467"/><path class="cls-21" d="M9,5.738a9.9,9.9,0,0,0-.984.464A12.572,12.572,0,0,0,1,17.477c0,6.218,3.619,11.074,9,13.6"/><path class="cls-21" d="M19,14c2,0,4-2.864,4-4.893,0-3.38-2-3.669-4-2.446-2-1.223-4-.934-4,2.446C15,11.136,17,14,19,14Z"/><path class="cls-21" d="M22.379,3A4.471,4.471,0,0,0,19,1a4.468,4.468,0,0,0-3.378,2"/><path class="cls-21" d="M23,8.935A8.674,8.674,0,0,0,24.107,9C26.136,9,29,7.5,29,6s-2.864-3-4.893-3c-3.38,0-3.669,1.5-2.446,3"/><path class="cls-21" d="M15,8.935A8.674,8.674,0,0,1,13.893,9C11.864,9,9,7.5,9,6s2.864-3,4.893-3c3.38,0,3.669,1.5,2.446,3"/><path class="cls-21" d="M35,19s-2,6-5,6-5-6-5-6"/><path class="cls-21" d="M19,44.108a17.162,17.162,0,0,1-6-13.076C13,22.422,17.746,19,22.444,19h.945a14.65,14.65,0,0,1,5.187,1.333,3.6,3.6,0,0,0,2.848,0A14.65,14.65,0,0,1,36.611,19h.945a8.738,8.738,0,0,1,5.657,2"/><path class="cls-21" d="M44.226,22C45.9,23.934,47,26.88,47,31.032c0,7.47-5.023,14.914-12.438,15.927a4.96,4.96,0,0,1-2.708-.428A4.639,4.639,0,0,0,30,46.073a4.639,4.639,0,0,0-1.854.458,4.96,4.96,0,0,1-2.708.428A12.686,12.686,0,0,1,20.221,45"/><line class="cls-21" x1="32" y1="28" x2="32" y2="40"/><line class="cls-21" x1="28" y1="28" x2="28" y2="40"/><path class="cls-21" d="M33,16a6.7,6.7,0,0,0-1.268-3.995"/></g></svg>