<svg xmlns="http://www.w3.org/2000/svg" viewBox="0 0 48 48"><defs><style>.cls-1{fill:#4f4600;}.cls-2{fill:#4d002f;}.cls-3{fill:#6e0043;}.cls-4{fill:#3f7000;}.cls-5{fill:#63b300;}.cls-6{fill:#403700;}.cls-7{fill:#860052;}.cls-8{fill:#30001e;}.cls-9{fill:#3b0024;}.cls-10{fill:#a10062;}.cls-11{fill:#589e00;}.cls-12{fill:#8bc808;}.cls-13{fill:#66003f;}.cls-14{fill:#cf007e;}.cls-15{fill:#f6fafd;}.cls-16{fill:none;stroke:#001a1f;stroke-linejoin:round;stroke-width:2px;}</style></defs><title>28-plum</title><g id="_28-plum" data-name="28-plum"><path class="cls-1" d="M22,9c.64-4.35,2.7-8,5.95-8L30,3a7.335,7.335,0,0,0-4.17,6H22Z"/><path class="cls-2" d="M22,9h3c-6.08,0-11,8.5-11,19,0,7.64,2.65,14.22,7.94,17.24A3.362,3.362,0,0,1,19,47C10.81,47,4,37.16,4,25,4,16.16,10.26,9,18,9Z"/><path class="cls-3" d="M25,9h5c7.74,0,14,7.16,14,16,0,12.16-6.81,22-15,22a14.02,14.02,0,0,1-7.06-1.76C16.65,42.22,14,35.64,14,28,14,17.5,18.92,9,25,9Z"/><path class="cls-4" d="M22.8,4A2.624,2.624,0,0,1,23,5c0,2-2,6-16,6C7,7.16,14.05,4.05,22.8,4Z"/><path class="cls-5" d="M17,1c2.8,0,5.14,1.27,5.8,3C14.05,4.05,7,7.16,7,11A9.991,9.991,0,0,1,17,1Z"/><path class="cls-1" d="M22,9c.64-4.35,2.7-8,5.95-8L30,3a7.335,7.335,0,0,0-4.17,6H22Z"/><path class="cls-6" d="M28.95,2l1.032,1.007L30,3,27.95,1C24.7,1,22.64,4.65,22,9h1.178C23.971,5.106,25.953,2,28.95,2Z"/><path class="cls-2" d="M22,9h3c-6.08,0-11,8.5-11,19,0,7.64,2.65,14.22,7.94,17.24A3.362,3.362,0,0,1,19,47C10.81,47,4,37.16,4,25,4,16.16,10.26,9,18,9Z"/><path class="cls-7" d="M25,9h5c7.74,0,14,7.16,14,16,0,12.16-6.81,22-15,22a14.02,14.02,0,0,1-7.06-1.76C16.65,42.22,14,35.64,14,28,14,17.5,18.92,9,25,9Z"/><path class="cls-3" d="M31,42a14.224,14.224,0,0,1-6.589-1.482C19.473,37.975,17,32.434,17,26c0-8.842,4.592-16,10.267-16h4.666a12.681,12.681,0,0,1,4.73.923A12.6,12.6,0,0,0,30,9H25c-6.08,0-11,8.5-11,19,0,7.64,2.65,14.22,7.94,17.24A14.02,14.02,0,0,0,29,47c6.274,0,11.734-5.777,13.947-13.946C40.474,38.411,36.022,42,31,42Z"/><path class="cls-4" d="M22.8,4A2.624,2.624,0,0,1,23,5c0,2-2,6-16,6C7,7.16,14.05,4.05,22.8,4Z"/><path class="cls-5" d="M17,1c2.8,0,5.14,1.27,5.8,3C14.05,4.05,7,7.16,7,11A9.991,9.991,0,0,1,17,1Z"/><path class="cls-8" d="M21.762,45.558a1.777,1.777,0,0,0,.178-.318,12.569,12.569,0,0,1-1.391-.936c-.074-.056-.149-.111-.221-.169A13.266,13.266,0,0,1,19.071,43c-.015-.016-.029-.032-.044-.047a15.226,15.226,0,0,1-2.207-2.981h0A24.187,24.187,0,0,1,14,28C14,17.5,18.92,9,25,9H24C16.26,9,9,16.16,9,25a28.754,28.754,0,0,0,3.253,13.6c-2.537-.723-5.664-2.409-6.943-4.651C7.669,41.639,12.957,47,19,47a3.284,3.284,0,0,0,1.425-.336h0a3.59,3.59,0,0,0,.977-.683l.042-.042a3.02,3.02,0,0,0,.262-.306C21.725,45.607,21.745,45.583,21.762,45.558Z"/><path class="cls-3" d="M9.651,18.525a2.746,2.746,0,0,0,.311-1.675,1.106,1.106,0,0,0-.638-.742,1.527,1.527,0,0,0-1.178.025,2.361,2.361,0,0,0-.652.447A4.885,4.885,0,0,0,6.02,19.8a2.408,2.408,0,0,0,.423,1.88c.564.623,1.375.252,1.792-.464A24.436,24.436,0,0,0,9.651,18.525Z"/><path class="cls-9" d="M11.517,10.837A14.646,14.646,0,0,0,7.1,14.965a42.752,42.752,0,0,0,5.851-.542,15.415,15.415,0,0,1,8.026-5.054A3.2,3.2,0,0,0,21,9H19.767A23.234,23.234,0,0,1,11.517,10.837Z"/><path class="cls-10" d="M29.183,15.177a1,1,0,0,0-.119.881,1.428,1.428,0,0,0,.525.471,28.349,28.349,0,0,1,7.6,7.124,3.9,3.9,0,0,0,.939,1.03,1.651,1.651,0,0,0,1.462.232,1.487,1.487,0,0,0,.7-.678,6,6,0,0,0,.26-5.155,16,16,0,0,0-3.043-4.72,15.016,15.016,0,0,0-2.344-2.3,5.015,5.015,0,0,0-2.21-1.026C30.31,10.628,29.865,13.734,29.183,15.177Z"/><ellipse class="cls-10" cx="31" cy="22" rx="2" ry="4" transform="translate(-6.477 28.364) rotate(-45)"/><path class="cls-10" d="M41.439,37.247A29.429,29.429,0,0,0,44,25c0-8.84-6.26-16-14-16H25c-3.99,0-7.469,3.672-9.4,9.155A38.017,38.017,0,0,0,41.439,37.247Z"/><path class="cls-7" d="M27.267,10h4.666a12.681,12.681,0,0,1,4.73.923A12.6,12.6,0,0,0,30,9H25c-3.99,0-7.469,3.672-9.4,9.155q.859,1.581,1.862,3.067C18.768,14.717,22.66,10,27.267,10Z"/><path class="cls-7" d="M42.947,33.054a18.683,18.683,0,0,1-2.466,3.977c.316.073.631.15.951.215A26.781,26.781,0,0,0,42.947,33.054Z"/><path class="cls-2" d="M24,9H18a12.472,12.472,0,0,0-5.572,1.323q.489,1.737,1.133,3.4A14.644,14.644,0,0,1,24,9Z"/><path class="cls-2" d="M13.561,13.726A37.918,37.918,0,0,0,15.6,18.155C17.531,12.672,21.01,9,25,9H24A14.644,14.644,0,0,0,13.561,13.726Z"/><path class="cls-11" d="M23,5a2.624,2.624,0,0,0-.2-1A28.7,28.7,0,0,0,11.5,6.137a37.819,37.819,0,0,0,1.049,4.609C21.554,9.837,23,6.7,23,5Z"/><path class="cls-12" d="M22.8,4c-.66-1.73-3-3-5.8-3a9.953,9.953,0,0,0-5.878,1.918c.083,1.086.206,2.16.377,3.219A28.7,28.7,0,0,1,22.8,4Z"/><path class="cls-13" d="M20.977,9.369A3.2,3.2,0,0,0,21,9H19.767a21.736,21.736,0,0,1-7.22,1.741q.45,1.533,1.023,3.008A15.265,15.265,0,0,1,20.977,9.369Z"/><path class="cls-1" d="M22,9c.64-4.35,2.7-8,5.95-8L30,3a7.335,7.335,0,0,0-4.17,6H22Z"/><path class="cls-6" d="M28.95,2l1.032,1.007L30,3,27.95,1C24.7,1,22.64,4.65,22,9h1.178C23.971,5.106,25.953,2,28.95,2Z"/><path class="cls-14" d="M29.183,15.177a1,1,0,0,0-.119.881,1.428,1.428,0,0,0,.525.471,28.349,28.349,0,0,1,7.6,7.124,3.9,3.9,0,0,0,.939,1.03,1.651,1.651,0,0,0,1.462.232,1.487,1.487,0,0,0,.7-.678,6,6,0,0,0,.26-5.155,16,16,0,0,0-3.043-4.72,15.016,15.016,0,0,0-2.344-2.3,5.015,5.015,0,0,0-2.21-1.026C30.31,10.628,29.865,13.734,29.183,15.177Z"/><ellipse class="cls-14" cx="31" cy="22" rx="2" ry="4" transform="translate(-6.477 28.364) rotate(-45)"/><ellipse class="cls-15" cx="35" cy="15" rx="1.65" ry="2.297" transform="translate(-0.35 29.154) rotate(-45.02)"/><ellipse class="cls-15" cx="38" cy="19" rx="0.825" ry="1.148" transform="translate(-2.3 32.449) rotate(-45.02)"/><ellipse class="cls-15" cx="19" cy="3" rx="0.825" ry="1.148" transform="translate(3.448 14.319) rotate(-45.02)"/><ellipse class="cls-15" cx="35.746" cy="19.5" rx="0.413" ry="0.574" transform="translate(-3.315 31.001) rotate(-45.02)"/><path class="cls-16" d="M22,9c.644-4.349,2.7-8,5.946-8L30,3a7.343,7.343,0,0,0-4.173,6"/><path class="cls-16" d="M22,45c0,.553-1.244,2-3,2C10.807,47,4,37.16,4,25A17.016,17.016,0,0,1,8.735,13"/><path class="cls-16" d="M19.06,43A13.363,13.363,0,0,0,29,47c8.193,0,15-9.84,15-22a16.463,16.463,0,0,0-7.215-14"/><path class="cls-16" d="M35,10.047A12.464,12.464,0,0,0,30,9H25c-6.08,0-11,8.5-11,19,0,5.546,1.394,10.533,4.183,14"/><path class="cls-16" d="M23,5c0,2-2,6-16,6A9.995,9.995,0,0,1,17,1C20.316,1,23,2.789,23,5Z"/><path class="cls-16" d="M7,11c0-3.869,7.156-7,16-7"/><path class="cls-16" d="M36,15.445A11.061,11.061,0,0,0,34.333,14"/><path class="cls-16" d="M39,23a10.961,10.961,0,0,0-2.511-7"/></g></svg>