<svg xmlns="http://www.w3.org/2000/svg" viewBox="0 0 48 48"><defs><style>.cls-1{fill:#745a00;}.cls-2{fill:#977b00;}.cls-3{fill:#3f7000;}.cls-4{fill:#589e00;}.cls-5{fill:#ff8269;}.cls-6{fill:#da1202;}.cls-7{fill:#f75749;}.cls-8{fill:#8bc808;}.cls-9{fill:#4f4600;}.cls-10{fill:#b31700;}.cls-11{fill:#fe9a82;}.cls-12{fill:#de3f2e;}.cls-13{fill:#961300;}.cls-14{fill:#2f4700;}.cls-15{fill:#f84634;}.cls-16{fill:#f7786d;}.cls-17{fill:#ffb3a1;}.cls-18{fill:#ffd3c9;}.cls-19{fill:#63b300;}.cls-20{fill:#9cdf00;}.cls-21{fill:#f6fafd;}.cls-22{fill:none;stroke:#001a1f;stroke-linejoin:round;stroke-width:2px;}</style></defs><title>06-rose apple</title><g id="_06-rose_apple" data-name="06-rose apple"><rect class="cls-1" x="22" y="1" width="4" height="9"/><path class="cls-2" d="M26,1V9.15c-.22-.03-.44-.06-.67-.08A11.486,11.486,0,0,0,24,9c-.45,0-.88.02-1.31.06L22,9.15V1Z"/><path class="cls-3" d="M5,23,23,9C23,16,15.59,23,5,23Z"/><path class="cls-4" d="M23,9,5,23C5,12.5,14.53,9,23,9Z"/><path class="cls-5" d="M38.27,30C39.36,32,41,34,41,38c0,4.42-1.97,8-8,8a6.878,6.878,0,0,1-2.99-1l2-2c2.45-1.63,2.9-4.6,2.99-6.72a6.155,6.155,0,0,0-.42-2.44c-.57-1.42-1.7-4.11-3.57-7.84C27.25,18.49,30.55,10.98,26,9.26V9.15c4.63.73,7.64,4.05,7.97,8.92a11.778,11.778,0,0,0,.54,2.69A52.572,52.572,0,0,0,38.27,30Z"/><path class="cls-6" d="M22,9.15v.12c-4.54,1.72-1.25,9.22-5,16.73-1.87,3.73-3,6.42-3.56,7.84a5.983,5.983,0,0,0-.42,2.44c.08,2.12.53,5.09,2.98,6.72l2,2a7.008,7.008,0,0,1-3,1c-6.03,0-8-3.58-8-8,0-4,1.64-6,2.73-8a52.572,52.572,0,0,0,3.76-9.24,11.778,11.778,0,0,0,.54-2.69C14.36,13.2,17.37,9.88,22,9.15Z"/><path class="cls-7" d="M26,9.26c4.55,1.72,1.25,9.23,5.01,16.74,1.87,3.73,3,6.42,3.57,7.84A6.155,6.155,0,0,1,35,36.28c-.09,2.12-.54,5.09-2.99,6.72l-2,2H30a10.962,10.962,0,0,1-6,2,10.962,10.962,0,0,1-6-2l-2-2c-2.45-1.63-2.9-4.6-2.98-6.72a5.983,5.983,0,0,1,.42-2.44C14,32.42,15.13,29.73,17,26c3.75-7.51.46-15.01,5-16.73a3.481,3.481,0,0,1,.69-.21C23.12,9.02,23.55,9,24,9a11.486,11.486,0,0,1,1.33.07A4.068,4.068,0,0,1,26,9.26Z"/><path class="cls-4" d="M25,4,43,18C32.41,18,25,11,25,4Z"/><path class="cls-8" d="M25,4c8.47,0,18,3.5,18,14Z"/><path class="cls-3" d="M5,23,23,9C23,16,15.59,23,5,23Z"/><path class="cls-4" d="M23,9,5,23C5,12.5,14.53,9,23,9Z"/><rect class="cls-1" x="22" y="1" width="4" height="9"/><rect class="cls-2" x="24" y="1" width="2" height="9"/><rect class="cls-1" x="24" y="8" width="2" height="2"/><rect class="cls-9" x="22" y="8" width="2" height="2"/><path class="cls-5" d="M38.27,30C39.36,32,41,34,41,38c0,4.42-1.97,8-8,8a6.878,6.878,0,0,1-2.99-1l2-2c2.45-1.63,2.9-4.6,2.99-6.72a6.155,6.155,0,0,0-.42-2.44c-.57-1.42-1.7-4.11-3.57-7.84C27.25,18.49,30.55,10.98,26,9.26V9.15c4.63.73,7.64,4.05,7.97,8.92a11.778,11.778,0,0,0,.54,2.69A52.572,52.572,0,0,0,38.27,30Z"/><path class="cls-6" d="M22,9.15v.12c-4.54,1.72-1.25,9.22-5,16.73-1.87,3.73-3,6.42-3.56,7.84a5.983,5.983,0,0,0-.42,2.44c.08,2.12.53,5.09,2.98,6.72l2,2a7.008,7.008,0,0,1-3,1c-6.03,0-8-3.58-8-8,0-4,1.64-6,2.73-8a52.572,52.572,0,0,0,3.76-9.24,11.778,11.778,0,0,0,.54-2.69C14.36,13.2,17.37,9.88,22,9.15Z"/><path class="cls-7" d="M26,9.26c4.55,1.72,1.25,9.23,5.01,16.74,1.87,3.73,3,6.42,3.57,7.84A6.155,6.155,0,0,1,35,36.28c-.09,2.12-.54,5.09-2.99,6.72l-2,2H30a10.962,10.962,0,0,1-6,2,10.962,10.962,0,0,1-6-2l-2-2c-2.45-1.63-2.9-4.6-2.98-6.72a5.983,5.983,0,0,1,.42-2.44C14,32.42,15.13,29.73,17,26c3.75-7.51.46-15.01,5-16.73a3.481,3.481,0,0,1,.69-.21C23.12,9.02,23.55,9,24,9a11.486,11.486,0,0,1,1.33.07A4.068,4.068,0,0,1,26,9.26Z"/><path class="cls-5" d="M29.639,25c-2.223-5.534-.272-11.067-2.962-12.335a2.1,2.1,0,0,0-.4-.14,5.459,5.459,0,0,0-.787-.051,6.545,6.545,0,0,0-.774.044,1.743,1.743,0,0,0-.408.155C21.627,13.94,23.573,19.466,21.355,25c-1.105,2.748-1.773,4.731-2.1,5.777a5.392,5.392,0,0,0-.249,1.8c.048,1.562.314,3.75,1.762,4.951L21.947,39a5.7,5.7,0,0,0,3.547,1.474A5.7,5.7,0,0,0,29.042,39h0l1.183-1.474c1.449-1.2,1.715-3.389,1.768-4.951a5.524,5.524,0,0,0-.249-1.8C31.412,29.731,30.744,27.748,29.639,25Z"/><path class="cls-10" d="M16,43c-2.45-1.63-2.9-4.6-2.98-6.72a5.983,5.983,0,0,1,.42-2.44C14,32.42,15.13,29.73,17,26c3.75-7.51.46-15.01,5-16.73V9.15a9.413,9.413,0,0,0-5.2,2.5c-1.112,3.2-.017,8.771-2.8,14.35-1.87,3.73-3,6.42-3.56,7.84a5.983,5.983,0,0,0-.42,2.44c.08,2.12.53,5.09,2.98,6.72l2,2c.408.262.838.518,1.29.756A6.684,6.684,0,0,0,18,45Z"/><path class="cls-7" d="M8,38c0-4,1.64-6,2.73-8a52.572,52.572,0,0,0,3.76-9.24,11.778,11.778,0,0,0,.54-2.69c.3-4.363,2.747-7.475,6.582-8.6A3.8,3.8,0,0,1,22,9.27V9.15c-4.63.73-7.64,4.05-7.97,8.92a11.778,11.778,0,0,1-.54,2.69A52.572,52.572,0,0,1,9.73,30C8.64,32,7,34,7,38c0,4.42,1.97,8,8,8a2.776,2.776,0,0,0,.337-.025C9.833,45.715,8,42.251,8,38Z"/><path class="cls-11" d="M40,38c0-4-1.64-6-2.73-8a52.572,52.572,0,0,1-3.76-9.24,11.778,11.778,0,0,1-.54-2.69c-.3-4.363-2.747-7.475-6.582-8.6A3.8,3.8,0,0,0,26,9.27V9.15c4.63.73,7.64,4.05,7.97,8.92a11.778,11.778,0,0,0,.54,2.69A52.572,52.572,0,0,0,38.27,30C39.36,32,41,34,41,38c0,4.42-1.97,8-8,8a2.776,2.776,0,0,1-.337-.025C38.167,45.715,40,42.251,40,38Z"/><path class="cls-12" d="M32,43c2.45-1.63,2.9-4.6,2.98-6.72a5.983,5.983,0,0,0-.42-2.44C34,32.42,32.87,29.73,31,26c-3.75-7.51-.46-15.01-5-16.73V9.15a9.413,9.413,0,0,1,5.2,2.5c1.112,3.2.017,8.771,2.8,14.35,1.87,3.73,3,6.42,3.56,7.84a5.983,5.983,0,0,1,.42,2.44C37.9,38.4,37.45,41.37,35,43l-2,2c-.408.262-.838.518-1.29.756A6.684,6.684,0,0,1,30,45Z"/><path class="cls-10" d="M15,45l-2-2a5.528,5.528,0,0,1-.587-.475A3.231,3.231,0,0,1,10,41a7.387,7.387,0,0,0,3.675,4.772,11.31,11.31,0,0,0,1.662.2A2.776,2.776,0,0,1,15,46a5.8,5.8,0,0,0,1.78-.41c-.16.059-.324.116-.49.166C15.838,45.518,15.408,45.262,15,45Z"/><path class="cls-13" d="M13,43l2,2c.408.262.838.518,1.29.756.166-.05.33-.107.49-.166l.064-.024c.135-.051.264-.1.387-.157l.094-.042c.108-.048.206-.1.3-.145l.093-.047A2.581,2.581,0,0,0,18,45l-2-2c-.131-.087-.235-.192-.355-.287a18.438,18.438,0,0,1-3.232-.188A5.528,5.528,0,0,0,13,43Z"/><path class="cls-12" d="M38,41a3.231,3.231,0,0,1-2.413,1.525A5.528,5.528,0,0,1,35,43l-2,2c-.408.262-.838.518-1.29.756-.168-.051-.336-.109-.5-.169A5.785,5.785,0,0,0,33,46a2.776,2.776,0,0,1-.337-.025,11.31,11.31,0,0,0,1.662-.2A7.387,7.387,0,0,0,38,41Z"/><path class="cls-10" d="M33,45l2-2a5.528,5.528,0,0,0,.587-.475,18.428,18.428,0,0,1-3.222.188c-.12.095-.224.2-.355.287l-2,2a3.326,3.326,0,0,0,.467.271c.057.028.112.056.174.085l.145.064c.119.051.242.1.371.15l.044.017c.163.06.331.118.5.169C32.162,45.518,32.592,45.262,33,45Z"/><path class="cls-5" d="M34,36a8.463,8.463,0,0,1-4.99,7.622,1.492,1.492,0,0,1-2.01-1.4h0a1.479,1.479,0,0,1,1.125-1.444C30.1,40.3,34,38.984,34,36Z"/><path class="cls-11" d="M31.749,30.777c-.337-1.046-1-3.029-2.11-5.777-2.223-5.534-.272-11.067-2.962-12.335a2.1,2.1,0,0,0-.4-.14,5.459,5.459,0,0,0-.787-.051c-.038,0-.074,0-.112.006C26.381,16.433,29,27.335,29,33a8.591,8.591,0,0,1-4.394,7.376,4.352,4.352,0,0,0,.888.1A5.7,5.7,0,0,0,29.042,39h0l1.183-1.474c1.449-1.2,1.715-3.389,1.768-4.951A5.524,5.524,0,0,0,31.749,30.777Z"/><path class="cls-4" d="M25,4,43,18C32.41,18,25,11,25,4Z"/><path class="cls-8" d="M25,4c8.47,0,18,3.5,18,14Z"/><path class="cls-14" d="M13.49,20.76a11.778,11.778,0,0,0,.54-2.69,11.355,11.355,0,0,1,.428-2.426l-3.466,2.695a12.314,12.314,0,0,1-.5,2.421c-.149.485-.334,1.06-.545,1.686a20.5,20.5,0,0,0,3.345-1.053C13.36,21.175,13.43,20.954,13.49,20.76Z"/><path class="cls-3" d="M16.068,10.064a9.088,9.088,0,0,0-1.155.675l-.061.044A9.351,9.351,0,0,0,11.03,18.07c-.006.091-.029.179-.038.269l3.466-2.695a8.828,8.828,0,0,1,3.394-4.861l.061-.044a9.088,9.088,0,0,1,1.155-.675l.116-.055a9.719,9.719,0,0,1,1.267-.5c.041-.013.085-.023.126-.036A10.9,10.9,0,0,1,22,9.15v.12a3.464,3.464,0,0,1,.5-.152c-.059-.014-.108-.035-.169-.048-.215-.025-.444-.024-.665-.035a27.743,27.743,0,0,0-4.369.538,10.071,10.071,0,0,0-1.112.436Z"/><path class="cls-1" d="M25.8,8c-.127-.317-.228-.639-.325-.961C24.983,7.015,24.49,7,24,7c0,.334.032.667.065,1Z"/><path class="cls-9" d="M24.065,8c.034.339.09.675.157,1.012.378.006.75.016,1.108.058a4.068,4.068,0,0,1,.67.19V8.432c-.064-.145-.138-.286-.2-.432Z"/><path class="cls-6" d="M33.97,18.07a11.585,11.585,0,0,0-.357-2.169c-.408-.2-.809-.4-1.193-.628-.231-.134-.453-.277-.675-.419.093,1.148.155,2.413.291,3.756.356.189.712.379,1.087.548.348.157.716.293,1.08.433A9.958,9.958,0,0,1,33.97,18.07Z"/><path class="cls-10" d="M26.574,9.563A3.675,3.675,0,0,0,26,9.27V9.26a4.068,4.068,0,0,0-.67-.19c-.358-.042-.73-.052-1.108-.058.067.331.145.66.243.988a12.1,12.1,0,0,0,1.057,2.476,5.521,5.521,0,0,1,.759.049,2.1,2.1,0,0,1,.4.14c1.061.5,1.4,1.671,1.555,3.237.206.194.414.388.633.574a21.989,21.989,0,0,0-.591-4.563A14.147,14.147,0,0,1,26.574,9.563Z"/><path class="cls-10" d="M31.745,14.854a16.605,16.605,0,0,1-3.461-2.93,22.2,22.2,0,0,1,.586,4.557,17.748,17.748,0,0,0,3.166,2.129C31.9,17.267,31.838,16,31.745,14.854Z"/><path class="cls-6" d="M26.677,12.665a2.1,2.1,0,0,0-.4-.14,5.521,5.521,0,0,0-.759-.049,14.549,14.549,0,0,0,2.71,3.426C28.074,14.336,27.738,13.165,26.677,12.665Z"/><polygon class="cls-1" points="24 7 24 1 22 1 22 8 24 8 24 7"/><path class="cls-2" d="M25.478,7.039A10.482,10.482,0,0,1,25,4c.331,0,.666.015,1,.026V1H24V7C24.49,7,24.983,7.015,25.478,7.039Z"/><path class="cls-2" d="M24,7V8h.065C24.032,7.667,24,7.334,24,7Z"/><path class="cls-1" d="M24.065,8H24V9c.077,0,.147.011.222.012C24.155,8.675,24.1,8.339,24.065,8Z"/><path class="cls-9" d="M23,9.046c.33-.023.658-.046,1-.046V8H22V9.026c.334-.011.669-.026,1-.026C23,9.015,23,9.031,23,9.046Z"/><path class="cls-9" d="M23,9l-.063.049.06,0C23,9.031,23,9.015,23,9Z"/><path class="cls-9" d="M22.33,9.07c.061.013.11.034.169.048.066-.017.122-.044.191-.058s.166-.005.247-.011L23,9c-.331,0-.666.015-1,.026v.027C22.111,9.057,22.223,9.058,22.33,9.07Z"/><path class="cls-11" d="M33.51,20.76a14.146,14.146,0,0,1-.387-1.6h0c-.375-.169-.731-.359-1.087-.548A20.816,20.816,0,0,0,34,26c1.87,3.73,3,6.42,3.56,7.84a5.983,5.983,0,0,1,.42,2.44c0,.118-.016.248-.023.371.66.18,1.326.345,2,.49-.219-3.425-1.679-5.293-2.686-7.141A52.572,52.572,0,0,1,33.51,20.76Z"/><path class="cls-7" d="M15.864,14.55a10.851,10.851,0,0,0-.834,3.52c-.015.225-.062.444-.094.666.27.474.547.943.836,1.4.328-2.183.369-4.218.543-5.942q.039-.376.087-.734A9.281,9.281,0,0,0,15.864,14.55Z"/><path class="cls-11" d="M29,32.91c-.026-5.688-2.622-16.5-3.616-20.43-.225,0-.445.013-.662.038a1.743,1.743,0,0,0-.408.155C21.627,13.94,23.573,19.466,21.355,25c-.214.533-.407,1.027-.589,1.5A38.036,38.036,0,0,0,29,32.91Z"/><path class="cls-10" d="M15.77,20.155l.008-.005-.006-.009Z"/><path class="cls-15" d="M16.4,13.465q-.048.357-.087.734c-.174,1.724-.215,3.759-.543,5.942l.006.009a38.048,38.048,0,0,0,2.265,3.228,26.088,26.088,0,0,0,1.006-5.731c.2-2.5.225-4.673.846-6.232A3.565,3.565,0,0,1,21.6,9.471,8.777,8.777,0,0,0,16.4,13.465Z"/><path class="cls-6" d="M22,9.27a3.683,3.683,0,0,0-.4.2l.009,0A3.8,3.8,0,0,1,22,9.27Z"/><path class="cls-7" d="M28.386,12.361c.029.117.059.232.083.354C28.445,12.593,28.414,12.479,28.386,12.361Z"/><path class="cls-7" d="M28.533,13.039c-.013-.077-.027-.152-.041-.228-.007-.033-.016-.063-.023-.1.039.193.072.392.1.6C28.559,13.221,28.548,13.126,28.533,13.039Z"/><path class="cls-7" d="M28.312,12.044c-.012-.044-.025-.087-.038-.13.043.142.076.3.112.447C28.361,12.256,28.341,12.145,28.312,12.044Z"/><path class="cls-7" d="M28.572,13.311c.013.088.026.176.038.267C28.6,13.488,28.585,13.4,28.572,13.311Z"/><path class="cls-7" d="M28.734,14.693c-.014-.16-.027-.322-.043-.477-.014-.139-.032-.271-.048-.407-.009-.079-.022-.153-.033-.231.067.5.119,1.025.162,1.582C28.76,15,28.747,14.847,28.734,14.693Z"/><path class="cls-16" d="M34.971,35.711a5.937,5.937,0,0,0-.411-1.871C34,32.42,32.87,29.73,31,26a24,24,0,0,1-2.137-9.525c-.219-.186-.425-.379-.631-.573h0c.242,2.4.061,5.747,1.407,9.1,1.105,2.748,1.773,4.731,2.11,5.777a5.524,5.524,0,0,1,.249,1.8,12.887,12.887,0,0,1-.182,1.815C32.844,34.875,33.9,35.319,34.971,35.711Z"/><path class="cls-7" d="M28.778,15.232c.029.4.057.817.085,1.243h0C28.836,16.048,28.808,15.634,28.778,15.232Z"/><path class="cls-16" d="M24.222,9.012C24.147,9.011,24.077,9,24,9c-.345,0-.673.023-1,.046l-.06,0c-.081.006-.166,0-.247.011s-.125.041-.191.058h0a3.464,3.464,0,0,0-.5.152V9.15a10.922,10.922,0,0,0-1.422.327h0l-.063.018-.063.018a9.719,9.719,0,0,0-1.267.5l-.116.055a8.749,8.749,0,0,0-.856.5c-.1.061-.2.11-.3.174h0l-.061.044h0a8.385,8.385,0,0,0-1.054.887,9.014,9.014,0,0,0-2.339,3.973c-.1.354-.187.721-.257,1.1l-.027.148c-.019.113-.026.234-.042.349q.385.759.8,1.5c.032-.222.079-.441.094-.666a10.851,10.851,0,0,1,.834-3.52,9.281,9.281,0,0,1,.538-1.085,8.777,8.777,0,0,1,5.2-3.994A3.565,3.565,0,0,0,19.9,11.415c-.621,1.559-.647,3.736-.846,6.232a26.088,26.088,0,0,1-1.006,5.731A37.954,37.954,0,0,0,20.766,26.5c.182-.474.375-.968.589-1.5,2.218-5.534.272-11.06,2.957-12.327a1.743,1.743,0,0,1,.408-.155c.217-.025.437-.034.662-.038.038,0,.074-.006.112-.006l.028,0A12.1,12.1,0,0,1,24.465,10C24.367,9.672,24.289,9.343,24.222,9.012Z"/><path class="cls-7" d="M37.98,36.28a5.983,5.983,0,0,0-.42-2.44C37,32.42,35.87,29.73,34,26a20.816,20.816,0,0,1-1.964-7.39h0a17.748,17.748,0,0,1-3.166-2.129A23.928,23.928,0,0,0,31.01,26c1.87,3.73,3,6.42,3.57,7.84a6.232,6.232,0,0,1,.41,1.877c.97.353,1.962.66,2.967.934C37.964,36.528,37.976,36.4,37.98,36.28Z"/><path class="cls-12" d="M26.555,9.53c-.056-.1-.121-.193-.174-.292-.13-.026-.249-.067-.381-.088v.11a3.745,3.745,0,0,1,.465.236C26.5,9.506,26.524,9.52,26.555,9.53Z"/><path class="cls-17" d="M26.372,9.223C26.248,9.2,26.127,9.17,26,9.15c.132.021.251.062.381.088Z"/><path class="cls-17" d="M33.97,18.07a9.431,9.431,0,0,0,.162,1.151A9.032,9.032,0,0,1,33.97,18.07Z"/><path class="cls-18" d="M38.27,30a52.572,52.572,0,0,1-3.76-9.24c-.119-.387-.219-.777-.307-1.169-.364-.14-.732-.276-1.08-.433a14.146,14.146,0,0,0,.387,1.6A52.572,52.572,0,0,0,37.27,30c1.007,1.848,2.467,3.716,2.686,7.141.335.072.672.137,1.01.2C40.793,33.788,39.3,31.883,38.27,30Z"/><path class="cls-18" d="M29.639,25c-1.346-3.351-1.165-6.695-1.407-9.1a14.569,14.569,0,0,1-2.71-3.426l-.028,0c-.038,0-.074,0-.112.006.994,3.934,3.59,14.742,3.616,20.43.916.53,1.855,1.027,2.818,1.48A12.887,12.887,0,0,0,32,32.575a5.524,5.524,0,0,0-.249-1.8C31.412,29.731,30.744,27.748,29.639,25Z"/><path class="cls-19" d="M26,4.778,25,4a10.482,10.482,0,0,0,.478,3.039c.1.322.2.644.325.961.059.146.133.287.2.432.119.265.234.531.372.791l.009.015c.053.1.118.194.174.292l.01.017.009.016a14.147,14.147,0,0,0,1.7,2.35h0l.01.011a16.212,16.212,0,0,0,2.47,2.246l.039.03q.461.339.952.654c.07.045.142.088.213.132.154.1.3.195.462.287h0c.384.223.784.429,1.192.628h0A21.326,21.326,0,0,0,43,18Z"/><path class="cls-20" d="M26,4.026C25.666,4.015,25.331,4,25,4l1,.778L43,18C43,7.911,34.2,4.294,26,4.026Z"/><path class="cls-1" d="M25.8,8c-.127-.317-.228-.639-.325-.961C24.983,7.015,24.49,7,24,7c0,.334.032.667.065,1Z"/><path class="cls-9" d="M24.065,8c.034.339.09.675.157,1.012.378.006.75.016,1.108.058a4.068,4.068,0,0,1,.67.19V8.432c-.064-.145-.138-.286-.2-.432Z"/><path class="cls-15" d="M34.132,19.221a9.032,9.032,0,0,1-.162-1.151c-.025-.37-.069-.728-.126-1.078-.006-.035-.013-.068-.019-.1-.058-.337-.127-.668-.212-.988h0c-.408-.2-.808-.4-1.192-.628h0c-.158-.092-.31-.19-.462-.287-.071-.044-.143-.087-.213-.132v0c.047.578.087,1.185.131,1.818s.093,1.269.16,1.935h0c.356.189.712.379,1.087.548.348.157.716.293,1.08.433C34.176,19.468,34.155,19.345,34.132,19.221Z"/><path class="cls-12" d="M28.772,15.16a15.83,15.83,0,0,0-.5-3.246h0a14.147,14.147,0,0,1-1.7-2.35A3.675,3.675,0,0,0,26,9.27V9.26a4.068,4.068,0,0,0-.67-.19c-.358-.042-.73-.052-1.108-.058.067.331.145.66.243.988a12.1,12.1,0,0,0,1.057,2.476,5.521,5.521,0,0,1,.759.049,2.1,2.1,0,0,1,.4.14,2.127,2.127,0,0,1,.411.261c.042.033.078.071.117.108a2.047,2.047,0,0,1,.216.23c.039.049.077.1.113.152a2.706,2.706,0,0,1,.154.263c.031.059.064.116.092.179.05.114.093.237.134.362s.079.264.112.4c.018.077.038.152.054.231.025.125.047.257.068.389.009.06.018.12.026.181.021.155.041.313.058.477h0c.206.194.414.388.633.574-.029-.428-.057-.842-.087-1.244Z"/><path class="cls-12" d="M32.036,18.609c-.067-.666-.117-1.312-.16-1.935s-.084-1.24-.131-1.818v0q-.492-.315-.952-.654l-.039-.03a16.258,16.258,0,0,1-2.47-2.245h0a15.836,15.836,0,0,1,.5,3.253l0,.05c.03.4.058.822.087,1.253a17.748,17.748,0,0,0,3.166,2.129Z"/><polygon class="cls-6" points="28.232 15.902 28.232 15.902 28.232 15.901 28.232 15.902"/><path class="cls-15" d="M28.174,15.424c-.008-.061-.017-.121-.026-.181-.021-.133-.043-.263-.068-.389-.016-.079-.036-.154-.054-.231-.033-.139-.07-.274-.112-.4s-.084-.248-.134-.362c-.028-.063-.061-.12-.092-.179a2.706,2.706,0,0,0-.154-.263c-.035-.053-.074-.1-.113-.152a2.047,2.047,0,0,0-.216-.23c-.039-.037-.075-.075-.117-.108a2.127,2.127,0,0,0-.411-.261,2.1,2.1,0,0,0-.4-.14,5.521,5.521,0,0,0-.759-.049,14.569,14.569,0,0,0,2.71,3.426h0C28.215,15.737,28.2,15.58,28.174,15.424Z"/><ellipse class="cls-21" cx="28" cy="29" rx="1.65" ry="2.297" transform="translate(-12.305 28.307) rotate(-45.02)"/><ellipse class="cls-21" cx="31" cy="32" rx="0.825" ry="1.148" transform="translate(-13.548 31.308) rotate(-45.02)"/><ellipse class="cls-21" cx="28.746" cy="26.5" rx="0.413" ry="0.574" transform="translate(-10.318 28.102) rotate(-45.02)"/><ellipse class="cls-21" cx="38.746" cy="35.5" rx="0.413" ry="0.574" transform="translate(-13.753 37.813) rotate(-45.02)"/><ellipse class="cls-21" cx="38.746" cy="11.5" rx="0.413" ry="0.574" transform="translate(3.223 30.778) rotate(-45.02)"/><path class="cls-22" d="M34.294,20a10.8,10.8,0,0,1-.326-1.932L33.963,18M24,9c-5.76,0-9.587,3.528-9.968,9.071a11.983,11.983,0,0,1-.539,2.686A52.571,52.571,0,0,1,9.727,30C8.636,32,7,34,7,38c0,4.422,1.97,8,8,8a6.982,6.982,0,0,0,3-1,10.977,10.977,0,0,0,6,2,10.977,10.977,0,0,0,6-2,6.982,6.982,0,0,0,3,1c6.03,0,8-3.578,8-8,0-4-1.636-6-2.727-8a50.207,50.207,0,0,1-3.37-8"/><path class="cls-22" d="M14.157,41A5.825,5.825,0,0,0,16,43l2,2"/><path class="cls-22" d="M23,9c-6,1-2,9-6,17-1.866,3.732-3,6.421-3.561,7.843a5.952,5.952,0,0,0-.421,2.432A13.45,13.45,0,0,0,13.374,39"/><path class="cls-22" d="M28.991,18a21.54,21.54,0,0,0,2.023,8c1.866,3.732,3,6.421,3.561,7.843A5.952,5.952,0,0,1,35,36.275c-.083,2.123-.531,5.091-2.982,6.725l-2,2"/><polyline class="cls-22" points="22 10 22 1 26 1 26 2"/><path class="cls-22" d="M31,4.623A28.3,28.3,0,0,0,25,4c0,7,7.412,14,18,14,0-7.408-4.744-11.332-10.513-13"/><line class="cls-22" x1="43" y1="18" x2="25" y2="4"/><polyline class="cls-22" points="22 10 22 1 26 1 26 4"/><path class="cls-22" d="M13,21.528A21.774,21.774,0,0,1,5,23C5,12.911,13.8,9.285,22,9.016"/><line class="cls-22" x1="5" y1="23" x2="11.429" y2="18"/><path class="cls-22" d="M31.515,38c-.894,2.565-2.866,4-4.515,4"/><path class="cls-22" d="M32,35a9.538,9.538,0,0,1-.2,2"/></g></svg>