<svg id="_01-watermelon" data-name="01-watermelon" xmlns="http://www.w3.org/2000/svg" viewBox="0 0 48 48"><defs><style>.cls-1{fill:#436600;}.cls-2{fill:#5d881d;}.cls-3{fill:#fdf1c1;}.cls-4{fill:#f84634;}.cls-5{fill:#689629;}.cls-6{fill:#8bc808;}.cls-7{fill:#da1202;}.cls-8{fill:#f8695b;}.cls-9{fill:#7eaf31;}.cls-10{fill:#dfe778;}.cls-11{fill:#b31700;}.cls-12{fill:#527710;}.cls-13{fill:#c8da00;}.cls-14{fill:#224326;}.cls-15{fill:#961300;}.cls-16{fill:#362f00;}.cls-17{fill:#2f4700;}.cls-18{fill:#ff604f;}.cls-19{fill:#4f4600;}.cls-20{fill:#ffd2c7;}.cls-21{fill:#ffb3a1;}.cls-22{fill:#f6fafd;}.cls-23{fill:none;stroke:#001a1f;stroke-linejoin:round;stroke-width:2px;}</style></defs><title>01-watermelon</title><path class="cls-1" d="M8.58,9.89C7.5,11.4,6.45,13.11,6.64,14.91c.18,1.62,1.35,3.06,1.34,4.69,0,1.48-.97,2.77-1.75,4.07A6.559,6.559,0,0,0,5.07,28.1c.36,1.96,2.16,3.5,2.53,5.46.29,1.52-.32,3.06-.42,4.6a6.78,6.78,0,0,0,.32,2.45A21.994,21.994,0,0,1,10.47,6.92,18.361,18.361,0,0,1,8.58,9.89Z"/><path class="cls-1" d="M17.21,40.11c-.58,2.27.61,4.56,1.84,6.53a20.964,20.964,0,0,1-3.46-.92c-1.42-1.43-3-3.47-2.59-4.72a14.1,14.1,0,0,0,1-3c.13-1.18-1.23-2.34-1.68-3.42a18.533,18.533,0,0,1-1.15-3.87,5.9,5.9,0,0,1,.09-3.15,16.654,16.654,0,0,1,1.42-2.31,5.525,5.525,0,0,0,.42-4.36c-.33-.97-.91-1.81-1.28-2.76a6.617,6.617,0,0,1,.97-6.36,7.411,7.411,0,0,0,1.39-1.86c.22-.58.84-1.28.82-1.91a16.56,16.56,0,0,1,.25-3.59V4.4a21.753,21.753,0,0,1,3.78-1.04,6.394,6.394,0,0,0-.17,2.69c.19,1.49.54,3.11-.11,4.42-.21.42-.51.78-.75,1.18a7.463,7.463,0,0,0-.49,5.26c.38,1.77,1.05,3.45,1.3,5.24a4.958,4.958,0,0,1,.02,1.63c-.33,1.88-2.17,3.02-2.68,4.84-.87,3.09,2.41,6.13,1.78,9.28C17.77,38.67,17.4,39.35,17.21,40.11Z"/><path class="cls-2" d="M13,41c-.41,1.25,1.17,3.29,2.59,4.72A21.813,21.813,0,0,1,7.5,40.61a6.78,6.78,0,0,1-.32-2.45c.1-1.54.71-3.08.42-4.6-.37-1.96-2.17-3.5-2.53-5.46a6.559,6.559,0,0,1,1.16-4.43c.78-1.3,1.75-2.59,1.75-4.07.01-1.63-1.16-3.07-1.34-4.69-.19-1.8.86-3.51,1.94-5.02a18.361,18.361,0,0,0,1.89-2.97A21.606,21.606,0,0,1,15.25,4.4v.01A16.56,16.56,0,0,0,15,8c.02.63-.6,1.33-.82,1.91a7.411,7.411,0,0,1-1.39,1.86,6.617,6.617,0,0,0-.97,6.36c.37.95.95,1.79,1.28,2.76a5.525,5.525,0,0,1-.42,4.36,16.654,16.654,0,0,0-1.42,2.31,5.9,5.9,0,0,0-.09,3.15,18.533,18.533,0,0,0,1.15,3.87c.45,1.08,1.81,2.24,1.68,3.42A14.1,14.1,0,0,1,13,41Z"/><path class="cls-2" d="M23,7V47a21.417,21.417,0,0,1-3.95-.36c-1.23-1.97-2.42-4.26-1.84-6.53.19-.76.56-1.44.72-2.21.63-3.15-2.65-6.19-1.78-9.28.51-1.82,2.35-2.96,2.68-4.84a4.958,4.958,0,0,0-.02-1.63c-.25-1.79-.92-3.47-1.3-5.24A7.463,7.463,0,0,1,18,11.65c.24-.4.54-.76.75-1.18.65-1.31.3-2.93.11-4.42a6.394,6.394,0,0,1,.17-2.69A21.634,21.634,0,0,1,23,3Z"/><path class="cls-3" d="M23,3a22,22,0,0,1,0,44V43A18,18,0,1,0,23,7Z"/><path class="cls-4" d="M35.73,12.27A18,18,0,0,1,23,43V7A17.983,17.983,0,0,1,35.73,12.27Z"/><path class="cls-5" d="M25,36H21.25L19,39h4l2.01-2.68C25,36.21,25,36.11,25,36Z"/><path class="cls-6" d="M35,43c-5.38,0-9.75-2.96-9.99-6.68L23,39c0,4.26,4.65,7.74,11.26,7.99.24.01.49.01.74.01,7,0,12-3.58,12-8l-2.01-2.68C44.75,40.04,40.38,43,35,43Z"/><path class="cls-1" d="M23,39H19s0,7.75,15.26,7.99C27.65,46.74,23,43.26,23,39Z"/><path class="cls-7" d="M31,23,21.25,36H25c0,.11,0,.21.01.32L35,23Z"/><path class="cls-8" d="M35,23,25.01,36.32C25.25,40.04,29.62,43,35,43s9.75-2.96,9.99-6.68Z"/><path class="cls-1" d="M8.58,9.89C7.5,11.4,6.45,13.11,6.64,14.91c.18,1.62,1.35,3.06,1.34,4.69,0,1.48-.97,2.77-1.75,4.07A6.559,6.559,0,0,0,5.07,28.1c.36,1.96,2.16,3.5,2.53,5.46.29,1.52-.32,3.06-.42,4.6a6.78,6.78,0,0,0,.32,2.45A21.994,21.994,0,0,1,10.47,6.92,18.361,18.361,0,0,1,8.58,9.89Z"/><path class="cls-1" d="M17.21,40.11c-.58,2.27.61,4.56,1.84,6.53a20.964,20.964,0,0,1-3.46-.92c-1.42-1.43-3-3.47-2.59-4.72a14.1,14.1,0,0,0,1-3c.13-1.18-1.23-2.34-1.68-3.42a18.533,18.533,0,0,1-1.15-3.87,5.9,5.9,0,0,1,.09-3.15,16.654,16.654,0,0,1,1.42-2.31,5.525,5.525,0,0,0,.42-4.36c-.33-.97-.91-1.81-1.28-2.76a6.617,6.617,0,0,1,.97-6.36,7.411,7.411,0,0,0,1.39-1.86c.22-.58.84-1.28.82-1.91a16.56,16.56,0,0,1,.25-3.59V4.4a21.753,21.753,0,0,1,3.78-1.04,6.394,6.394,0,0,0-.17,2.69c.19,1.49.54,3.11-.11,4.42-.21.42-.51.78-.75,1.18a7.463,7.463,0,0,0-.49,5.26c.38,1.77,1.05,3.45,1.3,5.24a4.958,4.958,0,0,1,.02,1.63c-.33,1.88-2.17,3.02-2.68,4.84-.87,3.09,2.41,6.13,1.78,9.28C17.77,38.67,17.4,39.35,17.21,40.11Z"/><path class="cls-2" d="M13,41c-.41,1.25,1.17,3.29,2.59,4.72A21.813,21.813,0,0,1,7.5,40.61a6.78,6.78,0,0,1-.32-2.45c.1-1.54.71-3.08.42-4.6-.37-1.96-2.17-3.5-2.53-5.46a6.559,6.559,0,0,1,1.16-4.43c.78-1.3,1.75-2.59,1.75-4.07.01-1.63-1.16-3.07-1.34-4.69-.19-1.8.86-3.51,1.94-5.02a18.361,18.361,0,0,0,1.89-2.97A21.606,21.606,0,0,1,15.25,4.4v.01A16.56,16.56,0,0,0,15,8c.02.63-.6,1.33-.82,1.91a7.411,7.411,0,0,1-1.39,1.86,6.617,6.617,0,0,0-.97,6.36c.37.95.95,1.79,1.28,2.76a5.525,5.525,0,0,1-.42,4.36,16.654,16.654,0,0,0-1.42,2.31,5.9,5.9,0,0,0-.09,3.15,18.533,18.533,0,0,0,1.15,3.87c.45,1.08,1.81,2.24,1.68,3.42A14.1,14.1,0,0,1,13,41Z"/><path class="cls-2" d="M23,7V47a21.417,21.417,0,0,1-3.95-.36c-1.23-1.97-2.42-4.26-1.84-6.53.19-.76.56-1.44.72-2.21.63-3.15-2.65-6.19-1.78-9.28.51-1.82,2.35-2.96,2.68-4.84a4.958,4.958,0,0,0-.02-1.63c-.25-1.79-.92-3.47-1.3-5.24A7.463,7.463,0,0,1,18,11.65c.24-.4.54-.76.75-1.18.65-1.31.3-2.93.11-4.42a6.394,6.394,0,0,1,.17-2.69A21.634,21.634,0,0,1,23,3Z"/><path class="cls-3" d="M23,3a22,22,0,0,1,0,44V43A18,18,0,1,0,23,7Z"/><path class="cls-4" d="M35.73,12.27A18,18,0,0,1,23,43V7A17.983,17.983,0,0,1,35.73,12.27Z"/><path class="cls-9" d="M23,3V4a21,21,0,0,1,0,42v1A22,22,0,0,0,23,3Z"/><path class="cls-10" d="M44,25A20.991,20.991,0,0,0,23,4V5a20,20,0,0,1,0,40v1A21,21,0,0,0,44,25Z"/><path class="cls-10" d="M27,5.4A20.121,20.121,0,0,0,23,5V7a17.993,17.993,0,0,1,4,.462Z"/><path class="cls-10" d="M27,42.538A17.993,17.993,0,0,1,23,43v2a20.047,20.047,0,0,0,4-.4Z"/><path class="cls-11" d="M27,7.462A17.993,17.993,0,0,0,23,7V43a17.993,17.993,0,0,0,4-.462Z"/><path class="cls-12" d="M27,3.37A22.058,22.058,0,0,0,23,3V4a21,21,0,0,1,4,.392Z"/><path class="cls-12" d="M23,46v1a22.058,22.058,0,0,0,4-.37V45.609A21.086,21.086,0,0,1,23,46Z"/><path class="cls-13" d="M27,4.392A21,21,0,0,0,23,4V5a20.121,20.121,0,0,1,4,.4Z"/><path class="cls-13" d="M27,44.6a20.047,20.047,0,0,1-4,.4v1a21.086,21.086,0,0,0,4-.391Z"/><path class="cls-14" d="M7.18,38.16c.07-1.08.386-2.16.471-3.233a24.191,24.191,0,0,1-5.3-17.508A21.989,21.989,0,0,0,7.5,40.61,6.78,6.78,0,0,1,7.18,38.16Z"/><path class="cls-14" d="M13.422,39.917c-.144.341-.292.689-.422,1.083-.41,1.25,1.17,3.29,2.59,4.72a20.964,20.964,0,0,0,3.46.92A11.261,11.261,0,0,1,17.079,41.7,21.974,21.974,0,0,1,13.422,39.917Z"/><path class="cls-1" d="M13,41c.13-.394.278-.742.422-1.083a22.911,22.911,0,0,1-5.771-4.99C7.566,36,7.25,37.08,7.18,38.16a6.78,6.78,0,0,0,.32,2.45,21.813,21.813,0,0,0,8.09,5.11C14.17,44.29,12.59,42.25,13,41Z"/><path class="cls-1" d="M17.079,41.7A11.261,11.261,0,0,0,19.05,46.64,21.417,21.417,0,0,0,23,47V42.969A19.974,19.974,0,0,1,17.079,41.7Z"/><rect class="cls-15" x="30" y="19" width="2" height="3" rx="1" ry="1"/><rect class="cls-15" x="35" y="25" width="2" height="3" rx="1" ry="1"/><rect class="cls-16" x="33" y="32" width="2" height="3" rx="1" ry="1"/><rect class="cls-16" x="28" y="28" width="2" height="3" rx="1" ry="1"/><rect class="cls-16" x="34" y="14" width="2" height="3" rx="1" ry="1"/><rect class="cls-16" x="28" y="11" width="2" height="3" rx="1" ry="1"/><path class="cls-3" d="M25,36H21.25L19,39h4l2.01-2.68C25,36.21,25,36.11,25,36Z"/><path class="cls-3" d="M35,43c-5.38,0-9.75-2.96-9.99-6.68L23,39c0,4.26,4.65,7.74,11.26,7.99.24.01.49.01.74.01,7,0,12-3.58,12-8l-2.01-2.68C44.75,40.04,40.38,43,35,43Z"/><path class="cls-6" d="M35,46c-.25,0-.5,0-.74-.011-5.877-.243-10.195-3.281-11.083-7.225L23,39c0,4.26,4.65,7.74,11.26,7.99.24.01.49.01.74.01,7,0,12-3.58,12-8l-.179-.238C45.9,42.873,41.252,46,35,46Z"/><path class="cls-10" d="M35,45c-.25,0-.5,0-.74-.011-5.511-.228-9.649-2.915-10.876-6.5l-.207.276c.888,3.944,5.206,6.982,11.083,7.225.24.011.49.011.74.011,6.252,0,10.9-3.127,11.821-7.238l-.206-.276C45.334,42.234,40.879,45,35,45Z"/><path class="cls-1" d="M23,39H19s0,7.75,15.26,7.99C27.65,46.74,23,43.26,23,39Z"/><path class="cls-7" d="M31,23,21.25,36H25c0,.11,0,.21.01.32L35,23Z"/><path class="cls-8" d="M35,23,25.01,36.32C25.25,40.04,29.62,43,35,43s9.75-2.96,9.99-6.68Z"/><polygon class="cls-10" points="20.5 37 19.75 38 23.75 38 24.5 37 20.5 37"/><polygon class="cls-6" points="19 39 23 39 23.75 38 19.75 38 19 39"/><rect class="cls-16" x="30" y="36" width="2" height="3" rx="1" ry="1"/><rect class="cls-16" x="34" y="28" width="2" height="3" rx="1" ry="1"/><rect class="cls-16" x="39" y="34" width="2" height="3" rx="1" ry="1"/><rect class="cls-4" x="34" y="33" width="2" height="3" rx="1" ry="1"/><path class="cls-17" d="M19.75,38l.75-1,.75-1L23,33.667V29.333l-5.082,6.776A4.711,4.711,0,0,1,17.93,37.9c-.16.77-.53,1.45-.72,2.21a4.992,4.992,0,0,0-.131,1.591h0a20.518,20.518,0,0,0,3.63.986A6.063,6.063,0,0,1,19,39Z"/><polygon class="cls-11" points="27 24 27 28.333 30.25 24 27 24"/><polygon class="cls-15" points="27 28.333 27 24 23 29.333 23 33.667 27 28.333"/><path class="cls-14" d="M18.063,44.9a13.878,13.878,0,0,0,4.446,2.075c.165,0,.325.022.491.022V44.517a9.577,9.577,0,0,1-2.291-1.83,20.518,20.518,0,0,1-3.63-.986,4.992,4.992,0,0,1,.131-1.591c.19-.76.56-1.44.72-2.21a4.711,4.711,0,0,0-.012-1.791L17.25,37l-.75,1-.75,1L15,40a3.951,3.951,0,0,0,.134.852A7.334,7.334,0,0,0,18.058,44.9"/><path class="cls-2" d="M15,8c.02.63-.6,1.33-.82,1.91a7.411,7.411,0,0,1-1.39,1.86,5.743,5.743,0,0,0-.608.942,37.9,37.9,0,0,0,6.525,11.507,3.51,3.51,0,0,0,.123-.439,4.958,4.958,0,0,0-.02-1.63c-.25-1.79-.92-3.47-1.3-5.24A7.463,7.463,0,0,1,18,11.65c.24-.4.54-.76.75-1.18.65-1.31.3-2.93.11-4.42a6.394,6.394,0,0,1,.17-2.69A21.753,21.753,0,0,0,15.25,4.4v.01A16.56,16.56,0,0,0,15,8Z"/><path class="cls-9" d="M12.79,11.77a7.411,7.411,0,0,0,1.39-1.86c.22-.58.84-1.28.82-1.91a16.56,16.56,0,0,1,.25-3.59V4.4a21.627,21.627,0,0,0-4.629,2.421,37.687,37.687,0,0,0,1.561,5.891A5.743,5.743,0,0,1,12.79,11.77Z"/><path class="cls-9" d="M18.86,6.05c.19,1.49.54,3.11-.11,4.42-.21.42-.51.78-.75,1.18a7.463,7.463,0,0,0-.49,5.26c.38,1.77,1.05,3.45,1.3,5.24a4.958,4.958,0,0,1,.02,1.63,3.51,3.51,0,0,1-.123.439A38.106,38.106,0,0,0,23,28.617V3a21.634,21.634,0,0,0-3.97.36A6.394,6.394,0,0,0,18.86,6.05Z"/><polygon class="cls-4" points="30.25 24 27 28.333 27 28.333 30.25 24"/><polygon class="cls-11" points="27 28.333 27 28.333 25.355 30.526 25.355 30.526 27 28.333"/><path class="cls-3" d="M46.216,37.955,44.99,36.32a5.112,5.112,0,0,1-.349,1.524C45.163,37.89,45.688,37.931,46.216,37.955Z"/><path class="cls-18" d="M31,23l-.75,1L27,28.333l-1.645,2.193c.537.4,1.087.781,1.645,1.151q.5.331,1.008.646L29,31l1-1.333L35,23Z"/><path class="cls-19" d="M35,28a1,1,0,0,0-1,1v1a1,1,0,0,0,2,0V29A1,1,0,0,0,35,28Z"/><path class="cls-19" d="M40.7,34.29A1,1,0,0,0,39,35v1a1.035,1.035,0,0,0,1,1,.961.961,0,0,0,.258-.052A.986.986,0,0,0,41,36V35A1,1,0,0,0,40.7,34.29Z"/><path class="cls-8" d="M35,33a1,1,0,0,0-1,1v1a.979.979,0,0,0,.073.359c.457.18.918.354,1.385.516A.99.99,0,0,0,36,35V34A1,1,0,0,0,35,33Z"/><polygon class="cls-11" points="30.25 24 27 24 27 28.333 30.25 24"/><path class="cls-15" d="M27,28.333V24l-3.674,4.9c.659.563,1.333,1.109,2.029,1.627Z"/><ellipse class="cls-20" cx="33.746" cy="38.5" rx="0.574" ry="0.413" transform="translate(-11.625 62.218) rotate(-76.364)"/><ellipse class="cls-20" cx="29.746" cy="40.5" rx="0.574" ry="0.413" transform="translate(-16.625 59.86) rotate(-76.364)"/><ellipse class="cls-20" cx="31.746" cy="33.5" rx="0.574" ry="0.413" transform="translate(-8.294 56.453) rotate(-76.364)"/><ellipse class="cls-20" cx="28.746" cy="36.5" rx="0.574" ry="0.413" transform="translate(-13.502 55.831) rotate(-76.364)"/><ellipse class="cls-20" cx="36.746" cy="41.5" rx="0.413" ry="0.574" transform="translate(-8.748 9.833) rotate(-13.636)"/><path class="cls-21" d="M44.99,36.32l-1.85-2.467-.7-.931-.715-.953-1.454-1.938L35,23l-5,6.667L29,31l-.992,1.323a37.753,37.753,0,0,0,6.065,3.036A.979.979,0,0,1,34,35V34a1,1,0,0,1,2,0v1a.99.99,0,0,1-.542.875c.494.173.99.339,1.493.491.684.207,1.377.392,2.076.561.353.085.707.17,1.064.245s.729.142,1.095.208c.382.069.769.125,1.154.182a.573.573,0,0,1,.159-.567c.19-.141.455-.03.591.249a.777.777,0,0,1,.072.436c.491.062.982.121,1.479.164A5.112,5.112,0,0,0,44.99,36.32ZM36,30a1,1,0,0,1-2,0V29a1,1,0,0,1,2,0Zm5,5.775V36a.986.986,0,0,1-.742.948A.961.961,0,0,1,40,37a1.035,1.035,0,0,1-1-1V35a1,1,0,0,1,2,0Z"/><path class="cls-20" d="M42.4,37.756c.136.279.4.391.59.249a.471.471,0,0,0,.17-.325c-.275-.035-.548-.077-.822-.118A.8.8,0,0,0,42.4,37.756Z"/><path class="cls-22" d="M43.09,37.244c-.136-.279-.4-.39-.591-.249a.573.573,0,0,0-.159.567c.274.041.547.083.822.118A.777.777,0,0,0,43.09,37.244Z"/><ellipse class="cls-20" cx="39.746" cy="38.5" rx="0.413" ry="0.574" transform="translate(-7.956 10.455) rotate(-13.636)"/><ellipse class="cls-22" cx="37.746" cy="34.5" rx="0.413" ry="0.574" transform="translate(-7.07 9.871) rotate(-13.636)"/><ellipse class="cls-22" cx="39.746" cy="32.5" rx="0.413" ry="0.574" transform="translate(-6.542 10.286) rotate(-13.636)"/><ellipse class="cls-22" cx="13.246" cy="9" rx="2.297" ry="1.65" transform="translate(-2.485 11.997) rotate(-44.98)"/><ellipse class="cls-22" cx="14.246" cy="14" rx="1.148" ry="0.825" transform="translate(-5.727 14.167) rotate(-44.98)"/><ellipse class="cls-22" cx="16.5" cy="7.5" rx="0.574" ry="0.413" transform="translate(-0.473 13.858) rotate(-44.98)"/><path class="cls-23" d="M22,46.978A21.98,21.98,0,1,1,44.637,29"/><path class="cls-23" d="M23,3a1.959,1.959,0,0,1,2-2"/><path class="cls-23" d="M26,7.249A18,18,0,0,1,41,25h0"/><line class="cls-23" x1="23" y1="3" x2="23" y2="29"/><line class="cls-23" x1="35" y1="18" x2="35" y2="20"/><line class="cls-23" x1="27" y1="12" x2="27" y2="14"/><line class="cls-23" x1="27" y1="19" x2="27" y2="21"/><path class="cls-23" d="M23,39c0,4.422,5,8,12,8s12-3.578,12-8L35,23Z"/><path class="cls-23" d="M45,36c0,3.869-4.473,7-10,7s-10-3.131-10-7"/><path class="cls-23" d="M35,23H31L19,39s0,8,16,8"/><line class="cls-23" x1="23" y1="39" x2="19" y2="39"/><line class="cls-23" x1="21" y1="36" x2="25" y2="36"/><path class="cls-23" d="M10.47,6.92A18.68,18.68,0,0,1,8.583,9.891C7.5,11.4,6.445,13.107,6.643,14.911c.178,1.615,1.347,3.064,1.34,4.687-.007,1.477-.976,2.776-1.749,4.07A6.568,6.568,0,0,0,5.068,28.1C5.43,30.06,7.227,31.6,7.6,33.555c.292,1.525-.319,3.063-.418,4.608A6.828,6.828,0,0,0,7.5,40.61"/><path class="cls-23" d="M15.59,45.717c-1.416-1.432-3-3.47-2.59-4.717a14.024,14.024,0,0,0,1-3c.129-1.177-1.228-2.342-1.681-3.422a18.7,18.7,0,0,1-1.149-3.867,5.919,5.919,0,0,1,.086-3.15,17.917,17.917,0,0,1,1.426-2.31,5.522,5.522,0,0,0,.414-4.365c-.322-.969-.908-1.81-1.275-2.76a6.615,6.615,0,0,1,.971-6.361A7.311,7.311,0,0,0,14.178,9.91C14.4,9.333,15.019,8.626,15,8a16.544,16.544,0,0,1,.254-3.594"/><path class="cls-23" d="M17.9,36c-.495-2.484-2.442-4.914-1.75-7.377.513-1.824,2.353-2.966,2.687-4.84a5.113,5.113,0,0,0-.021-1.628c-.257-1.791-.925-3.478-1.3-5.244a7.422,7.422,0,0,1,.491-5.261c.238-.4.537-.756.745-1.175.655-1.32.3-2.935.111-4.424a6.407,6.407,0,0,1,.165-2.686"/></svg>